<mxfile host="app.diagrams.net" modified="2024-03-28T13:30:38.239Z" agent="Mozilla/5.0 (Windows NT 10.0; Win64; x64) AppleWebKit/537.36 (KHTML, like Gecko) Chrome/123.0.0.0 Safari/537.36" etag="Q3-MnxLEMnm_mM5rgO-Z" version="24.0.6" type="github">
  <diagram name="Page-1" id="Rb9Lw7Bem1rLi__Mrubt">
    <mxGraphModel dx="794" dy="378" grid="1" gridSize="10" guides="1" tooltips="1" connect="1" arrows="1" fold="1" page="1" pageScale="1" pageWidth="850" pageHeight="1100" math="0" shadow="0">
      <root>
        <mxCell id="0" />
        <mxCell id="1" parent="0" />
        <mxCell id="DckorlrUe_CT-1jbjkwf-1" value="" style="rounded=0;whiteSpace=wrap;html=1;strokeColor=none;" vertex="1" parent="1">
          <mxGeometry x="60" y="60" width="810" height="380" as="geometry" />
        </mxCell>
        <mxCell id="DckorlrUe_CT-1jbjkwf-2" value="" style="shape=image;verticalLabelPosition=bottom;labelBackgroundColor=default;verticalAlign=top;aspect=fixed;imageAspect=0;image=data:image/png,iVBORw0KGgoAAAANSUhEUgAAA+gAAAMDCAYAAAAxID+lAAAgAElEQVR4XuydBbhUVfu3H0VKSkVKUDHATuzu7sbCBOzCFn1NLOxA7Pa1wO7uwHxN7EARMVFK5Lt+i2/Nf84wM2fPnIm9177XdZ0LOGfvtddzP2uAe6+aZfr06dONAgEIQAACEIAABCAAAQhAAAIQgEBdCcyCoNeVPw+HAAQgAAEIQAACEIAABCAAAQg4Agg6HQECEIAABCAAAQhAAAIQgAAEIBADAgh6DJJAEyAAAQhAAAIQgAAEIAABCEAAAgg6fQACEIAABCAAAQhAAAIQgAAEIBADAgh6DJJAEyAAAQhAAAIQgAAEIAABCEAAAgg6fQACEIAABCAAAQhAAAIQgAAEIBADAgh6DJJAEyAAAQhAAAIQgAAEIAABCEAAAgg6fQACEIAABCAAAQhAAAIQgAAEIBADAgh6DJJAEyAAAQhAAAIQgAAEIAABCEAAAgg6fQACEIAABCAAAQhAAAIQgAAEIBADAgh6DJJAE6pL4O8/p9n4H6bYpL+mVfdB1A6BJhCYo3MLm3VWs47dWjShluTd+u2nE236dLPJf/P5TF720tHiVm2a2eztmqXus/nzmCmmfz/5bKajnycxSn02W7dtZnPPk65/N5OYK9pcGgEEvTReXJ0wAhMnTLPvRk+05q2aWesO/AWesPSlqrlTJ02zib9Psbm6tkiNCEjOp00zPpup6unJC9Z/Nufs0iI1IjDu+yn21x/T+Gwmr7umqsX6bE6bMs29QOvUnf/jpSr5gQeLoAee4LSHJwGYtXkza9Wev7jT3heSEP8/k6fZH2MnWq/l2iahuU1qowRg6lSzlu34bDYJJDfXhID/bPbo1dqN2IVcNOPslx+n2Fzzhf/3UMh5TFNsE8ZNdC/P2rQP+7OZppymPVYEPe09IPD4R789gf9kBJ7j0ML786eJ1mXeFsFLgF6ezTIbM1tC678hx5OWz6YEfeJEZraE3JdDi02zz6b/M83m7d06tNCIJ6UEEPSUJj4NYfvp7YwCpCHb4cQoCWg/ZzM31T3kopdn7bu0ttlaMuIRcp5Dik0SMPvsFvxnk5dnIfXadMSCoKcjz2mKEkFPU7ZTFiuCnrKEBxIugh5IIgkjOAIIenApJaBACCDogSSSMDIEEHQ6Q7AEEPRgUxt0YAh60OkluAQTQNATnDyaHjQBBD3o9KYyOAQ9lWlPR9AIejryHFqUCHpoGSWeUAgg6KFkkjhCI4Cgh5ZR4kHQ6QPBEkDQg01t0IEh6EGnl+ASTABBT3DyaHrQBBD0oNObyuAQ9FSmPR1BI+jpyHNoUSLooWWUeEIhgKCHkkniCI0Agh5aRokHQacPBEsAQQ82tUEHhqAHnV6CSzABBD3ByaPpQRNA0INObyqDQ9BTmfZ0BI2gpyPPoUWJoIeWUeIJhQCCHkomiSM0Agh6aBklHgSdPhAsAQQ92NQGHRiCHnR6CS7BBBD0BCePpgdNAEEPOr2pDA5BT2Xa0xE0gp6OPIcWJYIeWkaJJxQCCHoomSSO0Agg6KFllHgQdPpAsAQQ9GBTG3RgCHrQ6SW4BBNA0BOcPJoeNAEEPej0pjI4BD2VaU9H0Ah6OvIcWpQIemgZJZ5QCCDooWSSOEIjgKCHllHiQdDpA8ESQNCDTW3QgSHoQaeX4BJMAEFPcPJoetAEEPSg05vK4BD0VKY9HUEj6OnIc2hRIuihZZR4QiGAoIeSSeIIjQCCHlpGiQdBpw8ESwBBDza1QQeGoAedXoJLMAEEPcHJo+lBE0DQg05vKoND0FOZ9nQEjaCnI8+hRYmgh5ZR4gmFAIIeSiaJIzQCCHpoGSUeBJ0+ECwBBD3Y1AYdGIIedHoJLsEEEPQEJ4+mB00AQQ86vakMDkFPZdrTETSCno48hxYlgh5aRoknFAIIeiiZJI7QCCDooWWUeBB0+kCwBBD0YFMbdGAIetDpJbgEE0DQE5w8mh40AQQ96PSmMjgEPZVpT0fQCHo68hxalAh6aBklnlAIIOihZJI4QiOAoIeWUeJB0OkDwRJA0INNbdCBIehBp5fgEkwAQU9w8mh60AQQ9KDTm8rgEPRUpj0dQSPo6chzaFEi6KFllHhCIYCgh5JJ4giNAIIeWkaJB0GnDwRLAEEPNrVBB4agB51egkswAQQ9wcmj6UETQNCDTm8qg0PQU5n2dASNoKcjz6FFiaCHllHiCYUAgh5KJokjNAIIemgZJR4EnT4QLAEEPdjUBh0Ygh50egkuwQQQ9AQnj6YHTQBBDzq9qQwOQU9l2tMRNIKejjyHFiWCHlpGiScUAgh6KJkkjtAIIOihZZR4EHT6QLAEEPRgUxt0YAh60OkluAQTQNATnDyaHjQBBD3o9KYyOAQ9lWlPR9AIerQ8v/TSs/bZZ5/YOutsZPPPv4C76cYbr7KddtrDWreefaZKXn75ORs9+mNbf/1NrUeP+fI+5NZbr7N//plqffvubS1atHDX3H33rfbXXxNsl136WcuWraI1LoVXIegpTHqRkMeNG2tvvvmqffDBe/b999/avPPObyuttJqtsca6ee+aNm2avfrqC/b222+4z2n79h1s1VXXstVWW9vmmGNOd8/DD4+0L74YbZMmTbI555zL5puvp/XoMb/16rWozTbbbCSgAAEEvb5dY/r06TZq1Gv24Yfv2Ycfvm/Nmzd3fXbLLXdw/bie5eabr7Fhwy60Y4891bbaaoeKNGXs2B/s/vvvtkmTJtqUKVNs9tnbuHgXW2xJ69593pKfcd99d1mzZs1siy22K/neuN+AoMc9Q7SvVAIIeqnEuD4xBBD0aKnaf/++NmLEHXbrrffbxhtv6W6ae+5ZbJ99DrRzz718pkoGDTrAbrhhmN1112O27rob5X2I7lf58svfrV279u73PXu2twkT/rTRo8fX/T9T0cjU5yoEvT7c4/jUe++93Y48coD73OSW3Xff1y666JoG3/7tt1/tgAP2sCeeeGim61dZZU178MHn3fd32mkTe/rpx2a6ZokllrYrrrjZ9CtlZgIIev16xU8//WiHHbZf3r7dtm07e+ihF+vaby+55Bw77bTj7MILr7Y99tivIqBef/1l22yz1fPWdeCBR9nxx5+W9yV6vhvEb/HFu7kfffLJT9axY6eKtDEulSDocckE7agUAQS9UiSpJ3YEEPRoKSkk6Lr7pptG2GabbdOgIgQ9Gtdyr0LQyyUX1n3nn3+6nX32yS6ovn33sg033NzmmaeHvffeW3buuafaEUecYAMGHJYJWiNs6667nH3yyYfuuqOPPsWWXHIZN2vlueeetCWXXNa23nrHBoJ+zDGn2OKLL23fffeN3Xnnza5ulbfe+tKNqlMaEkDQ69Mjfv75J1thhYXdi6q55+5sgwYNdn17woQJds89t9kzzzxub7/9ZWRZrUYU1RT0+edf0E477XwX/0cf/c8uu+w8F8IKK6ziXkxoVLyxotkHxx9/qM0666x21lkXN3Z54n6OoCcuZTS4EQIIOl0kWAIIerTUFhN0jUy89NIHDabTIejRuJZ7FYJeLrlw7vvyy89sxRV7uYAuv/xG23nnPRsEN3Hi3+4/5S1atMx8//rrr7Sjjz7Q9J/5hx56wbp2nacgED+CrhF1jayr/PPPP7bjjhvbCy88beedd4XtvfcB4QCtUCQIeoVAlljN4YfvZ7fccq0tt9yKdscdD800+quZI375Rm7VEtOpU6c0+Kzke7z6v0pjSzw03bxVq9bu2kceuc822WQrm2WWWSyKoE+dOtV9biXJUYofQV9zzfVsxIinMrd8/fWXtuWWa9mYMd/Z0KHDrF+/AXmrmzx5UsWXk1WjzigsGrsGQW+MED9PGgEEPWkZo72RCSDo0VAVE3TVoP/Ajxz5dOY/Lgh6NK7lXoWgl0sunPsOPHBPN6K96aZb2803j2w0MK07X2ihOd0I25VX3mw77rh70XvyCbpuuPbay+3YYw92+0RcdtkNjT43bRcg6LXPuPZHWWWVRd2Dn356lC299PKRGvHVV5/biSceYdpjRZ+LhRbqbf369bcBAw5vMOKs2SVDhgx2+zyo6CWA1pFvsMGmmef8/fdfbtaKlnapLrVhwQUXtpEj77TBg4fYYYcdV1TQH3/8QTv77FMyM1R0/1FHnWSbb75t0VgKCbpuuuuuW9xyFr2QGzXqc1fP0kvP62YYDBlyiZ1yyiAXk2bTnH/+MBs0aKC7ZoEFFrb77nvG/vOfY+yOO26caSaOXmhsuulq9tVXX9hjj73i6tcLEE3f194Vms2gZ+jvppNOOjM2U+UR9EgfCy5KEAEEPUHJoqmlEUDQo/EqJOgaPd9zz/3tiisucP9hOfroGdNtEfRoXMu9CkEvl1w496288iL2+eef2v33P+s2d2usaIr6ssvO7y4bM2ZyZmPGQvcVEvSTTz7Kfd6POeY/punvlIYEEPTa9whtbLbvvjvZ6quv48QySvn0049so41WdjK9zjobus1MH330ASeXu+22j1188bWuGm1cOnDgjJdZ22+/q/tVU+ZVrrjiJrdRqoR1zz23daPl+jdx7bU3sIceGuGukbw+//y71qZN24KCPmzYRXbSSUe46yXmGoHWMhSVM8640AYOPLxgSMUEXdK88MIzNsb79tu/3PR+v/eL2rnooku40XNtJqlNJc899z/22msvZYRe8r7JJqu6P7/55mduFoCKf+bKK6/ups/rOWuttbQbrVe9qsvvXyFRf+21T6xDhzmipKWq1yDoVcVL5XUggKDXATqPrA0BBD0a52KC/vHHY2399Vdw/6F48MEXbJVV1kDQo2Et+yoEvWx0Qdw4Zcpkm2eeGacc/O9/3zeYqq5puOPHj8vEqf8wSw40Srj11uu6UUL9h7mxkivoqnfkyP9mZKXYBpCN1R3yzxH02md36NAz3Aj3fvsdbGeffWmDBkgeJby+dOkyYxO0vn23cJvJaWRbI9wq2iRtrbWWcZKukXiNJC+1VA8n8Xfc8XBmxPyVV563Lbdc240Sa137F198ZmuvvYyr49NPf7a55uroTlNYZpkZJ5h4Oc43xV0nJay0Um933XPPvWNLLDGjHo3ab7/9hu73n332S8Hp+cUEXff6jVdffPF/Tsi9oGvPiksuuS4j3bpWe1HMP3+7BiPu663Xx43qP/zwS068VbQp5U03DbfrrrvL7UbvlxfstddAO/30oe5FgLgfcsje7qWF9gM47rjTat8xcp6IoNc9BTSgwgQQ9AoDpbr4EEDQo+WimKB/9dUf7jgbvUHXf1heeeUjO/PME9nFPRrasq5C0MvCFsxN2bst546G6z/Ee+zxf5s2+um1Ooppn312jDzK6AVdgq/dnL/++osMP40kXnXVrcHwrGQgCHolaUarSxubXX31pQ1mcfk7V199icxotL43bty/TkQlriraP2WRRRbPPEibLmrzxVNOOcdtmqg9F/QZ+OKL3xqsC9fIskaYH330FTdyrM+WTjjRSSe+bL75Gm5EWqP6Gt3PJ+gXX3y2nX768bbttrvYqafO2NjNFz1bL76z5TiXSDFB18h+p04z1rK//fZX7vhFL+hqtzaQyy75BP32229woi35Pv/8K93LCrHTv/Xvv/+du71btxnHpD7xxOvmX4Doz9qr4qCD+rkZCnff/Xi0ZFbxKgS9inCpui4EEPS6YOehtSCAoEej3Jigqxb9B0n/Udpyy+3df+g5Zi0a23KuQtDLoRbOPf/++6917jxjV+ZRo76w+edfIBOcRruuv36Yvf76S+4/917QdTb0xhuv0mB0rBiR3GPWtE61d+/FbI899nef8aibWIVDPVokCHo0TpW8SksutPQi37GCWhc+Zsy3bgM5FQm6XihrxFvirWM+/dRt/dyv295zz/7uSDbtt6D9GrRvQ3bxo8bDh9/mRH611RZ30vrhhz+4z4Y2e+vVq6MTWj8ynk/QBwzYLTNlvhCT229/0J3QkK8UE/Tx43+2RRaZcVTajz9OdXvESNDzvXDQNfkEXZtNLrZYVxfHN99MMC0nkLCffPLZduihx9ro0R/bqqsuVjSdmravGQn1Lgh6vTPA8ytNAEGvNFHqiw0BBD1aKqIIuqRhl102a3B2cqFpsNlv9n/4YYo1b97cNYRz0KPlA0GPxinkq/zI4LXX3pk5Gi073gsvPMvNZPGCnj3qrmUpkolipdAa9JCZViI2BL0SFEurw88a0fKNl1/+cKYjxbRBYpcus7lKZwj6e7b22su69d654ujXg0v2l1pqOSfoElEJaXbZbbet7LHHHnDivsMOu7kj3jTLZJttdrLttuvrpFsyq9H5555718lxPkH39ejM8tVXz7+XxKqrrmXt23coWdBHjLjD9G939iZxXtA18y235BN0XaPN39R2vYzQJpGaFeDPSX/33VFuiZv+Prn44mvytrFTpy62/PIrlZbUKlyNoFcBKlXWlQCCXlf8PLyaBBD0aHSjCLpq+vHHMW43Xb1tVykk6H6anN7kZ/9HAUGPlg8EPRqnkK/y/2mWlGh9qX/J5WPOFXS9FFtjjSXdqHr2uttCjBD08noPgl4et6bcNW7cWDfKqzJs2C1OmLNLrqD//vtvbvM0/fvz+ee/NhB6L8wScq3Z3nXXLd0LML0I80X7MXTtOuOlsp9+rn/7Nt98zQZLQfTZ1AkLmnmi4gX9gguuMo3Qq5xxxgl20UVD3JT6Qw45pmQMhUbQtU/Fuusu7z7vxx9/utsRXqUcQddu93oBIQnX+vzsmQp//vmHLbDAjJcH3333d+Z4uZIDqcENCHoNIPOImhJA0GuKm4fVkgCCHo12VEFXbdq9tl+/7VzFEnRtGrfBBitaz54L2S233OemE44Y8V/bf/9dZloPi6BHyweCHo1TyFf9+usvttxyPd3LMB33dPnlN1nHjnO7kDW99tBD93HTdf0Iur7/6KP32+67b+2uueiia9x/tH3Rz3T91Vff4aboIujl9R4EvTxuTb3rvPNOs3POmXGqgPrwttvunKnS75Gib2gEXf8G+c3Psq/V5oqLLDJjZsljj71q883XMyP+b731pfuzyjPPPJ5Zm65NGiX6OpJMy7r23fcg92/dYostacss06fBi7P//vcmtyY7W/hffPEZ22ab9VwdTz75hi288CKZdn/wwXtumn2xkk/QtfGcpqFrpFtS/dZbX9jss7dx1ZQj6LrPv7iYEf9bbnaBL1tssZa9+uoLdvDBR9sJJ5yROSHil1/Gm14UdO06T1PTW5H7EfSKYKSSGBFA0GOUDJpSWQIIejSepQi6avTr8/wI+sEH7+XOU9V0P40+6HgoFU2Z03RAXxD0aPlA0KNxCv2qBx+81/baa/tMmKussqZ169bdXnvtRbdxlcp//nOu+4+zikbR9R93fRZVNMK31FLLunWkkgGVESOesjXXXA9BL7PzIOhlgmvibZqerZdP2phMRdO6l122j2m0/Nlnn8jU7gXdn2qgH2j3d+2bos+Fn6Z+zTX/dfdowzhtHCfR1RnpkydPtssum7GZ29Chw6xfvwHm94SQZGs6+jfffOl2cdd56TrHXEeRtmjR0saO/cGWWGKGrGrTOG2cppkv/t9L//0VV1zV3njjFXfywuOPv1Z0ergXdN2rfSL++OP3zAw2MdC/sX36rJyJv1xBf+qpR23nnTc1/R3z4IPPN8hW9jn0YrDLLv3cv/M6ok48tIY+DgVBj0MWaEMlCSDolaRJXbEigKBHS4cX9OzNavQPvf7TovWsuUWjelrjp11f1113I/vyy8/cetiRI2dME9Q/4jpDeeDAIxpsNoWgR8sHgh6NUxqu0hTW4447JCMmPmatr5VQ6DglyUF20TpS7R7tJV4/00jdmWde5M5EVtF+Ek8++UjRHaTTwLfUGBH0UolV7npJ4aWXnmvXX39lg76tf2+0Nnz//Q9tMCItAdaRYf6FsVqi9eY6EqxFixk7k+ul1nXXXeF2WvdLt/Tvno4T0+ZxvlxzzWVuurqu0WepXbsOblRZJftFtEbRtXGdXgT449c04+WKK4aalqX4Z6jNm266tRuR1u7rhYrf/NH/XC/dNDVfO7Tvv/8hM005L/bvtjaEm3feNnmPYtQyAR0Hp53mt9hixgy57PLRR/+zQYMGulF7X8Shf//D3LnycSgIehyyQBsqSQBBryRN6ooVAQS9eunQDrKtWrVyZzD7otGMSZMmNjiKpXotCLdmBD3c3JYbmeREa0U1Ite9+3xuU6rGiqagavO4nj0XjPXa0cbiiNPPEfR4ZEPncOsFVPfu81qHDnMUbZRGnfVvk64tdjqBRsCbNWvW6AaL/mGvvvqibbHFmm5Gimam+CLZ1Si7Rrizn6eXAWpzq1atM8tV4kFzRiu0zl4vJ4r93SLJ198p88wz70z7YtQ7FgS93hng+ZUmgKBXmij1xYYAgh6bVNCQEggg6CXA4lII1JAAgl5D2DF61ODBR9rEiROtf/9DbcEFe7mXZZqlonPENXrvp8zHqMmpawqCnrqUBx8wgh58itMbIIKe3twnOXIEPcnZo+0hE0DQQ85u/ti0uVyfPgtlpqdnX6UR5+eff9c6d56xyzylfgQQ9Pqx58nVIYCgV4crtcaAAIIegyTQhJIJIOglI+MGCNSEAIJeE8yxe4iOG7v33tvtnXdGudFzibnO/tYeEHPMMWfs2pvGBiHoacx62DEj6GHnN9XRIeipTn9ig0fQE5s6Gh44AQQ98AQTXmIJIOiJTR0NL0AAQadrBEsAQQ82tUEHhqAHnV6CSzABBD3ByaPpQRNA0INObyqDQ9BTmfZ0BI2gpyPPoUWJoIeWUeIJhQCCHkomiSM0Agh6aBklHgSdPhAsAQQ92NQGHRiCHnR6CS7BBBD0BCePpgdNAEEPOr2pDA5BT2Xa0xE0gp6OPIcWJYIeWkaJJxQCCHoomSSO0Agg6KFllHgQdPpAsAQQ9GBTG3RgCHrQ6SW4BBNA0BOcPJoeNAEEPej0pjI4BD2VaU9H0Ah6OvIcWpQIemgZJZ5QCCDooWSSOEIjgKCHllHiQdDpA8ESQNCDTW3QgSHoQaeX4BJMAEFPcPJoetAEEPSg05vK4BD0VKY9HUEj6OnIc2hRIuihZZR4QiGAoIeSSeIIjQCCHlpGiQdBpw8ESwBBDza1QQeGoAedXoJLMAEEPcHJo+lBE0DQg05vKoND0FOZ9nQEjaCnI8+hRYmgh5ZR4gmFAIIeSiaJIzQCCHpoGSUeBJ0+ECwBBD3Y1AYdGIIedHoJLsEEEPQEJ4+mB00AQQ86vakMDkFPZdrTETSCno48hxYlgh5aRoknFAIIeiiZJI7QCCDooWWUeBB0+kCwBBD0YFMbdGAIetDpJbgEE0DQE5w8mh40AQQ96PSmMjgEPZVpT0fQCHo68hxalAh6aBklnlAIIOihZJI4QiOAoIeWUeJB0OkDwRJA0INNbdCBIehBp5fgEkwAQU9w8mh60AQQ9KDTm8rgEPRUpj0dQSPo6chzaFEi6KFllHhCIYCgh5JJ4giNAIIeWkaJB0GnDwRLAEEPNrVBB4agB51egkswAQQ9wcmj6UETQNCDTm8qg0PQU5n2dASNoKcjz6FFiaCHllHiCYUAgh5KJokjNAIIemgZJR4EnT4QLAEEPdjUBh0Ygh50egkuwQQQ9AQnj6YHTQBBDzq9qQwOQU9l2tMRNIKejjyHFiWCHlpGiScUAgh6KJkkjtAIIOihZZR4EHT6QLAEEPRgUxt0YAh60OkluAQTQNATnDyaHjQBBD3o9KYyOAQ9lWlPR9AIejryHFqUCHpoGSWeUAgg6KFkkjhCI4Cgh5ZR4kHQ6QNBExj99gSba762QcdIcGERSIugf/PJRGvZroXN1rJZWAkkmmAJpEXQvxs90axZM2vdoUWwuSSwsAjos9mypVmn7vTZsDKb3mgQ9PTmPhWRf/vpRGvRFglIRbIDCfKXbyZYr+XCf6mkz+a0aWbtOrcOJHOEEToBfTZ79GptrduG/VLprz+m2c9jpljbTnw2Q+/TocQ3+c8p1qKF2dzzIOih5DTtcSDoae8Bgcf/y49TbPwPU9xIAKMBgSc74eH9M3maTfpjirVp3ywV/8nwS1D4bCa846ag+fpsaoSuWTOzeXunQ1o1w2XW5oyip6B7Jz5E/bs5bco0m2+RdHw2E58wAohEAEGPhImLkkxAIwG/jp2S5BBoe0oIzNG5Raqm6P395zT7/rOJKckuYSaZQKs2zVIj58rT9OnmRtF/+4l/O5Pcb9PQ9rR9NtOQU2I0Q9DpBakhoBE7SmUIuDWKZtaxW4vgp3tWhljjtYQ+bbYxAnw+GyMU7eeaMSSWfDaj8YpyFZ9N/u2M0k8au8Z/NtWf9PmkNJ1A2j+bTSdIDXElgKDHNTO0CwIxJqDN91TSsB4zxmmgaRCYiYBennlBn6srEkAXgUBcCPjPpqRS/3ZSIAABCBQigKDTNyAAgZIJIOglI+MGCNSEAIJeE8w8BAIlE0DQS0bGDRBILQEEPbWpJ3AIlE8AQS+fHXdCoJoEEPRq0qVuCJRPAEEvnx13QiBtBBD0tGWceCFQAQIIegUgUgUEqkAAQa8CVKqEQAUIIOgVgEgVEEgJAQQ9JYkmTAhUkgCCXkma1AWByhFA0CvHkpogUEkCCHolaVIXBMImgKCHnV+ig0BVCCDoVcFKpRBoMgEEvckIqQACVSGAoFcFK5VCIEgCCHqQaSUoCFSXAIJeXb7UDoFyCSDo5ZLjPghUlwCCXl2+1A6BkAgg6CFlk1ggUCMCCHqNQPMYCJRIAEEvERiXQ6BGBBD0GoHmMRAIgACCHkASCQECtSaAoNeaOM+DQDQCCHo0TlwFgVoTQNBrTZznQSC5BBD05OaOlkOgbgQQ9Lqh58EQKEoAQaeDQCCeBBD0eOaFVkEgjgQQ9DhmhTZBIOYEEPSYJ4jmpZYAgp7a1BN4zAkg6DFPEM2DQIwIIOgxSgZNgaA10lgAACAASURBVEBSCCDoSckU7UwbAQQ9bRkn3qQQQNCTkinaCYH6E0DQ658DWgCBxBFA0BOXMhqcEgIIekoSTZiJI4CgJy5lNBgCdSOAoNcNPQ+GQHIJIOjJzR0tD5sAgh52fokuuQQQ9OTmjpZDoNYEEPRaE+d5EAiAAIIeQBIJIUgCCHqQaSWoAAgg6AEkkRAgUCMCCHqNQPMYCIREAEEPKZvEEhIBBD2kbBJLSAQQ9JCySSwQqC4BBL26fKkdAkESQNCDTCtBBUAAQQ8giYQQJAEEPci0EhQEqkIAQa8KViqFQNgEEPSw80t0ySWAoCc3d7Q8bAIIetj5JToIVJIAgl5JmtQFgZQQQNBTkmjCTBwBBD1xKaPBKSGAoKck0YQJgQoQQNArAJEqIJA2Agh62jJOvEkhgKAnJVO0M20EEPS0ZZx4IVA+AQS9fHbcCYHUEkDQU5t6Ao85AQQ95gmieaklgKCnNvUEDoGSCSDoJSPjBghAAEGnD0AgngQQ9HjmhVZBAEGnD0AAAlEJIOhRSXEdBCCQIYCg0xkgEE8CCHo880KrIICg0wcgAIGoBBD0qKS4DgIQQNDpAxCIOQEEPeYJonmpJYCgpzb1BA6Bkgkg6CUj4wYIQIARdPoABOJJAEGPZ15oFQQQdPoABCAQlQCCHpUU10GgCgRGjx5t77//vn3yySeu9iWWWMJWXHFF69atm/vz8OHD7cknn7TBgwfbUkstVYUWzFzlCy+8YJdeeqntsMMOttNOO+V9ZjFBnzJlij366KMupn/++cfmnntuW3311W3xxRfP1PXhhx+avrbaaitr0aJFVeISt1lnndXWW2+9qtRPpRCIIwEEPY5ZoU0QMEPQ6QUQgEBUAgh6VFJcB4EKEvj333/tqquusmuvvTZvrZLk1q1b25lnnmkjRoywK664wlZaaaUKtqBwVY888oh7IdC/f3/3la8UEvQ//vjD9tprL/vmm29muu3FF1+0Vq1aue9vt9127pqhQ4fa2muvXfG4xo8fbxtvvLGr94knnrA555yz4s+gQgjEkQCCHses0CYIIOj0AQhAIDoBBD06K66EQMUIDBkyxO655x5X30EHHWTLL7+8+71GnX/99VcbMGCA+3PSBP2CCy6w2267zRZddFE7+OCDrVOnTvbOO+/YmDFj7JBDDsnwu+++++yll16y4447zuaaa66KcfUVTZ8+3c477zw3gj5o0KCK10+FEIgrAQQ9rpmhXWknwAh62nsA8UMgOgEEPTorroRARQhoWnvfvn1dXddcc40tu+yyBevNFXRNGZd06qtY0TTzKFPHNZKvr9lmmy1TXVNG0BWX4rvoootsjTXWKIuXYpxlllmsWbNm9vXXX5tku2fPnnnrihpnvpunTZvmvq3nUCAQCgEEPZRMEkdoBBD00DJKPBCoHgEEvXpsqRkCeQkcf/zxbtr11ltv7aaSFyte0A888EB77bXXbNSoUe7yzTbbzI4++mhr165d5nZNL7/sssvs2WeftV9++cWNTGv6uO7NnuItIde0eY1iax24itaHb7PNNu7rsccem2mK++uvv27/+c9/XJ2XX365/fTFDKnt0au1tW77f4KrUfJXXnmloKCrXXvvvbdNnTrV3X/zzTdbx44d3e/ffvttu/DCC12bZp99dltrrbXsrbfesgkTJtiDDz5o7du3twMOOMAWWGAB9zPF+vHHH7tr1W6N2OulxMsvv2xnnHGGq3Peeed1SwlUtJ5f0+zF9Oyzz3Y8VfQi4cQTT3Sj/RQIJJ0Agp70DNL+UAkg6KFmlrggUHkCCHrlmVIjBIoSkFz/9NNPdt1119nSSy9d9Fov6Lqoc+fO1rt3byeZKptssklGRCXnu+yyi6tXwrrMMss4UVaRVGs6vWReo9FHHXWUPf/88+66VVZZxTSS/MYbb9h8881nN954oz3++OMNBF1rxXfffXf7+++/neRqOn6hNeg33XSTXXLJJa6tp59+uvXp06dBfBJ0vaDwLxoefvhhd62kfM8993TX+s3k/MuDE044wa1ZV/Hs/HXNmze3d9991/3ssMMOsz322MP0MkFSru93797dvYhQKcZytdVWc+2mQCDpBBD0pGeQ9odKAEEPNbPEBYHKE0DQK8+UGiFQkICmZEsGVSTCja2/9lKp0XaJqp/2vf3227s6nn76aTeyLBmWiOr7RxxxhNuMTdJ+6qmn2nPPPWf77befDRw40CTEJ598spPxYcOGOTlW0bWTJk1yf86e4q4p6/369XMbuuk+7bquUkjQf//9dzdC7jeJU6xaT6/d6bOLZFwC7gVda9G16/o+++zjRvxVzjnnHLvrrrvcn/V9FS/o2W3Ry4YjjzzSevXqZbfffru7Ti8TNMqeT9CzWY4bN8423XRTd89TTz1lHTp0oPdCINEEEPREp4/GB0wAQQ84uYQGgQoTQNArDJTqIFCMwM8//+xGvlU0xbqx9c+FNonzgnvrrbfaQgst5EbCVTSCrWPNfNHI+CmnnGIrr7yym5ouWdbo9fnnn2/rrLNO3qZ6QZdoa9M6TRnfddddnQT7UuyYNYm+2qXReImyiurSZni+5Aq639VdU94XW2wxd5lGwiXnyy23nF199dXue17QtcFcy5Yt3fc0A0Dxqbz55pvu12KCnrsjvqbNi5PkXpJPgUCSCSDoSc4ebQ+ZAIIecnaJDQKVJYCgV5YntUGgKAGt//bHpT300EPWpUuXotcXEvSTTjrJnTWuafIaQdeZ5cWKdlW/5ZZb3Kiy5LXY6L0X9Oz6ShF0f5/Wjl9//fVO1FWuvPJKd8a7Sq6g+3iyR8YlzDqGbd1113U7shcSdH3fx1WOoPvR+xtuuMGWXHJJejAEEk0AQU90+mh8wAQQ9ICTS2gQqDABBL3CQKkOAo0R8KPFOpJMYlmsRBF0rcPW2mtNl5fo5ivaiE1ru70gayO5tm3b5r02W9C1ydz777/vNp2TaPup6sVG0HMr1dpujexnn6ueK+jamE4btSkGTcdX0Q73eq42dNtggw2qJuh+0z4EvbGey8+TQABBT0KWaGMaCSDoacw6MUOgPAIIenncuAsCZRPwZ4VLmCW9OlKsUIki6JriLpFWyZ76na9Obfamnc+LbVDnBV3Txi+++GI3xd2v8dYUdB3JVoqga7Re6+ezN2LLFXS1Veeni012Ofzww90Gdb7km+KunzVlBB1BL7src2MMCSDoMUwKTYKAmSHodAMIQCAqAQQ9Kimug0CFCGRvTKbR9GOOOSZzDvlXX31lQ4YMcaPGOhotiqBrJ/j999/fHVMm8dWaao2qq2jTNm1M548Q08ZwGpnW7uo6q7x169buOl3z7bffuvXs+c5B15FuzzzzTGan9EKC/sMPP5jW2S+11FKZerVpndbba5f5QYMGue/nCro2ldPI+SKLLGKrrrqq26xOO9HnHn2GoFeoE1JNsAQQ9GBTS2AJJ4CgJzyBNB8CNSSAoNcQNo+CgCcwcuTIzBFpmtYtGdV0bn9kmJ8OHlXQv/76a7eDu4qOT9tiiy3c5mmSbR2LJhlXmThxortOx7FJgjV1XNdJvlUeeOCBmY5Z0/d1veRYRbvF//3TjN3Oc89B99PZtdlajx49nJj7jeJ01Nv888+fV9D96Lk4zDrrrKZ4VNS+LbfcMrNxHILOZwgCxQkg6PQQCMSTAIIez7zQKgjEkQCCHses0KZUEPC7qY8ePToTr2RdO61vu+22TlS9oOtc7+wzxf2matnrpj///HM766yzMpKvSiXKOirNH4+m7/32229uKrmOOPNFUq+N5jSKrWPZBg8e7NqhkXlf7rzzTjv33HPddPID9jgtr6Br93a11Uu5LtIu7Bo51+i4L/vuu69rpza6067zY8eOdevnNQtADDSSP2bMGPv+++/dUWkjRoxwPLyga9p9ixYtMvXlTnHXTvJrrLGGO07u3nvvddcVYumnuGudvD+DPRUdkCCDJICgB5lWggqAAIIeQBIJAQI1IoCg1wg0j4FAIQKSye+++86NaGtH9qYW1Td+/Hi3Q7zWixcqGjn/8ccfrU2bNu7872Jr4XPrKLYG/Z9//nEj7pL0bt26ufrLLf4INB2zJtGnQAACxQkg6PQQCMSTAIIez7zQKgjEkQCCHses0CYIxJxAKZvERQlFI+XHHnusW5uuzeT0skC7xx988MHu9jvuuMMWXnjhKFVxDQRSTQBBT3X6CT7GBBD0GCeHpkEgZgQQ9JglhOZAIAkEKi3ow4cPN33lKxpF15R4CgQg0DgBBL1xRlwBgXoQQNDrQZ1nQiCZBBD0ZOaNVkOgrgQqLegKRiPmL774on322Wc2depUt8nchhtuyNT2umaahyeNAIKetIzR3rQQQNDTkmnihEDTCSDoTWdIDRBIHYFqCHrqIBIwBKpAAEGvAlSqhEAFCCDoFYBIFRBICQEEPSWJJkwIVJIAgl5JmtQFgcoRQNArx5KaIFBJAgh6JWlSFwTCJoCgh51fooNAVQgg6FXBSqUQaDIBBL3JCKkAAlUhgKBXBSuVQiBIAgh6kGklKAhUlwCCXl2+1A6Bcgkg6OWS4z4IVJcAgl5dvtQOgZAIIOghZZNYIFAjAgh6jUDzGAiUSABBLxEYl0OgRgQQ9BqB5jEQCIAAgh5AEgkBArUmgKDXmjjPg0A0Agh6NE5cBYFaE0DQa02c50EguQQQ9OTmjpZDoG4EEPS6oefBEChKAEGng0AgngQQ9HjmhVZBII4EEPQ4ZoU2QSDmBBD0mCeI5qWWAIKe2tQTeMwJIOgxTxDNg0CMCCDoMUoGTYFAUgiUI+ijRo0qGF6xn/Xp02em+/J9LynsaCcEqkkAQa8mXeqGQPkEEPTy2XEnBNJGAEFPW8aJFwIVIFBI0L1o69ds6S4m4OU2x0t69q+Ie7k0uS8UAgh6KJkkjtAIIOihZZR4IFA9Agh69dhSMwSCJeAF/eFnbrYPP3mngYznBp0tzbkCHUWo88l97guA7GeqzuyvYJNAYBDIQwBBp1tAIJ4EEPR45oVWQSCOBBD0OGaFNkEg5gS8oJ9+/uFO0AuNYkcR8KaGmi3r+cS9f//+GWFv6rO4HwJxJ4Cgxz1DtC+tBBD0tGaeuCFQOgEEvXRm3AGB1BMoZw16LaENHz7cPc7/6p8tWdcXBQKhEkDQQ80scSWdAIKe9AzSfgjUjgCCXjvWPAkCwRCIu6Bng/aj6l7W/fR3RD2Y7kggWQQQdLoDBOJJAEGPZ15oFQTiSABBj2NWaBMEYk4gSYKejVKS7kWd0fSYdzKaVxYBBL0sbNwEgaoTQNCrjpgHQCAYAgh6MKkkEAjUjkBSBd0Tyhb1q666KrOGvnYEeRIEqkMAQa8OV2qFQFMJIOhNJcj9EEgPAQQ9PbkmUghUjEDSBV0gGE2vWHegohgRQNBjlAyaAoEsAgg63QECEIhKAEGPSorrIACBDIEQBD1X0hlJp4OHQABBDyGLxBAiAQQ9xKwSEwSqQwBBrw5XaoVA0ARCEXQlSZvIDRgwwE1zl6RTIJBkAgh6krNH20MmgKCHnF1ig0BlCSDoleVJbRBIBYGQBF0Jk6BL1BlFT0X3DTpIBD3o9BJcggkg6AlOHk2HQI0JIOg1Bs7jIBACgdAEnVH0EHolMYgAgk4/gEA8CSDo8cwLrYJAHAkg6HHMCm2CQMwJhCbofhRdvzLNPeadj+YVJYCg00EgEE8CCHo880KrIBBHAgh6HLNCmyAQcwKhCrpG0t98882Y06d5EChMAEGnd0AgngQQ9HjmhVZBII4EEPQ4ZoU2QSDmBBD0mCeI5qWWAIKe2tQTeMwJIOgxTxDNg0CMCCDoMUoGTYFAUgiEKOgrrLCCw88IelJ6Ie3MRwBBp19AIJ4EEPR45oVWQSCOBBD0OGaFNkEg5gRCE/Thw4ebvvr37+++KBBIKgEEPamZo92hE0DQQ88w8UGgcgQQ9MqxpCYIpIZAaILO6Hlqum7wgSLowaeYABNKAEFPaOJoNgTqQABBrwN0HgmBpBMISdD9GeiMnie9V9J+EUDQ6QcQiCcBBD2eeaFVEIgjAQQ9jlmhTRCIOYFQBJ2p7THvaDSvZAIIesnIuAECNSGAoNcEMw+BQBAEEPQg0kgQEKgtgVIEXUeXTZ8+3fw08tq2NP/T1CbJuX5l5DwOGaENlSKAoFeKJPVAoLIEEPTK8qQ2CIRMAEEPObvEBoEqEWhM0LMFWE3473//awsttFCVWlNatX5Ku+5Czktjx9XxJ4Cgxz9HtDCdBBD0dOadqCFQDgEEvRxq3AOBlBPIFXQJuYoflW7Xrp39+eefGUpvvPGGzTLLLHWjlvvCoE+fPk7O9SsFAiERQNBDyiaxhEQAQQ8pm8QCgeoSQNCry5faIRAkAQn6h5+8Yw8/c7MT8U8//dRypdwH3qNHDxs5cmRdOCDmdcHOQ+tIAEGvI3weDYEiBBB0ugcEIBCVAIIelRTXQQACjoCmiH/z1fc2bvyPkYgssMACdtddd0W6tikXZY/iqx7/Z/2eEfOmkOXeJBFA0JOULdqaJgIIepqyTawQaBoBBL1p/LgbAqkj4Hc+jxp479697aijjnKXV2JKebZ46/f+z9nfR8qjZofrQiOAoIeWUeIJhQCCHkomiQMC1SeAoFefMU+AQHAENMV92PVn23MvP9rk2KJKe66AZz/Y16F15ZV6EdDkwKgAAnUggKDXATqPhEAEAgh6BEhcAgEIOAIIOh0BAhAomYDfJE5r0G++7dqi92+zzTbWuXPnzDW5ol1MvP1N2RLvf5/7a8lBcAMEAiSAoAeYVEIKggCCHkQaCQICNSGAoNcEMw+BQFgEsndxl6Br2nuhUu8d3MMiTzQQKE4AQaeHQCCeBBD0eOaFVkEgjgQQ9DhmhTZBIOYE8p2Dnm9tej13cI85QpoHgaoQQNCrgpVKIdBkAgh6kxFSAQRSQwBBT02qCRQClSOQT9BVe66k12oH98pFRk0QSDYBBD3Z+aP14RJA0MPNLZFBoNIEEPRKE6U+CKSAQCFBV+haUz506FD74YcfbK211rJTTz01BUQIEQLxIICgxyMPtAICuQQQdPoEBCAQlQCCHpUU10EAAhkCxQTdXzR69Gj32169ekEOAhCoEQEEvUageQwESiSAoJcIjMshkGICCHqKk0/oECiXQBRBL7du7oMABMongKCXz447IVBNAgh6NelSNwTCIoCgh5VPooFATQgg6DXBzEMgUDIBBL1kZNwAgZoQQNBrgpmHQCAIAgh6EGkkCAjUlgCCXlvePA0CUQkg6FFJcR0EaksAQa8tb54GgSQTQNCTnD3aDoE6EUDQ6wSex0KgEQIIOl0EAvEkgKDHMy+0CgJxJICgxzErtAkCMSeAoMc8QTQvtQQQ9NSmnsBjTgBBj3mCaB4EYkQAQY9RMmgKBJJCAEFPSqZoZ9oIIOhpyzjxJoUAgp6UTNFOCNSfAIJe/xzQAggkjgCCnriU0eCUEEDQU5JowkwcAQQ9cSmjwRCoGwEEvW7oeTAEkksAQU9u7mh52AQQ9LDzS3TJJYCgJzd3tBwCtSaAoNeaOM+DQAAEEPQAkkgIQRJA0INMK0EFQABBDyCJhACBGhFA0GsEmsdAICQCCHpI2SSWkAgg6CFlk1hCIoCgh5RNYoFAdQkg6NXlS+0QCJIAgh5kWgkqAAIIegBJJIQgCSDoQaaVoCBQFQIIelWwUikEwiaAoIedX6JLLgEEPbm5o+VhE0DQw84v0UGgkgQQ9ErSpC4IpIQAgp6SRBNm4ggg6IlLGQ1OCQEEPSWJJkwIVIAAgl4BiFQBgbQRQNDTlnHiTQoBBD0pmaKdaSOAoKct48QLgfIJIOjls+NOCKSWAIKe2tQTeMwJIOgxTxDNSy0BBD21qSdwCJRMAEEvGRk3QAACCDp9AALxJICgxzMvtAoCCDp9AAIQiEoAQY9KiusgAIEMAQSdzgCBeBJA0OOZF1oFAQSdPgABCEQlgKBHJcV1EIAAgk4fgEDMCSDoMU8QzUstAQQ9takncAiUTABBLxkZN0AAAoyg0wcgEE8CCHo880KrIICg0wcgAIGoBBD0qKS4DgIQYASdPgCBmBNA0GOeIJqXWgIIempTT+AQKJkAgl4yMm6AAAQYQacPQCCeBBD0eOaFVkEAQacPQAACUQkg6FFJcR0EIMAIOn0AAjEngKDHPEE0L7UEEPTUpp7AIVAyAQS9ZGTcAAEIMIJOH4BAPAkg6PHMC62CAIJOH4AABKISQNCjkuI6CECAEXT6AARiTgBBj3mCaF5qCSDoqU09gUOgZAIIesnIuAECEGAEnT4AgXgSQNDjmRdaBQEEnT4AAQhEJYCgRyXFdRCAACPo9AEIxJwAgh7zBNG81BJA0FObegKHQMkEEPSSkXEDBCDACDp9AALxJICgxzMvtAoCCDp9AAIQiEoAQY9KiusgAAFG0OkDEIg5AQQ95gmieaklgKCnNvUEDoGSCSDoJSPjBghAgBF0+gAE4kkAQY9nXmgVBBB0+gAEIBCVAIIelRTXQQACjKDTByAQcwIIeswTRPNSSwBBT23qCRwCJRNA0EtGxg0QgAAj6PQBCMSTAIIez7zQKggg6PQBCEAgKgEEPSoproMABIIZQZ80aZK999579tlnn9lXX31lc845py200EK23nrr2WyzzVbzTF933XW20047Wdu2bWv+7Go+8Ouvv7ZRo0ZFesQGG2xg7du3L3rtIYccYmPHjrVbbrnFWrRoEanetF2EoKct48SbFAIIelIyRTshUH8CCHr9c0ALIJA4AkkeQf/oo4/sxBNPtG+++WYm7vPNN5/dcccdZcnfuHHj7I033rDNNtuspHx+9913ts0229gpp5xiW265ZUn3xv3ie+65x4YMGRKpmXfffbf17Nmz6LVi+9NPP9lLL71kLVu2jFRv2i5C0NOWceJNCgEEPSmZop0QqD8BBL3+OaAFEEgcgaQK+uuvv24HHnig473MMss4MZYU/vDDD25UtlOnTjZ06NCS8zFt2jRbeeWVba655rLHH3+8pPuHDRtm11xzjS233HJ29dVXl3Rv3C/W7IQPP/ww00y9jBg+fLh1797dBgwY0KD5a665prVr1w5Bb2JSEfQmAuR2CFSJAIJeJbBUC4EACSDoASaVkCBQbQJJFPSpU6fazjvv7EbOt99+ezv66KMbTGf/999/7a+//ioqiVOmTMk7uv7PP//YKqusUrKgq03rr7++/f333y5lI0eOtB49ehRNX6E2ZN+keps1a2azzjprwbqi1tO8efO8dSjmUpcDfPDBB9avX7+iLyP0skNF7c8t5YygR4lTzyn23Gp/nipZP4JeSZrUBYHKEUDQK8eSmiAQOgEEPfQMEx8EqkAgiYJ+//3322mnneYk+r777rPWrVtHIvPHH3/YZZddZs8++6z98ssv7v61117bjcRr7fr48eNtjz32cFOvVTp37ux+3WWXXWzPPfcs+oxnnnnGvShQnap74MCBtt9++810z/fff+/a8O6777rn6Hq9ENC1mpavIsnXSLzaqZcQs88+u5sloLattNJK7prGYvHX3Hjjjaa2qR7VodkB++67r5Pm559/3vF77rnnXDtWW20122677WzppZdulGcxQdfshiuvvNLef/99V8/iiy/ueKh+X3IFXS8Jjj/+eFO9irNv376R49RI/osvvmhnnnmmnX322fbaa6+5e9dYYw23BEKzKZJYEPQkZo02p4EAgp6GLBMjBCpDAEGvDEdqgUCqCCRR0M8991y78847C0pwvgRKaCXakmIvvK+88oq7VHKqNdYarT7vvPPsiSeecN/faKON3K+S+I033rhov9CmZ6pPm8Tts88+Tu4ffPDBBiPfb7/9tu2///6unkUXXdQWXHBBGz16tPvSdHw959dff7XddtvNtVN1rLDCCubXxO+666525JFHOjlvLBZNMZewjhgxwsUnsX/rrbfc5nVi9+2339q2227r2uLF+eWXX7bzzz/f1llnnUY/A4UE/ZFHHrHBgwe7+zfZZBP366OPPup+1UsVv64/V9B9TtWWCy+80L1AKDVOPUPMevfu7YTdx3bJJZc0Gk8cL0DQ45gV2gQBMwSdXgABCEQlgKBHJcV1EIBAhkASBV1rnrWjuEZLtWN4dtHotaa4q2h3cL+b+Omnn+5GizUl/ogjjrBWrVo5ATz11FPdCLJGsDXKW84Ud785nEaKb7rpJjvooIPcKK7WoWs9uoqmZ0uqNZJ9+OGH2+677/5/ORg92nr16pWRWM0QUFxqm99ATUKtkWC1O2osa621lhuNV5vUNrXhiy++cC8H7r33XjvrrLNM11xwwQXu2XpRoGn5UWYk5BN0LSvYdNNN3TMlxV789WKgf//+7kWBYlMM2YL+0EMPubbohYVecPgd8KPG6V9EbL311nbCCSc4uddLDbVF5amnnrIOHTok7lOPoCcuZTQ4JQQQ9JQkmjAhUAECCHoFIFIFBNJGIImCrmnYEt2rrrrK+vTpk0nZb7/91kDYNZ378ssvz0i3LpSszj333Jl7tFu7dl3PvbaUTeI0nfvaa6+1Y445xh2x5uVXwuhHk72kSsRvvfXWvGvKJdBeajXqnN1O32D/AiFKLP5FhkayjzvuuAZHv/n2aDaBRq81zb6Ukk/QX331VTv44IPdDAVNz89eN7/33nu7Ke/XX3+9LbXUUhlBl8gfeuih7h7tuj/PPPO4ZpQSpxf0K664IrMEQHUccMABbjf+22+/PfMCpJQY630tgl7vDPB8COQngKDTMyAAgagEEPSopLgOAhDIEEiioGsEWlOYs6dMKyCN3Gp69JgxY9wItpdu7UC+ww47FM26RpW1+3upI+jZm8N5qc4evX3hhRfciLSmmkskNYo+aNCgvG358ssvbccdd3Rr0SX5+UopsWi0XLMCNKtAAqyp91rf7Tdt03T+e/pHCAAAIABJREFU//73v+4xWp+u9doaxY5S8gm6ps5L9jU6rtxkFz8aLgZaLuBH0LOv0ZKArl27um+VEmchQddLiSeffNJuuOEGW3LJJaOEFatrEPRYpYPGQCBDAEGnM0AAAlEJIOhRSXEdBCCQaEHXlOzbbrvNyeyxxx47UzbfeecdN2XdC7rOS5eYalT8pJNOypv9jh072hJLLFGyoD/99NNu5Fxrn7XJmS+SXb0w8EKq9qrd2vlc69XzFR1jps3o/MuCfNeUEovu1zR+jUxrIzUv4joOzu/orhFm/Vmb1qn4tfCNfUSKCXq+GLV2XpvS+Zcq2YKuM+MfeOCBBtPtS4mzkKArH9pPAEFvLJv8HAIQKIUAgl4KLa6FQLoJIOjpzj/RQ6AsAkkcQdfouUbRVfIdZ5Yr6FobrQ3YVF566aXMuu58wLKnVms38mLHm+l+v968EHz/ksC3edVVV7VLL7007+WS6fXWW8/9TNdrrXZuKSWW7Hu1e7w2qNPmc5qSv+KKK2Z+rDX72jVeEq+RdE3Xb6zkE3TNFtD6fq2f1/4Avviz5fVnrTHXLvFe0PVyQOv0JfUff/yxnXPOOe64ulLiRNAbyxY/hwAEKkkAQa8kTeqCQNgEEPSw80t0EKgKgSQKukD49dXdu3d3O69r525f7r77bieIXo71fcmpdlHXCLXWJvsR5N9//91tnuaP4po+fbptvvnmTmQ18rzwwgsX5J69E7pGabUpnS+TJ082rbtW0SZo+pnWpGtU/aKLLnJHgPmizdnmn39+d41fqy1h1XruWWaZxV2mI+AkuhqpjxrLZ5995uLyG6Rp9oCm4UuitSO8eCy//PKufj+9Xr9/8803G+1r+QRdU+n9zvfaDM6vJ89em67na7p97i7un3zyidu9XrMclD9t7hc1TgS90XRxAQQgUEECCHoFYVIVBAIngKAHnmDCg0A1CCRV0CWUGr32Z5Zr87WFFlrIrV3WSKyKNlzzR2x9/fXXbgd3FQniFlts4YRXx4JJUiXNvmgkWV+SRW2wpg3ptMu47ssu2pRMI8IbbrihDRkyZKb0+LXy2gRNLwb85nG6UCPl8847r6tb55RrozpN9f7000+dPKtoMzWNLk+YMMHdq5/ruqixiI82ZpMM6yWEpFlFv/78889uTbpGzJdddlnTEWt6USBG2VP1C/W5QsesaSReo+Jip2PctEZfG/OpaId1bfCnkivo+p5ypWu1X4DWj0eNE0Gvxt8M1AkBCBQigKDTNyAAgagEEPSopLgOAhDIEEiqoCsATQnXpnA6Rksj075oVF2j4BI9iaIvn3/+uRNtv95a35fY9+3b17baaqvMddrkTaPMXvT1A22mphcAvmhauM4L13MLrdvWyLmEWhuvaQM1Fcm4Rvz9iwV9T5KsGQE6q1xFI98S/ux2KiYdzaZ19ypRYpEoa6q8j0PT2iXNGuWWYGtTPE35VwzipKnlGrXOZlboo+LXiGsXfe2m74tmINx111122WWXZXKi+vSywp+Brmu9oOvFgJ95oHYoZ2Ljj4aLEqcX9Nxd/f0adF9X0j72bBKXtIzR3rQQQNDTkmnihEDTCSDoTWdIDRBIHYEkC3p2siR1WresadX+7PBCyZw0aZKbMt6lSxebbbbZ8l4m0VSd2vFcgtnYWvRSO45eLmhkXEepZU+Nz65H7dTLAm1glzt676+LEoum8SsOf7549jP0omHs2LFu93Q/nb7UWApdr1F6cYsi/I09M0qcjdWRtJ8j6EnLGO1NCwEEPS2ZJk4INJ0Agt50htQAgdQRCEXQU5c4Ag6eAIIefIoJMKEEEPSEJo5mQ6AOBBD0OkDnkRBIOgEEPekZpP2hEkDQQ80scSWdAIKe9AzSfgjUjgCCXjvWPAkCwRBA0INJJYEERgBBDyyhhBMMAQQ9mFQSCASqTgBBrzpiHgCB8Agg6OHllIjCIICgh5FHogiPAIIeXk6JCALVIoCgV4ss9UIgYAIIesDJJbREE0DQE50+Gh8wAQQ94OQSGgQqTABBrzBQqoNAGggg6GnIMjEmkQCCnsSs0eY0EEDQ05BlYoRAZQgg6JXhSC0QSBUBBD1V6SbYBBFA0BOULJqaKgIIeqrSTbAQaBIBBL1J+LgZAukkgKCnM+9EHX8CCHr8c0QL00kAQU9n3okaAuUQQNDLocY9EEg5AQQ95R2A8KtCYIUVVnD19u/fv8GvpTwMQS+FFtdCoHYEEPTaseZJEEg6AQQ96Rmk/RCoAwEEvQ7QeWTwBLyg+0DLEXUEPfhuQoAJJYCgJzRxNBsCdSCAoNcBOo+EQNIJIOhJzyDtjyOBXEEvR9QR9DhmljZBwAxBpxdAAAJRCSDoUUlxHQQgkCGAoNMZIFB5AoUEvRRRR9ArnxdqhEAlCCDolaBIHRBIBwEEPR15JkoIVJRAMUEfPnx4RZ9FZRBIC4Gon51iU98R9LT0FuJMGgEEPWkZo70QqB8BBL1+7HkyBBJLoJigNzYKmNigaTgEYkbgqquusj59+jRoFYIesyTRHAj8fwIIOl0BAhCISgBBj0qK6yAAgQyBYoI+atQoSEEAAmUQGDBgQKS7NILuR9Fzb0DQIyHkIgjUnACCXnPkPBACiSWAoCc2dTQcAvUjwBr0+rHnyeESKDT7pF27dvbnn386KS8k5p4Kgh5u/yCyZBNA0JOdP1oPgVoSQNBrSZtnQSAQAgh6IIkkjFgRyBX0UsQcQY9VKmkMBGYigKDTKSAAgagEEPSopLgOAhDIEEDQ6QwQqDwBL+jliDmCXvl8UCMEKkkAQa8kTeqCQNgEEPSw80t0EKgKgUoKutas5250VZVGUykEYk7AC3qUqeyFQmGKe8yTTPNSSwBBT23qCRwCJRNA0EtGxg0QgEAlBF1HSulr8803t1NPPRWoEEg9AX0eGltj3hgkBL0xQvwcAvUhgKDXhztPhUASCSDoScwabYZAnQk0RdC9mPsQEPQ6J5PHB0UAQQ8qnQQTEAEEPaBkEgoEqkwAQa8yYKqHQIgEyhH0XDFH0EPsGcRUbwIIer0zwPMhkJ8Agk7PgAAEohJA0KOS4joIQCBDoBRBLyTmCDodCgKVJ4CgV54pNUKgEgQQ9EpQpA4IpIMAgp6OPBMlBCpKIIqgNybmCHpFU0JlEHAEEHQ6AgTiSQBBj2deaBUE4kgAQY9jVmgTBGJOoJigRxXzmIdI8yAQewL5dntH0GOfNhqYUgIIekoTT9gQKIMAgl4GNG6BQNoJVFLQO3bsaD179kw7UuKHQMkEdDxh7q7vCHrJGLkBAjUhgKDXBDMPgUAQBBD0INJIEBCoLQGmuNeWN0+DQFQCCHpUUlwHgdoSQNBry5unQSDJBBD0JGePtkOgTgSiCLpvWmNT3jlmrU5J5LFBEkDQg0wrQQVAAEEPIImEAIEaEUDQawSax0AgJAKlCHpjoo6gh9QziKXeBBD0emeA50MgPwEEnZ4BAQhEJYCgRyXFdRCAQIZAOYJeSNQRdDoWBCpHAEGvHEtqgkAlCSDolaRJXRAImwCCHnZ+iQ4CVSHQFEH3DXriiSdsxIgRtsEGG9h2221XlXZSKQTSRgBBT1vGiTcpBBD0pGSKdkKg/gQQ9PrngBZAIHEEKiHoiQuaBkMgAQQQ9AQkiSamkgCCnsq0EzQEyiKAoJeFjZsgkG4CCHq680/08SWAoMc3N7Qs3QQQ9HTnn+ghUAoBBL0UWlwLAQg4Agg6HQEC8SSAoMczL7QKAgg6fQACEIhKAEGPSorrIACBDAEEnc4AgXgSQNDjmRdaBQEEnT4AAQhEJYCgRyXFdRCAAIJOH4BAzAkg6DFPEM1LLQEEPbWpJ3AIlEwAQS8ZGTdAAAKMoNMHIBBPAgh6PPNCqyCAoNMHIACBqAQQ9KikuA4CEGAEnT4AgZgTQNBjniCal1oCCHpqU0/gECiZAIJeMjJugAAEGEGnD0AgngQQ9HjmhVZBAEGnD0AAAlEJIOhRSXEdBCDACDp9AAIxJ4CgxzxBNC+1BBD01KaewCFQMgEEvWRk3AABCDCCTh+AQDwJIOjxzAutggCCTh+AAASiEkDQo5LiOghAgBF0+gAEYk4AQY95gmheagkg6KlNPYFDoGQCCHrJyLgBAhBgBJ0+AIF4EkDQ45kXWgUBBJ0+AAEIRCWAoEclxXUQgAAj6PQBCMScAIIe8wTRvNQSQNBTm3oCh0DJBBD0kpFxAwQgwAg6fQAC8SSAoMczL7QKAgg6fQACEIhKAEGPSorrIAABRtDpAxCIOQEEPeYJonmpJYCgpzb1BA6Bkgkg6CUj4wYIQIARdPoABOJJAEGPZ15oFQQQdPoABCAQlQCCHpUU10EAAoyg0wcgEHMCCHrME0TzUksAQU9t6gkcAiUTQNBLRsYNEIAAI+j0AQjEkwCCHs+80CoIIOj0AQhAICoBBD0qKa6DAAQYQacPQCDmBBD0mCeI5qWWAIKe2tQTOARKJoCgl4yMGyAAAUbQ6QMQiCcBBD2eeaFVEEDQ6QMQgEBUAgh6VFJcBwEIMIJOH4BAzAkg6DFPEM1LLQEEPbWpJ3AIlEwAQS8ZGTdAAAKMoKevD9x55502efJkmzp1qs0666w233zzWc+ePW2BBRawWWaZJZZAdtppJ2vXrp1de+21NW3f9OnTbeedd7ZOnTrZ5ZdfXvTZlW5jvQV93LhxdtBBB9miiy5qp512Ws24H3LIITZ27Fi75ZZbrEWLFjV7brEHff3113bDDTfY6NGjrVu3bnbEEUfYPPPMY08++aT7DK233nru9pEjR9ptt91mAwYMsPXXXz8WbacRlSeAoFeeKTVCIFQCCHqomSUuCFSRAIJeRbgxrXqFFVbI27LVVlvNTjzxROvSpUvsWq42zz777Pb888/XtG3//vuvrbTSSjbXXHPZ448/XvTZTW2j5E9SrDyoVFrQFcubb75p7du3d9LdWPnhhx9syy23tGWWWaamL0Y222wz++mnn+yll16yli1bNtbMqv/8xx9/tC222MI9p3v37u5F0fXXX29//PGHbbzxxu77TzzxhM0555x244032qWXXmonnXSSbbPNNlVvGw+oDwEEvT7ceSoEkkgAQU9i1mgzBOpMAEGvcwLq8Hgv6GeddZYb/dPo4D333OOkSBKs32vEOE6lqfJbbiy1EvR33nnH9ttvPyfEp5xySlUE/brrrrMrrrjCTj31VNt8880bRYKgz0B0wQUXuFHxfffd142M6zOjotkV5513nvvzoEGD3PcQ9Ea7VRAXIOhBpJEgIFATAgh6TTDzEAiERQBBDyufUaLxgv7aa69Zs2bN3C1///23nXDCCfbiiy/ahhtuaEOGDJmpqmnTprnv+XuiPKvUa6ZMmZJ3WnNjgi5Z0pT9xqZET5o0yV3jJatQ+1TXbLPN5iSsUiPoxZ791ltvWf/+/SMJeiFGPha9VFC7c/N0zTXX2LBhw8oWdOVfSyCKsdNzFWfr1q0jpT5fLNUcQW+MXb5GS8pHjRpl999/v5vWXqxEEfR//vnHMWysD0YCyEV1IYCg1wU7D4VAIgkg6IlMG42GQH0JIOj15V+Pp+cTdLXj22+/tW233dY16aGHHspMdX/99dftyiuvtPfff9/9bPHFF7eBAwdmpmLvvffe9v3337s12r169cqEdPbZZ9saa6zhvnx59dVX7eSTT3bTf3fZZRfTvRKgX375xe666y5Xj6aTa+3z1ltvnbmvkKB/9913boRTU7f1kkHr6bfbbjvbddddMwKkuDR6rCnTeo7qV5xbbbWVm7KcXd577z03Rfntt992122yySZu9LTcKe5Rnq2XIlrjrbapdO7c2f162MDBtuC8S1nHbi1sttkn2WWXXWbPPvtsJoa1117bDjzwQDe1WkVT5O+44w433Vos1lprLdtggw1MwnvVVVfZ1Vdf7a7TLIm2bdu632u2RCGZ9iPoil1T4l9++WV3T58+fezggw+2pZZaKoNOP7v11ltdH9GzF1xwQdthhx0cP02pzy7KlfYS+OCDDzI50xrufv36uenjuYIuoT3++OPd9XvssYf17dvXTj/9dHvllVfcjADtn+CL6lVM6mOrrLKKDR8+3K0LX2eddVz+ff/Szw4//HCX10Llk08+cWvNNbMkOy+qTzGcccYZ7vvzzjuv46tSTNBfeOEFd93HH3/srhVTjcqvu+66BdvAD+JJAEGPZ15oFQTiSABBj2NWaBMEYk4AQY95gqrQvEKCrkdJfiR6Eh+NHD/yyCM2ePBg1wrJlsqjjz7qfpVUSqYk7xIjjQDrS+W3335zcrjyyis32FxN4vTwww/bJZdc4jal05RuX1ZddVX75ptvnESpaFOuJZdc0v0+n6B/+eWXTuokhHpO165dTRIk0ZV861kqI0aMsDPPPNOJ7/zzz29vvPGG+75EVfG1adPG/Vnr24888kj3e6271vWSOtUfZf17vjZGebZGz8VQLwX0zGWXXda1YdN1d7Gucy9oLdpNtgMO3SOzBEFtk5yqSDAlpK1atXKb2YmfxE/SqLbrRYhiuvfee92ma/q5XrD06NHD3a/p9IXWeXtB13Vq1/LLL28ffvihq0NFL0b0EkBFa67VLyTmkux3333XfV8vZy666KJMjiXxF154ofuz8t2hQwdT/JLgBx980OUwV9DPPfdc08aGWpuvezUzQDEpX7fffnuDl0L6uZ4xdOhQ0wsM5V05UNH9yqOe51/UiJ3am698+umnrh6NnqvohYTuV9/V9yTbilMvee677z53TSFB10se8VJRfjSS/8UXX7g/Kxa9UKIkhwCCnpxc0VII1JsAgl7vDPB8CCSQAIKewKQ1scnFBP2YY46xp59+2k131wZYm266qRNUSYnfvMxPx5YcatqvRokl9hq9lgiqZAvJ3Xff7UY5J06caGuuuaaTHD1DG6JJ0PVnyc5iiy3mpmZrBPumm26y3XbbzY1gquSTX42AavR5r732ciO6KuPHj3dtkYBJSL0MabdtvWDQtOK//vrLjdprJNO/ZFCMklndl71G+6uvvnIjweUKukSssWer3cWmuN9411B79PEHbPvtt3c8JOPaoEztfO6559za9Y022si0i7yKZiloer5iEXM/S6DcKe7Kq0bmtTRA0+dVj0amlX+JqUbg1Qck2RpdV9FLFj8Dwk8N114HikFFdfgXERoh1/16YaOSLeiayaG9EiT+mgXhR/5LFXRtfuhnh0yYMMFx1AuR7JdKhT5WmpGhlxKaveCfr2v9LIXGBF33qg7/uejdu7f7vWamaAaEij4PuTMNmvgx5/YqEkDQqwiXqiEQGAEEPbCEEg4EakEAQa8F5Xg9o5igH3XUUU76NIVYU6clvpJTyUn2mllNTdd0Zu1mrZFFLzEa6ZSMS4b8SLhGByVUEtXjjjvOjfQeffTRVmgTMonT/vvv746u0uipSq6geznSz/RMCZwvWmctATz00ENtzz33zHxfwvr555/b77//bo899pg988wzTtT1LI3qa8Rdo64aNfWlUpvEFXu2nlVI0Cf8Ptl2H7iBa45eWsw999yZtmkmgEbANXtAm5X50WyxFuNKr0HPZqLlCRoBlqhrZN0XibZEXC8mLr74YtcHlA/lT7MsNFPA94dCnwov6HoppByq/+kFQfb671IF3c8I8c/0vDWbQFyLlaYKumaCaHmCXqLopVJ20edLHPXyYemll47XXxS0piABBJ3OAQEIRCWAoEclxXUQgECGAIKevs5QTNA1CuuFQSPMEmQJU+452BJ4jZ5qCrFG2v3UXo0IStgPOOAAJ2IazVV9mo6sqfKSf4mapmkXEnRJtARTI/aSNJVcQdc0fI2US95UZ/b57V62JVaaCaARWglaPhHzsqhRe8Vw7LHH2o477lgxQY/y7GKC/vlnX9pRg//vJUO+3qpZApotoGPgFK+KpqQrFr1w8KXcEfR8x6xpE0FND/cj05oNob6ilx65xU8399PgdZ0/NzxfPF7Qs3/mp7/77zVV0H/99Ve3GWKUmRFNFXQfd7G/abQMIHuvhvT9rZSsiBH0ZOWL1kKgngQQ9HrS59kQSCgBBD2hiWtCswsJevaaY0muRs0lU1rnfcghhzR4ohckP0Vcm7Vpirg2idMIujYq03R3HR+mayTukmSJo2RLo/GFBF1CrxcFxQRd64Ml115Osxvnp9drirVeCvg1zH7jMo04a1MziaMXdLVRU7E1Ip29Lr6pI+hRnl1M0D/84CM74Yz+bjq5RC9f6dixoy2xxBLuRxq91gsQ5U8lO3eVFHQfl3hJqPWyRHlTznRmuNqj0XKtS/eC7vtM9nKJxgRduXjggQfc7AC/hlv3JEnQfVt33333BrMNsmPXLITs6fNN+Hhzaw0IIOg1gMwjIBAIAQQ9kEQSBgRqSQBBryXteDyrkKD7UVGtI9aacG24prW62uxNO7L7ouO2JLkq2VNz/bR3fd9vDqYjtzS1V1PSVfbZZ5/MutumCLrWYGsUNt/0ey9Eeqmg0XA/9VtT7OeYYw7XDr8hnBd0P/0692VEUwQ9exp+sWdnC3r2FHtJwC/j/rB9Dp1xZrk2fSu0oVtuz9LMBb8uX7GKkxd0LS/QDIXGSrFz0LXLvo7pU52azq4XMBpp107xfilE7oZtfpaC8iLOhYofQdfU+OWWW85dq9kc55xzjq2//vruNr8UI3eKvT+zPHeTuFpPcddMBr/uXKcbaClI7pKLxvjz8/gSQNDjmxtaBoG4EUDQ45YR2gOBBBBA0BOQpAo3MVfQteO6REdruVX85mpaNy25Vsk+A9rLn6RPI6T6VUXHpEmiVLTmVkdZqUiOJPIq2btulyLokmwJr9YiL7zwwq4ujUhK3LSJmG+nn7qsn2vtr3Yr1wsGtfGpp56y5s2bZ9qnn2sDOK2Lz96wS7t+axd0FS/ZUY5Zy22j38m+sWfrOX5TtewXDl4CzrrocHv/g3fcenotHfAxaC295LhTp06urToiTmuqtUGcXizoaDG1X1P79X0/9T/3hUuh7uXzo1kR2hndi7dmRWhjOr9JnNhJmLNfLkyePNkJqXY79/nxjHPXlGtjwI8++si1USV3F3cdd6YNA/U8bTiozdT8CH72C58xY8a4o/sUc66gZ4/a66XRYYcd5trm9yAo9hErZYq7NrXTrIJsxjqSTccSKu6bb77ZnSTgi5ZqZB9NWOGPOtVViQCCXiWwVAuBAAkg6AEmlZAgUG0CCHq1Ccevfi/o/gxof/62BEKjq9lTvP2oqz87fOrUqZm13NmjhIry559/djula9dviZQXuh9//NFNe87e5V3XlyLoGnXV0WJqozZzkwB5wVJdmhKvTe00fV6yq/XFmhGg4o+Ok0BrKrE2CNOoskr2DuX+Gfq+pserPk3VV31R1irna2PUZ+uZOhNbx3Zp2r7a+ctPf1m/nY+wv6f9aPsO3MW1V+0QS81i0BFxuk7rlyWdmrWgHcU1yqzp5trhXvHpxYk2jNPu5ZJ2FbHQcgNN+/e7v+f21OwlD5JnHYsmFrnH7Gn9uXb7V9ELj27durlrJJ+epT+qT+eZi6mKxFfTurUpoDYc9C9GcgVd10qw9aLBv1DREgW9APCxSNq1E7qfqZEr6OKmJRgq2rPAn4euZRiNTS0vRdD9Z0DP0UwUjZ7rhYnfs8F/XxvC6YWK+rD2PvBLFOL3twUtykcAQadfQAACUQkg6FFJcR0EIJAhgKCnrzN4QVfkEu9FFlnEjeJp9FHSll00uinB04i4lx/do92oJVK5RZIqCfTHafmfa5Rax6hlT232AqhpzJoa7Ytfg5697lhr3CV5Ejntuq6RTxUJjjaq82dz63t6hkYs/UizzkvXCK+/RhKrzc0khJLF888/37VZR5Lp9/5Ma9W17rrruo3Pooyg52tj1GfrWRqZlnR6zq1bz27XXfKwdezWwn7961s3Eu3PF9f1ypleAOjMd71k8csSdNyZil5SaNRd3H3RLAm/M76+pxcqZ5xxRt4Pgc+P8qz9CHy7xE8vcrI3NZP0Kj/+GuVUyyMk5JJhcdYLD22aJyHVl7/Wt1XT5DVzwQu6JFxHu6noWsm5YvMzAjQrQ7MzVCTgvj/q5VCuoCt//kWUrlffUtv87INifwv4jRP9UgF/rX8pkvviSaPompGiuPWSRMfiKW7NTFGbfdxqs/qdZkXopQYlOQQQ9OTkipZCoN4EEPR6Z4DnQyCBBBD0BCatTk3W6KBGxf3Ie75mSII0IunFyl+jNeMSZp2Z3ZSiejR9268l93VpdPjPP/+0Ll26NDgOzv9cLxrGjh1rbdq0sXbt2mWaoNFffc9P09cPNDqt89Q7dOgQec13dky5bSz12RJjjQj/Mba5TZwwzQn6XF1niKqkUG1TnBqZzVcksZJh/4Ii9xrVobi1uVx23LnXSSr10kGb/hWKIfseXS/GOgrOr5VXrjSDQu3NPfbNv0hQO3J/FrWP+GcW4qGXN3oRI5HX6QLqn127di37eVHbpbgl6HqZkX08oTgqbvHJ7cNR6+a6+hNA0OufA1oAgaQQQNCTkinaCYEYEUDQY5QMmgKBLAJeArIFHUClEcgW9JVWWqm0m7kaAgUIIOh0DQhAICoBBD0qKa6DAAQyBBB0OgME4kkAQW96XhD0pjOkhpkJIOj0CghAICoBBD0qKa6DAAQQdPoABGJOAEFveoK0U7+OCzz22GOtd+/eTa+QGiBgZgg63QACEIhKAEGPSorrIAABBJ0+AIGYE0DQY54gmpdaAgh6alNP4BAomQCCXjIyboAABJjiTh+AQDwJIOjxzAutggCCTh+AAASiEkDQo5LiOghAgBF0+gAEYk4AQY95gmheagkg6KlNPYFDoGQCCHrJyLgBAhCoxQi6jp3SsVEUCEAgOgEEPTorroRALQkg6LWkzbMgkGwCCHqy80frIVAXAtUU9FGjRtnw4cPt0EMPtSWWWKKawIJRAAAgAElEQVQu8fFQCCSVAIKe1MzR7tAJIOihZ5j4IFA5Agh65VhSEwRSQ6Aagu7FXL+qXH755bbyyiunhimBQqASBBD0SlCkDghUngCCXnmm1AiBUAkg6KFmlrggUEUClRT0XDH3zUbQq5hAqg6WAIIebGoJLOEEEPSEJ5DmQ6CGBBD0GsLmURAIhUAlBL2QmCPoofQS4qgHAQS9HtR5JgQaJ4CgN86IKyAAgRkEEHR6AgQgUDKBpgh6Y2KOoJecDm6AQIYAgk5ngEA8CSDo8cwLrYJAHAkg6HHMCm2CQMwJlCPoUcXch77ttttap06dYk6C5kEgXgR++XGKa1Drts3cFwUCEIgHgS7tF7fFF1nWfS579Godj0bRCghAIJYEEPRYpoVGQSDeBEoVdMn5gAED4h0UrYMABCAAAQhUicDgQRch6FViS7UQCI0Agh5aRokHAjUgUKqg+ybp+DR9RSlHHXWU9e7dO8qlXAMBCPx/AhpB//vPadaxWwtG0OkVEIgRAY2gT5wwjRH0GOWEpkAgrgQQ9LhmhnZBIMYEyhX0UkSdXdxj3AFoWmwJsAY9tqmhYSknwBr0lHcAwodACQQQ9BJgcSkEIDCDQFMFPYqoI+j0NgiUTgBBL50Zd0CgFgQQ9FpQ5hkQCIMAgh5GHokCAjUlUClBLybqCHpNU8rDAiGAoAeSSMIIjgCCHlxKCQgCVSOAoFcNLRVDIFwClRb0fKKOoIfbf4isegQQ9OqxpWYINIUAgt4UetwLgXQRQNDTlW+ihUBFCFRL0H3jfvvtN2vdurW1bNmyIu2lEgikhQCCnpZME2fSCCDoScsY7YVA/Qgg6PVjz5MhkFgC1Rb0xIKh4RCoMwEEvc4J4PEQKEAAQadrQAACUQkg6FFJcR0EIJAhgKDTGSAQTwIIejzzQqsggKDTByAAgagEEPSopLgOAhBA0OkDEIg5AQQ95gmieaklgKCnNvUEDoGSCSDoJSPjBghAgBF0+gAE4kkAQY9nXmgVBBB0+gAEIBCVAIIelRTXQQACjKDTByAQcwIIeswTRPNSSwBBT23qCRwCJRNA0EtGxg0QgAAj6PQBCMSTAIIez7zQKggg6PQBCEAgKgEEPSoproMABBhBpw9AIOYEEPSYJ4jmpZYAgp7a1BM4BEomgKCXjIwbIAABRtDpAxCIJwEEPZ55oVUQQNDpAxCAQFQCCHpUUlwHAQgwgk4fgEDMCSDoMU8QzUstAQQ9takncAiUTABBLxkZN0AAAoyg0wcgEE8CCHo880KrIICg0wcgAIGoBBD0qKS4DgIQYASdPgCBmBNA0GOeIJqXWgIIempTT+AQKJkAgl4yMm6AAAQYQacPQCCeBBD0eOaFVkEAQacPQAACUQkg6FFJcR0EIMAIOn0AAjEngKDHPEE0L7UEEPTUpp7AIVAyAQS9ZGTcAAEIMIJOH4BAPAkg6PHMC62CAIJOH4AABKISQNCjkuI6CECAEXT6AARiTgBBj3mCaF5qCSDoqU09gUOgZAIIesnIuAECEGAEnT4AgXgSQNDjmRdaBQEEnT4AAQhEJYCgRyXFdRCAACPo9AEIxJwAgh7zBNG81BJA0FObegKHQMkEEPSSkXEDBCDACDp9AALxJICgxzMvtAoCCDp9AAIQiEoAQY9KiusgAAFG0OkDEIg5AQQ95gmieaklgKCnNvUEDoGSCSDoJSPjBghAgBF0+gAE4kkAQY9nXmgVBBB0+gAEIBCVAIIelRTXQaBMAp9++qn973//s0UXXdQWX3zxBrX8+++/NnLkSPe97bbbrswnFL/tww8/NH1ttdVW1qJFiyY/Q3U9/uCrNnnyJGvTYRabvW1L69q1q62yyio211xzNbn+fBWMGzfODjroIMfwtNNOq8ozyqn05ZdfthEjRtjYsWNt4YUXtpNOOsmmTp1q9913ny299NKuvSpnnnmmvfvuu3bhhRda9+7dy3kU90AgEgEEPRImLoJAzQkg6DVHzgMhkFgCCHpiU0fDk0LgxhtvtEsvvdQOPPBA22effRo0WzK36qqruu+9+eabVQlJ4v/NN9/Y0KFDbe21127yM3w8+So6++yzbYMNNmjyM3Ir+OGHH2zLLbe0ZZZZxq699tqK119Ohc8++6wNGjTI3dqrVy/38mXw4MH29NNP2zHHHGMLLrig3Xnnne7nhxxyiL3yyit29913W8+ePct5HPdAIBIBBD0SJi6CQM0JIOg1R84DIZBYAgh6YlNHw5NCoN6CrtHcl156yY477riKjHD7eDZYeyvrt89u9vuf4+yJJ55wo8Yqzz33nLVp06ai6YmjoO+00072xRdf2CWXXGKrrbZaJt7x48ebXlSstdZa7qUCgl7RrkBljRBA0OkiEIgnAQQ9nnmhVRCIIwEEPY5ZoU1BEWiqoE+bNs3xaNasWVW4aBR/ttlms1lmmSVS/T6enbbZ1w45vL+1btvM/vnnH9tss83sl19+seuvv96WWmqpBnWVEoOm/etLbfKl2oI+ZcqUkqb/63pJeefOne2hhx5qlF2UEfRS2xApWVyUOgIIeupSTsAJIYCgJyRRNBMCMSCAoMcgCTQhbAKlCvrw4cPtxRdfdOuWNRL72muvOUBrrLGGnXjiidapUyeTsO67774FwbVt29aGDRtme++9t1sTrXLzzTdbx44dXd1nnXWWrbDCCvbtt9/a+++/b7PPPrstscQSdthhh2XWTReqPJ+g//XXX5np85ri3b59e5OU33vvvW5k/eOPP3bVaf31zjvvbBp9zhZwCbnWcutarXFX0ZTxbbbZxn1pjXfuFPeffvrJtffvv/+2008/3a351nR+1eunlvsYDj30UPvss8/sjjvucG074IAD7Ouvv7ZNNtnETTtXHWrb5ptv7pg1b968IFvFdM0115ieryJJ19T7IUOGmHLn9xTQmv+BAwe6awoJuhjdeuutds8999j333/v8rDsssu66zVtngKBUgkg6KUS43oI1IYAgl4bzjwFAiEQQNBDyCIxxJpAqYIuMZesevnr3bu3k2oVjdpqSvWPP/7o1rTnFq01V5GQbrHFFnb88cfbqFGj3PcefvhhJ5OPPPKIWyutIgnUlzax8/ded911TnYLFR/PxuttZ3vu3de+/+FLV+czzzxj++23X0ZKNSKsNmhUXSPqv//+e+YZEus99tjDPWL69Ol21FFH2fPPP+8EVZvNSVzfeOMNm2+++UzPkwxnC/qkSZOsf//+Tua1eZykWkUvHVSH6souffv2tdGjR9uTTz5pc8wxhxvt94K94YYb2sSJEzOM9SLkoosuKhi/Rswl9XqxodKnTx/3UuOII46wm266yR588EE39X2HHXZwywpU8gm64tYadi0JUFlxxRXtgw8+cC8LVBS3XppQIFAKAQS9FFpcC4HaEUDQa8eaJ0Eg6QQQ9KRnkPbHnkC5gr711lvbCSec4Ka2axfzTTfd1MX61FNPWYcOHWaK229Ottxyy9lVV11ls846q7tmzz33dCKbK+iS1FNPPdVNz9YItsT/lltuaXQjtkKbxGkUWSPzXbp0ybTt9ddfdyPTfufyxx9/3MWkFwVqj4p+Pfnkk52Ma9RfP1P5448/TCKuP2dPcdfotV4wPProo060fQy6p1RB18j1/PPP756nFxS77767E+QrrrjCVlpppYJ96+eff3aj7xJzMcsur776qh188MGNCrqPWzMFLrjgApt77rndUgHxvfLKK91LDS0XoECgFAIIeim0uBYCtSOAoNeONU+CQNIJIOhJzyDtjz2BcgU9VxI1LVujyrfffvtM0581BXzHHXd0cnn//ffbPPPMk+FSSNA1Aq0vX3SvNjZT8aPZ+eD6eFZYdnXbZLMNbeq0ie4FwAMPPOBGry+//PIGa9Al/xq9lmRrVF2CrqIjynTs24ABA9wo//nnn2/rrLNO3nxmC/qaa65pl112mXuGXkRkHx1XqqBr87yWLVtmnqkd4iXH2m0/3wwFf2ElBF0j/1q+oB3fs+P+888/3TIAFcl+9lKA2Hd2Glh3Agh63VNAAyCQlwCCTseAAASiEkDQo5LiOgiUSaBSgq7p0pqifcMNN9iSSy6ZaY0EWPIuyT3llFMyO4f7C6IKuq73O5NrDbeOCSsm6NmbxOk6vVDQ9HhNRVc7VDQNXKPqEvTc4qeb66WAXg5odL3QOepe0LPr0Oi12GZvntdUQfdHp2200Uau3YVKJQTdx12sW2nZQLt27crsedyWRgIIehqzTsxJIICgJyFLtBEC8SCAoMcjD7QiYAJe0Pfff383WpxdsjdX8+eg+zXouSPoWk+u48xyBd3Xv+6669p55503E8lyBD3fKL2vON8mcfqZ1l1L8DWKLrEcM2aMbbvttu42rcfWKHGPHj3cmnFtiCZB11R9rb1WkRxrc7t8JVvQNRW+W7dubvT5yCOPtF133TVzS6UEXWe5a4O+agm61p/7uE877bS8cWvkPPv4toA/IoRWQQIIegVhUhUEKkgAQa8gTKqCQOAEEPTAE0x49SegKeeSMImldgDPLn5NdvbGZqUIuqaWS8B1v3YPzzcCHVXQS53injuC/sILL7iN0lQk6JJ87WquDdwk5b7kbtimdd/a5b3Y5nRe0BWfdj2X4Gr9uUr2lH4Juoo21WvVqlXmmX5mQO4mcblT3LW+3e9+n93m3F5U7gh69swEn5d8x9LVv9fSgqQSQNCTmjnaHToBBD30DBMfBCpHAEGvHEtqgkBeAtqZu1+/fu5nEvWNN97YTcvWLuIaFX/33Xcte/Q7qqBLqCW7Go2+8MILTWuz85VCgp4tzhJerevW6Lg2mbv66qsLZjPfCPrkyZPdjuSvvPJKZuM0bXx222232dFHH51ZUy3R1vpqtd1vWichlhhrN3Ttnt66dWv3bK1X1zFwCy20UINN4rROXEWye+6552Z2ttf3dMyaNntTLNoNXkXr6TXSrpIr6Nlr7bPbpjZ52c8HolRB98sT9KtmE6iIsdbQi/fQoUPd8W8q2ijuu+++s549e/KJgkDJBBD0kpFxAwRqQgBBrwlmHgKBIAgg6EGkkSDiTkDHiPnjtDQKrF3N/TFdanv2lPKogi7Z1+ixyqqrrtoAgV4ASJC1k3shQdcNWi+u3cPfeust96JApbERXS/onTvNY0suubhNmvy3vfPOO5njwfz9XowVr5/qruPjdOyaitqvUXAdcbb99tu7FxbasV3Ty3XMmkbhVbT5XO4xa/q+rtFLBs0i0HpxrRu/9NJL3UsGFe2CP378+MzxafperqBrnb2m3v/222+Z2Q1aGy52xUqpgq7j17RLvope1ujYNb3U0AsWf7yd2q/4xW3ChAnuqL02bdrEvWvTvpgRQNBjlhCaA4H/TwBBpytAAAJRCSDoUUlxHQSaQEDCpSncErXsoqPJNLqbfd61F3SNrmpU2Re/Bl11NG/e3MldsaI12hL1fffd18m3jiWTjPtz0DUt3p+5rXp0HvqJJ57YYAO6fPXffPPNdvHFFzf4kabvq60S5uwd5DXFXV++SJp1PJleWHTt2tWNgqtIkCXF/ug1fU/t02izzlbXGep6mZA7uv/JJ5/Ybrvt5q597LHH3HFx4qelAyp6OaD7Jbv5zkGXEPvz0FWHXiRoanv2zvD5GOglg4RaR6Tl5lRHy2kHeE2r1w7tKpoNcMYZZ7j4lHM/C0BxafaDzk73RW3afPPNXd6yp+k3oftxa4oIIOgpSjahJooAgp6odP0/9s4D3Iri/MODKIIKFiyo2DUW7GA3KrZYsMceaxSMNfbeuxF7A1vsxoYaW0xiL6ggsSv2ij0xYgHb//kN/zk593DOvbPn7u6Z3XnneXjg3js78837zQHendlZgoVASwkg6C3FT+exEdCqr4RQYqyDziSFeRcn6HrFml4nple0SWTd1nKfeF4fM95W67tQD9Njuq7tXqKxSsAl5O7d7NpSL8nt3bt3m2vF5+OPP7YrxzpATu9ob6ZoVV59inG9opV75UHPoKuuVrMlxs325xuj3uuu97u7d72769y4k+bBt1/qxUMAQY8n14y0WAQQ9GLli2gh0EoCCHor6dM3BFpAoFrQq9+DniSUJIKepN286lYLevV70PPqn34gkBUBBD0rsrQLgc4RQNA7x4+rIRATAQQ9pmwzVggYU9niLjlH0B83CDofizIRQNDLlE3GUiYCCHqZsslYIJAtAQQ9W760DoHgCIwcOdKeIK4Tz/WsczOl6CvoejZcz39feOGFRu8bp0CgLAQQ9LJkknGUjQCCXraMMh4IZEcAQc+OLS1DoLQEii7opU0MA4ueAIIe/RQAQKAEEPRAE0NYEAiQAIIeYFIICQKhE0DQQ88Q8cVKAEGPNfOMO3QCCHroGSI+CIRDAEEPJxdEAoHCEEDQC5MqAo2MAIIeWcIZbmEIIOiFSRWBQqDlBBD0lqeAACBQPAIIevFyRsRxEEDQ48gzoyweAQS9eDkjYgi0igCC3iry9AuBAhNA0AucPEIvNQEEvdTpZXAFJoCgFzh5hA6BnAkg6DkDpzsIlIEAgl6GLDKGMhJA0MuYVcZUBgIIehmyyBggkA8BBD0fzvQCgVIRQNBLlU4GUyICCHqJkslQSkUAQS9VOhkMBDIlgKBnipfGIVBOAgh6OfPKqIpPAEEvfg4ZQTkJIOjlzCujgkAWBBD0LKjSJgRKTiBPQR89enSFZvWf9c3arxth79+//2Q/0vfqfb/kqWN4JSeAoJc8wQyvsAQQ9MKmjsAhkDsBBD135HQIgeITSFPQawXcfe0r37U0Jd1Jr62WdcS9+PMz5hEg6DFnn7GHTABBDzk7xAaBsAgg6GHlg2ggUAgCaQn6kCFDGsp09ep2I2lOsgJebyVe32sk84MHD7Yr7En6KETyCLLUBBD0UqeXwRWYAIJe4OQROgRyJoCg5wyc7iBQBgJpCbrkePjw4W1EuFVCXC3riqm6SNZV3O9lyCFjKCcBBL2ceWVUxSeAoBc/h4wAAnkRQNDzIk0/ECgRgbQEPWQkTtirZR1RDzljxCYCCDrzAAJhEkDQw8wLUUEgRAIIeohZISYIBE4gBkGvTkGtrLP9PfAJGnF4CHrEyWfoQRNA0INOD8FBICgCCHpQ6SAYCBSDQGyC7rLiVtPd7xJ1tr0XY87GEiWCHkumGWfRCCDoRcsY8UKgdQQQ9Naxp2cIFJZArIJeLepIemGnb6kDR9BLnV4GV2ACCHqBk0foEMiZAIKeM3C6g0AZCMQu6C6H7hR6VtLLMKvLMQYEvRx5ZBTlI4Cgly+njAgCWRFA0LMiS7sQKDEBBP1/ydVKun4h6SWe8AUaGoJeoGQRalQEEPSo0s1gIdApAgh6p/BxMQTiJICgt827W0kfNmwY702P8yMRzKgR9GBSQSAQaEMAQWdCQAACvgQQdF9S1IMABCoEEPS2k0GnvEvS9Q53SToFAq0igKC3ijz9QqB9Agg6MwQCEPAlgKD7kqIeBCCAoLczB9wq+qhRo5gpEGgZAQS9ZejpGALtEkDQmSAQgIAvAQTdlxT1IAABBB1B51MQOAEEPfAEEV60BBD0aFPPwCGQmACCnhgZF0AAAmxxn3wOuMPieA6dz0crCSDoraRP3xBoTABBZ3ZAAAK+BBB0X1LUgwAEWEFvZw4g6HxAQiCAoIeQBWKAwOQEEHRmBQQg4EsAQfclRT0IQABBb2cO8Aw6H5AQCCDoIWSBGCCAoDMHIACB5gkg6M2z40oIREuALe5tU8+70KP9KAQ3cAQ9uJQQEAQsAVbQmQgQgIAvAQTdlxT1IAABVtAbzIEBAwbYn3CCOx+SVhNA0FudAfqHQH0CCDozAwIQ8CWAoPuSoh4EIICg15kDbmv74MGDjX5RINBKAgh6K+nTNwQaE0DQmR0QgIAvAQTdlxT1IAABBL1qDowePdpoa7t+R875cIRCAEEPJRPEAYG2BBB0ZgQEIOBLAEH3JUU9CEAgd0F3ErzZZpuZ9dZbL5gMuGfOFRByHkxaCKTqOdfes3czM/XpBhMIQCAQAgh6IIkgDAgUgACCXoAkESIEQiOQ5SFx1SvTbtwnnHCC2WCDDVqOoTq2/v37WznX7xQIhEKAFfRQMkEcEGhLAEFnRkAAAr4EEHRfUtSDAAQqBNIW9Grx7dmzp/n666/b0L7nnnvMrLPO2rIM1N40YNW8Zamg4w4IIOhMEQiESQBBDzMvRAWBEAkg6CFmhZggEDiBzgq6hFdl6NChZuzYsaaelDsEU045pRk5cmTuROqt5LNqnnsa6DAhAQQ9ITCqQyAnAgh6TqDpBgIlIICglyCJDAECeRNoVtAlvU5825Py6vHMN9985uabb850iO6GgZ4tV3Ff689IeaboaTxlAgh6ykBpDgIpEUDQUwJJMxCIgACCHkGSGSIE0ibQrKC7OKoPWesoNon8tttu26Za7XPfjZ4DrxZt14C7SVD9dW0MTsqdoHcUIz+HQCgEEPRQMkEcEGhLAEFnRkAAAr4EEHRfUtSDAAQqBDor6GooiaRnid7JvXuHOYe+ZUmbtrMmgKBnTZj2IdAcAQS9OW5cBYEYCSDoMWadMUOgkwTSEHQXwpAhQ9psKa8NTSe4zzbbbJVvN1oVr72unmhXfw8R7+Qk4PIgCSDoQaaFoCBgEHQmAQQg4EsAQfclRT0IQKBCIE1BV6Ptraa3+gR30g6BIhFA0IuULWKNiQCCHlO2GSsEOkcAQe8cP66GQJQE0hb0RpLeqhPco0wqgy4FAQS9FGlkECUkgKCXMKkMCQIZEUDQMwJLsxAoM4EsBN3xql5Nz+ME9zLnibHFRwBBjy/njLgYBBD0YuSJKCEQAgEEPYQsEAMECkYgS0EXiptuusmcccYZ9hVnw4YNKxgdwoVA6wgg6K1jT88QaI8Ags78gAAEfAkg6L6kqAcBCFQIZC3o6uiXX34x48ePN3rNGgUCEPAjgKD7caIWBPImgKDnTZz+IFBcAgh6cXNH5BBoGYE8BL1lg6NjCBSYAIJe4OQReqkJIOilTi+Dg0CqBBD0VHHSGATiIICgx5FnRlk8Agh68XJGxHEQQNDjyDOjhEAaBBD0NCjSBgQiI4CgR5ZwhlsYAgh6YVJFoJERQNAjSzjDhUAnCCDonYDHpRCIlQCCHmvmGXfoBBD00DNEfLESQNBjzTzjhkByAgh6cmZcAYHoCSDo0U8BAARKAEEPNDGEFT0BBD36KQAACHgTQNC9UVERAhBwBBB05gIEwiSAoIeZF6KCAILOHIAABHwJIOi+pKgHAQhUCCDoTAYIhEkAQQ8zL0QFAQSdOQABCPgSQNB9SVEPAhBA0JkDEAicAIIeeIIIL1oCCHq0qWfgEEhMAEFPjIwLIAABVtCZAxAIkwCCHmZeiAoCCDpzAAIQ8CWAoPuSoh4EIMAKOnMAAoETQNADTxDhRUsAQY829QwcAokJIOiJkXEBBCDACjpzAAJhEkDQw8wLUUEAQWcOQAACvgQQdF9S1IMABFhBZw5AIHACCHrgCSK8aAkg6NGmnoFDIDEBBD0xMi6AAARYQWcOQCBMAgh6mHkhKggg6MwBCEDAlwCC7kuKehCAACvozAEIBE4AQQ88QYQXLQEEPdrUM3AIJCaAoCdGxgUQgAAr6MwBCIRJAEEPMy9EBQEEnTkAAQj4EkDQfUlRDwIQYAWdOQCBwAkg6IEniPCiJYCgR5t6Bg6BxAQQ9MTIuAACEGAFnTkAgTAJIOhh5oWoIICgMwcgAAFfAgi6LynqQQACrKAzByAQOAEEPfAEEV60BBD0aFPPwCGQmACCnhgZF0AAAqygMwcgECYBBD3MvBAVBBB05gAEIOBLAEH3JUU9CECAFXTmAAQCJ4CgB54gwouWAIIebeoZOAQSE0DQEyPjAghAgBV05gAEwiSAoIeZF6KCAILOHIAABHwJIOi+pKgHAQiwgs4cgEDgBBD0wBNEeNESQNCjTT0Dh0BiAgh6YmRcAAEIsILOHIBAmAQQ9DDzQlQQQNCZAxCAgC8BBN2XFPUgAAFW0JkDEAicAIIeeIIIL1oCCHq0qWfgEEhMAEFPjIwLIAABVtCZAxAIkwCCHmZeiAoCCDpzAAIQ8CWAoPuSoh4EIMAKOnMAAoETQNADTxDhRUsAQY829QwcAokJIOiJkXEBBCDACjpzAAJhEkDQw8wLUUEAQWcOQAACvgQQdF9S1IMABFhBZw5AIHACCHrgCSK8aAkg6NGmnoFDIDEBBD0xMi6AAARYQWcOQCBMAgh6mHkhKggg6MwBCEDAlwCC7kuKehCAACvozAEIBE4AQQ88QYQXLQEEPdrUM3AIJCaAoCdGxgUQSJ/A+++/bx555BHz3XffmQkTJpippprKzDTTTGbgwIGmd+/e6XfYyRazXEH/7LPPzF577WUWWWQRc8IJJ3QyUv/L99lnH/PJJ5+Ya6+91nTr1s3/QmpCICACCHpAySAUCFQRQNCZDhCAgC8BBN2XFPUgkCGBv/71r+b444+v28OQIUPMTjvtlKo0/vzzz2bUqFGmV69eVoSTliwFfdy4cWajjTYySy21lLn88suThtZ0/Q022MB8+umn5vHHHzdTTz110+1wIQRaSQBBbyV9+oZAYwIIOrMDAhDwJYCg+5KiHgQyJOAEfYUVVjBbb721GT9+vHnuuefMrbfeans966yzzGqrrZZaBFdccYW56KKL7E2BDTfcMHG7CHpiZFwAgVwIIOi5YKYTCCQmgKAnRsYFEIiWAIIebeoZeEgEnKBLzg8++OBKaEcddZS57777zMYbb2yOOeaYyUKeOHFiuyvrWin/5ZdfTNeuXdtce9lll5lLLrmkQ0H/6aef7HW119cT9B9//NFMMcUU9ldt6SjO6vq1K+iKoUuXLnXbrb7u+++/tyzq9e8TT5Yr6D/88IOZcsop7TgoEMiSAIKeJV3ahkDzBBD05tlxJQRiI4Cgxw3PN6UAACAASURBVJZxxhskgUaC/uijj5r999/fLLbYYubqq6+2sf/3v/81F1xwgXnooYfMl19+aZ9VX3311c2ee+5pZpxxRlvn9ddfNzfeeKP5+9//br799lu7+r722msbSeiwYcPMpZdeautNM800ZrrpprN/1mp9jx497J+ffvppc/HFF5sXXnjBfq3+99hjD7PyyitPan/MeHPRFaeYV9/4lzn11FNsbHqG3rUzzzzzeMVZLxlO0DUubb9/4oknbLX+/fubvffe2yyxxBKVy/TsvnYDaFu6Y7HZZpvZGxpzzjlnm+a1pV9b5l966SXLZO655zZrrrmmfXygZ8+elk31FnfdcDj88MNt/R122MFsu+225sQTTzRPPvmk3X0w77zzVtpXu+Knmygrrriieeyxx8wpp5xiBgwYYBSjOIp1v379zH777dfUYwVBTlyCCo4Agh5cSggIApYAgs5EgAAEfAkg6L6kqAeBDAk0EnRtbb/++uutmO68885WerfZZhsrkhI+PactYVSR0EoSu3fvbrfJv/fee1YE55prLiuwm266qTnggAPMbbfdZg9C088l3n379rXXH3vssfbZ63vvvdccffTR9nvrrbee/V2r+Co6tE0iK0E/9ZyDzfMvPWPj0I2BBRdc0GgV+8ILL/SKU1JcrzhB189mnXVWs+yyy5qXX37ZxqtSvd1/xIgR5uSTT7b1dFPgmWeesXUUk8Yx7bTT2q+vu+46c/bZZ9s/r7TSSmb66ac3zz77rOV41113mT59+kwm6GeccYa56aab7E0JXatdBOKnGxE33HCDWWihhSrh6+fqY+jQofZmSTVD1dOvF198sTIG3VRYcsklM5xRNB0rAQQ91swz7tAJIOihZ4j4IBAOAQQ9nFwQScQEnKBLmAcNGmRXeCWQbvX49ttvtyKtFdw77rjDbLHFFnZlXTIuadez5A8//LDZbbfdzLrrrmu22morS3PkyJF2a7VWl3VCvFtVbrTF/ZtvvjHrr7++7f+8886rrJgrlsGDB9ubAHfeead5/5UfK4KulWgJv6TYFZ84tSLfnqCrXe0C0LZ1bdVXzMOHD7cxiIFW+7V1/h//+Ie9kaCt7Ypfh+q9+uqrlZsJ7777ruWlojaWXnpp+2etkGt1e7755rNfV6+g33333XYFfP7557cr9G6XQVJBV5vKjba2awxiKlZ5H4AX8UcruqEj6NGlnAEXhACCXpBEESYEAiCAoAeQBEKAQKNT3CXsWtleYIEFrFBq+7SKtpTPPPPMFXBaOVY9HTL3pz/9qXKgnIRSq+m+z6BL6LVaL9nWFvrq57l32WUXu1X7yiuvNN1/nK8i6Pvuu6/ZcccdK7H4xqmV9vYEvVZiJbjaPfDWW29ZUdfKuiu6AfHmm2+ar776yvztb38zDz74oBX13Xff3W5r13b97bbbzq6ANypO0CXRGpMY6AbBHHPMUbkkqaDrpoZ+ueIeN9DXWomvvqnBpwACaRBA0NOgSBsQSJ8Agp4+U1qEQFkJIOhlzSzjKhQBJ+h6Jlqr39oirVXiZZZZxj4zLlF+5513zG9/+9t2x6Ut7Vqhvf/++80RRxxh62r796GHHmq3XrvSaAVdW7q1tVuyWvsOcrcqri3l88+6SkXQtbV74YUXrrSdJM4kgq66p556qt3Gf+SRRxo9a66bAXoe3D2fX92eE3J30J7GJb4dCXr1z932d/e9zgq62lF+dZNBrLVCT4FAmgQQ9DRp0hYE0iOAoKfHkpYgUHYCCHrZM8z4CkGg9hl0rbTqmXGtDOvgMR169sorr9jDyrTFW9JZr/Tu3dseRKaird1aPb7nnnvs1zoMbZ999rF/7kjQq+vWyqnEfaHZV6sI+i233NLmwLSkcdaOo733oLvnwrVbQO9Kd19LdHXzQjsI9FiAngV3gu6kunrLfj12bgVdP1PbyokO19Mz71kIeu1z7IWYqAQZPAEEPfgUEWCkBBD0SBPPsCHQBAEEvQloXAKBtAnUOyROW6All9oGrWfQdYCbWwXXoW/62qe4beuq67ZVO0HXK920Bd4Vd2q8Tnw/7bTTKt/Xq84kvyp6JrvHT/M3FHQ9B95MnK6z9gR9r732Mk899ZS9wfCrX/2qspVfz6HPMMMMtgnHzQn6+eefb6666ip7c0I3HhoVJ+h6/Zx2LqiunmU//fTTzVprrWUvO/DAA+2z/rVb7N1hfrWHxLHF3WeGUidNAgh6mjRpCwLpEUDQ02NJSxAoOwEEvewZZnyFINDoFHcnhDoE7aSTTrLPVI8ZM8Y+8/2HP/zBTDXVVHZ8evZaB6bNMsss9uvnn3/entCuA+L07PYaa6xhD37TVnB9X6vqWpmvFXGt2OuQORUdBueev65+Nl0nun/42s8NBV3X+sZZLzlO0HXyubbPu+fg//Wvf9lD8NwhcRMmTLDx6wbGP//5zwoLvYLuz3/+s11RP+yww+wr4/QKutpnyvV+eK32i4dK7WvWXnvtNbP99tvb/rRLoFevXpUV+1133dW2qfLRRx/ZZ+PFt1bQ9dy+biqoqD/FppsFugHgXnVXiAlKkIUhgKAXJlUEGhkBBD2yhDNcCHSCAILeCXhcCoG0CDQS9I8//tie6q4iuZt99tkrJ5JLOPUzrW7rmXUdmnbOOefYV52tuuqq9sR2rfzqeWe9l1unot988832wLjx48dbaVfRNm49p65t4no+2q2uS0z1nPcPP/xQecZbz7VvvvnmbV6zVrvFXW1Wn5zeKM5G7KpfsyZ51mvRPvzww8le9abr9W5yvfNdY9D4ddq8ex979Snwep+53gmvovh1KrtudOjQO72qTa+iqxV01dW2eN3UcLKv7fM6QM5xk7Q/8MADVs5V6r1mTdvldaCfYnvuuedsPR20V/0+97TmEe1AAEFnDkAgTAIIeph5ISoIhEgAQQ8xK8QUHYFGgi4Qeg+6tlBLorWqLfnVK8Cc7KmOVpslq3pWXavgOlhO29X1nm+VddZZx666L7roohW27kA49w23Sq+VXom8bgg48ZSs//GPf7QSq6L3oJ9+7qHmXy8+Zd+rLhmuLTpVvb04GyXZCbr60knyLgbdcNCWfN18cOXtt9+2287dO9JVRwfISbol5Geeeaa9EaHD5LRyrV+uPcdFK+HVgi4J16vdVFRXci6ObveBtvjrYDoV3XxwTHSjolbQ9fPq/pQnxbf44otHN8cZcD4EEPR8ONMLBJISQNCTEqM+BOIlgKDHm3tGXnACWin/4osvzGyzzWa3stcrEssZZ5yxsv27to7a+Oyzz4wOl6v3yq/PP//cbjGXoFcXCbpK34V6mB7TdW2XpE+c1Q1Ipj/44AN78JxuFnzyySdm2mmnNT179qzbT6M6Gpeuqx2Xu2mhMde+fs53SihGxdWIvXY0HH300fYVa9oOr7piqHe3UyCQJQEEPUu6tA2B5gkg6M2z40oIxEYAQY8t44wXAikQSCLoKXRXuCaqBb36PeiFGwgBF44Agl64lBFwJAQQ9EgSzTAhkAIBBD0FiDQBgdgIIOjtZxxBj+0TEc54EfRwckEkEKgmgKAzHyAAAV8CCLovKepBAAIVAgh6+5NBp97rlHYdSLfhhhsycyCQGwEEPTfUdASBRAQQ9ES4qAyBqAkg6FGnn8FDoDkCCHpz3LgKAlkTQNCzJkz7EGiOAILeHDeugkCMBBD0GLPOmCHQSQIIeicBcjkEMiKAoGcElmYh0EkCCHonAXI5BCIigKBHlGyGCoG0CCDoaZGkHQikSwBBT5cnrUEgLQIIelokaQcC5SeAoJc/x4wQAqkTQNBTR0qDEEiFAIKeCkYagUDqBBD01JHSIARKSwBBL21qGRgEsiOAoGfHlpYh0BkCCHpn6HEtBLIjgKBnx5aWIVA2Agh62TLKeCCQAwEEPQfIdAGBJggg6E1A4xII5EAAQc8BMl1AoCQEEPSSJJJhQCBPAgh6nrTpCwL+BBB0f1bUhECeBBD0PGnTFwSKTQBBL3b+iB4CLSGAoLcEO51CoEMCCHqHiKgAgZYQQNBbgp1OIVBIAgh6IdNG0BBoLYG8BX306NFtBlz7tX5Y+73+/ftPBqn6e/V+3lqq9A6BzhNA0DvPkBYgkAUBBD0LqrQJgXISQNDLmVdGBYFMCWQh6E6w9Xu1bNeT8TQHJ1F3sl795zT7oC0I5EUAQc+LNP1AIBkBBD0ZL2pDIGYCCHrM2WfsEGiSQFqCPnz4cKNfjUq9Fe9GK9/1vt/eynvtjYDqGAYPHmy/dL83iYnLIJA7AQQ9d+R0CAEvAgi6FyYqQQACxhgEnWkAAQgkJpCmoDuJrl29znMLerWs14q7iwtZTzxNuKAFBBD0FkCnSwh4EEDQPSBRBQIQsAQQdCYCBCCQmEBagp644xwvcCv71Sv8knREPcck0FViAgh6YmRcAIFcCCDouWCmEwiUggCCXoo0MggI5EsgBkGvJlq7FR9Rz3e+0Zs/AQTdnxU1IZAnAQQ9T9r0BYFiE0DQi50/oodASwjEJugOMqLekulGpwkIIOgJYFEVAjkSQNBzhE1XECg4AQS94AkkfAi0gkCsgl5P1FlNb8UMpM9GBBB05gYEwiSAoIeZF6KCQIgEEPQQs0JMEAicQOyCrvToMLkhQ4bYTCHpgU/YiMJD0CNKNkMtFAEEvVDpIlgItJQAgt5S/HQOgWISQND/lzdJumQdSS/mXC5b1Ah62TLKeMpCAEEvSyYZBwSyJ4CgZ8+YHiBQOgIIetuUDhgwwH5j1KhRpcs1AyoWAQS9WPki2ngIIOjx5JqRQqCzBBD0zhLkeghESABBb5t0t92dVfQIPwyBDRlBDywhhAOB/yeAoDMVIAABXwIIui8p6kEAAhUCCPrkk8FtdWcVnQ9KKwkg6K2kT98QaEwAQWd2QAACvgQQdF9S1IMABBD0duYAgs4HJAQCCHoIWSAGCExOAEFnVkAAAr4EEHRfUtSDAAQQ9HbmgHtH+rBhw0z//v2ZLRBoCQEEvSXY6RQCHRJA0DtERAUIQOD/CSDoTAUIQCAxAba4T44MQU88jbggAwIIegZQaRICKRBA0FOASBMQiIQAgh5JohkmBNIkgKBPTpMt7mnOMNpqlgCC3iw5roNAtgQQ9Gz50joEykQAQS9TNhkLBHIigKBPDlqvWuMU95wmIN00JICgMzkgECYBBD3MvBAVBEIkgKCHmBVigkDgBBD0tglyq+cIeuATN4LwEPQIkswQC0kAQS9k2ggaAi0hgKC3BDudQqDYBBD0/+UPOS/2XC5b9Ah62TLKeMpCAEEvSyYZBwSyJ4CgZ8+YHiBQOgII+qSUIuelm9qFHxCCXvgUMoCSEkDQS5pYhgWBDAgg6BlApUkIlJ1AnoI+evRoM27cODNo0KBgsComybmKXqmmV6tRIBACAQQ9hCwQAwQmJ4CgMysgAAFfAgi6LynqQQACFQJZCrrkV2Xo0KFm7NixpmfPnma33XYz22+/fcszoNj0OjUXI8+ctzwlBFBDAEFnSkAgTAIIeph5ISoIhEgAQQ8xK8QEgcAJpC3oTny//vrripTrz67cdNNNZv75528ZlVox16q55Fy/UyAQEgEEPaRsEAsE/kcAQWc2QAACvgQQdF9S1IMABCoE0hD0WilvhLdLly7mmWeeyZ2+4qv+pQAQ89zTQIcJCSDoCYFRHQI5EUDQcwJNNxAoAQEEvQRJZAgQyJtAZwTdHazmG/Ncc81lRowY4Vu96Xpu23r1FnbXGGLeNFYuzJkAgp4zcLqDgCcBBN0TFNUgAAGDoDMJIACBxAQ6I+jqTBKsXz5lttlmM5tssslk28mb2V7uJLzR79VCrj+zjd0nQ9QJiQCCHlI2iAUC/yOAoDMbIAABXwIIui8p6kEAAhUCnRX0pJLug17C7sTbp351HSf7CHlSctQPjQCCHlpGiAcCkwgg6MwECEDAlwCC7kuKehCAQKqC7ivpW265pVl77bXryndSIXciXvs7qYVAWQgg6GXJJOMoGwEEvWwZZTwQyI4Agp4dW1qGQGkJpLGCXg2nvS3vrT7BvbRJZGClJICglzKtDKoEBBD0EiSRIUAgJwIIek6g6QYCZSKQtqA3Wk1v1QnuZcoVY4mLAIIeV74ZbXEIIOjFyRWRQqDVBBD0VmeA/iFQQAJZCLowaMv60KFDzbhx44zeg57XCe4FTAEhQ6AuAQSdiQGBMAkg6GHmhaggECIBBD3ErBATBAInkJWgu2G7Le9LLrmkueKKKwKnQXgQCIcAgh5OLogEAtUEEHTmAwQg4EsAQfclRT0IQKBCIGtBV0dffPGF+fjjj02/fv0gDwEIeBJA0D1BUQ0CORNA0HMGTncQKDABBL3AySN0CLSKQB6C3qqx0S8EikwAQS9y9oi9zAQQ9DJnl7FBIF0CCHq6PGkNAlEQQNCjSDODLCABBL2ASSPkKAgg6FGkmUFCIBUCCHoqGGkEAnERQNDjyjejLQ4BBL04uSLSuAgg6HHlm9FCoDMEEPTO0ONaCERKAEGPNPEMO3gCCHrwKSLASAkg6JEmnmFDoAkCCHoT0LgEArETQNBjnwGMP1QCCHqomSGu2Akg6LHPAMYPAX8CCLo/K2pCAAL/TwBBZypAIEwCCHqYeSEqCCDozAEIQMCXAILuS4p6EIBAhQCCzmSAQJgEEPQw80JUEEDQmQMQgIAvAQTdlxT1IAABBJ05AIHACSDogSeI8KIlgKBHm3oGDoHEBBD0xMi4AAIQYAWdOQCBMAkg6GHmhagggKAzByAAAV8CCLovKepBAAKsoDMHIBA4AQQ98AQRXrQEEPRoU8/AIZCYAIKeGBkXQAACrKAzByAQJgEEPcy8EBUEEHTmAAQg4EsAQfclRT0IQIAVdOYABAIngKAHniDCi5YAgh5t6hk4BBITQNATI+MCCECAFXTmAATCJICgh5kXooIAgs4cgAAEfAkg6L6kqAcBCLCCzhyAQOAEEPTAE0R40RJA0KNNPQOHQGICCHpiZFwAAQiwgs4cgECYBBD0MPNCVBBA0JkDEICALwEE3ZcU9SAAAVbQmQMQCJwAgh54gggvWgIIerSpZ+AQSEwAQU+MjAsgAAFW0JkDEAiTAIIeZl6ICgIIOnMAAhDwJYCg+5KiHgQgwAo6cwACgRNA0ANPEOFFSwBBjzb1DBwCiQkg6ImRcQEEIMAKOnMAAmESQNDDzAtRQQBBZw5AAAK+BBB0X1LUgwAEWEFnDkAgcAIIeuAJIrxoCSDo0aaegUMgMQEEPTEyLoAABFhBZw5AIEwCCHqYeSEqCCDozAEIQMCXAILuS4p6EIAAK+jMAQgETgBBDzxBhBctAQQ92tQzcAgkJoCgJ0bGBRCAACvozAEIhEkAQQ8zL0QFAQSdOQABCPgSQNB9SVEPAhBgBZ05AIHACSDogSeI8KIlgKBHm3oGDoHEBBD0xMi4AAIQYAWdOQCBMAkg6GHmhagggKAzByAAAV8CCLovKepBAAKsoDMHIBA4AQQ98AQRXrQEEPRoU8/AIZCYAIKeGBkXQAACrKAzByAQJgEEPcy8EBUEEHTmAAQg4EsAQfclRT0IQIAVdOYABAIngKAHniDCi5YAgh5t6hk4BBITQNATI+MCCECAFXTmAATCJICgh5kXooIAgs4cgAAEfAkg6L6kqAcBCLCCzhyAQOAEEPTAE0R40RJA0KNNPQOHQGICCHpiZFxQBAKjR482L730kvn+++/NhAkTzLTTTmv69Olj1lprLTP11FMXYQiZxHjyySeb5557zpx99tlmzjnnbLqPzq6g33777eb66683Q4YMsTlprwwfPtz84x//MEcffbRZYoklmo45yYWPPvqoOf/8881vf/tbs9VWWyW5NLO6P//8s7nlllvMww8/bOe1uG233XZ2ft9xxx1mySWXNIsssojtP608ZzYYGs6MAIKeGVoahkCnCCDoncLHxRCIigCCHlW64xnscccdZ+66667JBjzrrLOa/fbbz/zmN7+JB0bVSPfZZx/z5JNPWtGbd955m2bQWUG/6qqrrAAfddRRZtNNN203DsnmiBEjzEUXXWSWX375pmNOcuG9995rbwgMHjzY/gqhnHXWWfamhopEXDcPxO6BBx4whxxyiJl//vnNTTfdZH+eVp5DGDcxJCOAoCfjRW0I5EUAQc+LNP1AoPgEEPTi55AR1CHgBF0rjP379zf//ve/zT//+U8rpyp///vfzYwzzhgdu7TEDUHPd+p88cUX9qbSNNNMY2+u6EaTK/rZaaedZlZbbTWz0UYbIej5pia43hD04FJCQBCwBBB0JgIEIOBLAEH3JUW9QhFwgn7GGWeYNddc08Y+ceJEM2jQIPPll1+aE044wWywwQZtxqQtxD/99JOZaqqpOhyr2urWrVuberpWpWvXru1eX+/aDjtsUCFpWz6C7tOmBF285lhgatNzhvqPDKidKaaYwkw55ZSTRd+ZFXSf+HxzocB++OEHmzPF6krWK+g+Y6iG9uyzz9qV/E022cSu7HdU0sqz2Ph8HjqKh5/nRwBBz481PUEgCQEEPQkt6kIgbgIIetz5L+3o6wm6BnveeeeZq6++2uyyyy5mr732suN/6623zDnnnGOeeOIJ+/Xcc89tRUir705O/vCHP5iFFlrILL744ubCCy80H374oX2GW/UGDhxozj33XPPYY4/Z61deeWVz+OGHm9lnn73C99tvvzUXXHCBfZZaNwhmmmkme51EarrpprNxaUu+4tp2220r1/3yyy9m1113tf1deeWVtk/J53XXXWduvfVW+32tqi699NK2LcXYXmkkbh3F59qUlGu7+U03jDBvvvOq/fZiiy1mt1rr19dff22uueYau0NBsalsvPHG9md6RtqVZgR91VVXNWPHjjWffvqp5bD22mvbZ9jdjRJxue222+zz2K++Oik21dt6663tc+TVNwo03ssuu8w89NBD5r333rMMl1pqKbPDDjvYbfT1BP3pp582mlfKneaA4tDjEquvvro59NBDK2P75ptv7NyZZ555bF5VNH/effdds95669kVcPWv2DbccEOb8/YkWI8BPPLII/Yaxan58rvf/c72oefz9Ty/47zHHnvYPzfK83//+187DzVuNw8V/5577lnZUaI6ys+DDz5o2YjLCiusYH7/+993ePOptH+hFGhgCHqBkkWoURFA0KNKN4OFQKcIIOidwsfFoRKoJ+g//vij2Xnnna28XXHFFVYYX3jhBStIKto2LKnWIWoqEpehQ4faP2u1XUKmoi3z3333nXn55Zcrw5c4DRgwwIqUiqRGAtilSxe7ci+h0o0APSe8zDLLmOeff968/vrr9mbAjTfeaF577TUbh6RNwqXrVFRPgq72Lr/8ciNhP+igg+xBYSrLLbecPQxP8qYiserXr1/DtNQTN5/4JMHq+8ADD7Rj7NF9GrPEYgNMtx7GPDtmlB2H+paESobFY9FFFzVvv/22FUGVP//5z/YGh4sz6TPouk7buHWTwN0M0aFx4qwV8OodEvr+V199ZQVTRSIt+VbR4w7bb7+9zadyrrx99tln5plnnrHSe8ABB0wm6GpHORRnSfGyyy5r87/jjjvaGwXaYu6K+tUBbtXPhFfPn3XWWcfOHzcG3XjQDaJGRc+eq65i0M2B+eabz94YUpu62aQbO5pbeib9sMMOs83Uy7PEe5tttrHjdjck3CMfalc3fHr27GkPmNNNGH1PNyu0eq+bAu759oaB8oMgCCDoQaSBICAwGQEEnUkBAQj4EkDQfUlRr1AEnKBrxVIi/p///MeuXktkJMESEAm7hEXic+yxx9rVTG1z/uijj6zISyzdwWROsKq3xrtDu9SeVo179epl5cdtndcq7CyzzGKuvfZaK2ASc628SnbV9/7772+fiT/44IPtKq8EsPrmgYCfcsopdlX49NNPt9J3zz33mGOOOcauWqv/mWee2bYlOb744ovtKedaaW9U6ombb3yub8n4oXsPNTPNOIvpu1AP88PP39hTxd1z0ffff79ZZZVV7Mn5WtXWTQ7JXfX27GZW0KvZv//++3b1XLx1QJo7aV2r3MqHO6FesRxxxBE2NsWvonbuvPNOK9bHH3985VR/tal8de/evY2ga0fDTjvtZOeJ2GtHgEozgi4J1sq6SrX0d3QAns5P0Cq94lAOq8vIkSPN3nvv3aGgn3jiiXZ3wRZbbGHnnsYpaRcD3fDZbbfdjFbgdRNENyIk/5pnuvGhz407Ib5QfxFEGCyCHmHSGXIhCCDohUgTQUIgCAIIehBpIIi0CTQ6xV3yrBXSGWaYobI6rZVCCbZbtVYsWmHXVmSJj2TdCfrjjz9eETrJoLYGb7bZZubII4+sDEGrqpI3Jzjua4ni5ptvXqnnrl9ppZXsieZ//etfrSxJoLRFXpIkWVJ8kktt0da2/KeeespK6RprrFFpS1vLJfkqErZ6z33rZ/UE3Tc+CbFeX3fmmWeaOacfYPuSoPeYbvJn7iXs2o6ulWntFNAqt25QXHrppfa6ZgS9VmJ1w0UrxtrRMGzYsAoLrbCrz3Hjxlm5FHcV9wiDHkFQue++++wNjnrFbXHXrgbtbtC1bnXd1W9G0Kvnj9rRrgjdWNEuCc2lRqWzgq6bOCuuuKJtXvOyetzaOaAbVNrGrhtILs+6uSW+Wj2nFIcAgl6cXBFpXAQQ9LjyzWgh0BkCCHpn6HFtsAScoOvZX60q61lgrU5XvzZLW8lPOumkdsfgViyTCLrkWs9gu+3mbkWyevVUnWqlXquxbnVXUrvuuutaMdd7uCWgEnZJteJQcW21F7SeHdZW5XqlnqD7xufqaVX6i3cnHZBXT9B1o0E3HNzWdhdH9ZbvNATd7VbQdm33aIEeWdCuAwl6bRFPbW/fcsst7ZZ87UxoVJygV/88C0HXs+B6ZEF5V9xZCfo777xjV9jbK1oh124KrZZrJV35E1vd2oy9LQAAIABJREFUPNDjAR0dfhjsXwaRBYagR5ZwhlsYAgh6YVJFoBBoOQEEveUpIIAsCNQ+gy451xZyFW23lizqndLaJq4VbElbvbLAAgvY7dKdEXQ946wiiZTwuPLKK69Y8anefi2xlbzqOWDFqefh3Svh9Ay4njlX0TbteiubWjl3K8T1xlNP0H3iu/vuuyt9SyrH/b//1gq6W9XWOMVbz1dr9VaSl7agf/755/bQNe0w0E0DbVHXbgYVyah2GPTt29fuOtCBdYpNN0W0Y8DJqI+g6ywCib+EtfoZ/zRW0J2g1z7HXhtXZ1fQ3VwTKx06V6/07t27cn6Btr7rbAQ9b6+iMxAuueQSTnTP4i+rlNtE0FMGSnMQSIkAgp4SSJqBQAQEEPQIkhzjEOsdEnf22Wfb088lG9pqra3g++67rxV0iXF7pTOCrmeYtaIr4VlwwQUr3VTfIHD9f/DBB/bEc4mUhLD2tVpuO7qeM9fOgKTFCbq7SaHrfeOrfka+x0/z265rBV0nfeumgnYsuBsF9Q5Ncyvotdv+643HHVpWu8Vd/ag/3bTQNnHJpH5Vn9BfPT4Jus4YcK/d08Freg67XnEr6Nr2rRP6tcVdj0bolHw9DqEbIe6mT+0We513IOGud0hc7RZ3bf2X+NbGnJaguzzrZHndaFCpjaG9OaQbG7vvvrt91l+M3Q2ipPOO+vkRQNDzY01PEEhCAEFPQou6EIibAIIed/5LO/p6gi5J0QqrxFeriHrN2UYbbWS3lOt96fraPYeu08h1ort7hVdnBN2timuV3r2OS4enabu9JLP6hHElRCLotmzrhsLCCy9cyZNuLOh5az3PrcPXdDCdilapJffzzjtvuznVM8VuldttefaNTyIpoZSQ7rPLyWbqqbtbQe/a7Se7eq3dBjqsTVukq+OW3OpGiHYi6JAyFa3I67nnjlaOVdcJup59d8/d6/3cOlxPkq2T5XWTwR3a5w7d07V6Dl3P5ivHeo5fuxUkw1oR12MDOmPA5fyLL76wh9qpTr3XrKldPT7g8uVW8NWPVsLdjgb3Kr96gl69i6I6NrF1OxnqJTDpCnq9PEu0x4wZY3cQ6NEP92o33UDRs/o6IE/ljTfesH+efvrp7df6rOh5fR0sp9PvKWETQNDDzg/RxUsAQY8394wcAkkJIOhJiVG/EAQavQfdbSnWFmw9g6yD2nQyt4qeS5akS5y0ZbpaSDoj6BIgdyNA7ev1Yzq9XbIkGVQc1Su5TmirD1Vz0CdMmGBl1L0+TM8uqw2J3/jx4+3p9Do9vVHRAWHu3dzu+Xrf+PRqMB1gp9VUneC+4oA1TI+eXcyjjz1ku3PPnus5Zq00a/u5WOqwPVd0evocc8xhquVWwq/DyRodbOcEXW3opoJumrjXjrnX1Ol7YqCbG9p94La6i4d7Ft6dAq/D6/Q8uYp2IYiz2CkPypNuHNQT9OoT+nWjQeMQQ211V5+62fDiiy9WXr9XT9D1Pd1k0Cq7ewZez/br5kJ7Jamg18uzbjopfyqa/4MGDbI3JDRWvTbOvepNjwToBobmvMRdOVNxuSvEXwARB4mgR5x8hh40AQQ96PQQHASCIoCgB5UOgkmLQCNBV/tuhVqConp6xZReY+bec6462sqr06yXXnppG5ITdMmzW1XXieaqU3uKu1txrH5eWc8+6zVXOjHbFW051unvkrvqolPI1aZWat127OqfS6i1XV/vv3ZFkq7XxGnLd6Nt26or4dLBeFpNdu9W1/d945NYSibdK8uc7Emc9ZouFY3f7QCQCOrAMcm3dilUH7SmVXRtSdc26va2m0vQdSNFjwe497+rH+VPuXS7CPQ9t83dcdEjArpRoFX2Pn36VN7lrVXiU089tfLOe9XXCr+28WungxN05Vcrz65oy7jG4aRa0qscaru7im5MaIVeW/frCbry5OaZ2CjPEmI3pxrNf63cawW/3mvW3NsAtHtBp/u3l+c333zTHkannRuuKGbd9HGvj9NqvvLhxqTPguLUzSBK+AQQ9PBzRIRxEkDQ48w7o4ZAMwQQ9GaocU0pCUg+3Vbf6leupTlYta9Xj80222wNV4zVn+pI3Ns7OVurnx9//LGt16NHj0Rh6sR4HQTm3l3uLvaN79XRX5kvvvjELNCvt5ltjpnavKJObWnVWvG5bdP6nvrTVvzqGxK6GSFBlxzr+fB6RSwksNpyra3qypNku1H9enV0wJ5i0kFo1UUc1L6+X32AXyKYxtiYNN7a9l071TswtBNBOyHEPqt55vptlGd9X1v625uHuhGk+cdr1pLOhtbWR9Bby5/eIdCIAILO3IAABHwJIOi+pKgHAQhUCLw+Zrz9c6P3oIOqLYF6j0jACAJZEEDQs6BKmxDoPAEEvfMMaQECsRBA0GPJNOOEQIoEEPRkMBH0ZLyo3TwBBL15dlwJgSwJIOhZ0qVtCJSLAIJernwyGgjkQgBBT4ZZz4Zry3h7h+Ela5HaEKhPAEFnZkAgTAIIeph5ISoIhEgAQQ8xK8QEgcAJIOiBJ4jwoiWAoEebegYeOAEEPfAEER4EAiKAoAeUDEKBQFEIIOhFyRRxxkYAQY8t44y3KAQQ9KJkijgh0HoCCHrrc0AEECgcAQS9cCkj4EgIIOiRJJphFo4Agl64lBEwBFpGAEFvGXo6hkBxCSDoxc0dkZebAIJe7vwyuuISQNCLmzsih0DeBBD0vInTHwRKQABBL0ESGUIpCSDopUwrgyoBAQS9BElkCBDIiQCCnhNouoFAmQgg6GXKJmMpEwEEvUzZZCxlIoCglymbjAUC2RJA0LPlS+sQKCUBBL2UaWVQJSCAoJcgiQyhlAQQ9FKmlUFBIBMCCHomWGkUAuUmgKCXO7+MrrgEEPTi5o7Iy00AQS93fhkdBNIkgKCnSZO2IBAJgVYJ+ujRo+sSbvR9Ve7fv/9k19T7XiSpY5glJ4CglzzBDK+wBBD0wqaOwCGQOwEEPXfkdAiB4hPIStCdaOv3auluT8A7Q1Oi7mS9+s+daZNrIdBKAgh6K+nTNwQaE0DQmR0QgIAvAQTdlxT1IACBCoG0BH348OFWxDsS8GqJrk1DR6vh9druqM/Bgwdbce+obaYEBEIjgKCHlhHigcAkAgg6MwECEPAlgKD7kqIeBCCQiaBL0hutYuchyNWyXk/cJesq7nemAQRCJoCgh5wdYouZAIIec/YZOwSSEUDQk/GiNgQgYIxJawU9VJi6aaDifndxStIR9VCzRlzVq3S9Z+9mZurTDSgQgEAgBBD0QBJBGBAoAAEEvQBJIkQIhEag7IJezdutqlfLOqIe2owkHkeAFXTmAgTCJICgh5kXooJAiAQQ9BCzQkwQCJxATIJenQpJerWoDxs2jOfUA5+rsYWHoMeWccZbFAIIelEyRZwQaD0BBL31OSACCBSOQKyC7hJVLeqsphdu+pY6YAS91OllcAUmgKAXOHmEDoGcCSDoOQOnOwiUgUDsgq4cIullmMnlGwOCXr6cMqJyEEDQy5FHRgGBPAgg6HlQpg8IlIwAgj4poXo+fciQIfbPbHcv2SQv6HAQ9IImjrBLTwBBL32KGSAEUiOAoKeGkoYgEA8BBP1/uXaSrlfCSdIpEGglAQS9lfTpGwKNCSDozA4IQMCXAILuS4p6EIBAhQCC3nYyuO3uPI/Oh6TVBBD0VmeA/iFQnwCCzsyAAAR8CSDovqSoBwEIIOjtzAFtdddq+qhRo5gpEGgZAQS9ZejpGALtEkDQmSAQgIAvAQTdlxT1IAABBB1B51MQOAEEPfAEEV60BBD0aFPPwCGQmACCnhgZF0AAAmxxn3wOuG3uHBbH56OVBBD0VtKnbwg0JoCgMzsgAAFfAgi6LynqQQACrKC3MwcQdD4gIRBA0EPIAjFAYHICCDqzAgIQ8CWAoPuSoh4EIICgewg6z6DzQWklAQS9lfTpGwKsoDMHIACBzhNA0DvPkBYgEB0BtrhPnvIBAwYYXrUW3UchuAEj6MGlhIAgYAmwgs5EgAAEfAkg6L6kqAcBCLCC3mAOuBPcec0aH5JWE0DQW50B+odAfQIIOjMDAhDwJYCg+5KiHgQggKDXmQO8A50PRkgEEPSQskEsEPgfAQSd2QABCPgSQNB9SVEPAhBA0GvmAHLOhyI0Agh6aBkhHghMIoCgMxMgAAFfAgi6LynqQQACLRH00aNHm/fff99suummwWRAMUnO9TvPnQeTFgKpkoDes3czM/XpBhMIQCAQAgh6IIkgDAgUgACCXoAkESIEQiOQ9SFxToC//vprM3bsWLPXXnuZXXbZJQgMbtVcwfDMeRApIYgqAqygMx0gECYBBD3MvBAVBEIkgKCHmBVigkDgBLIQ9OpV6drhX3/99eZXv/pVy6jUxqZVc8m5fqdAICQCCHpI2SAWCPyPAILObIAABHwJIOi+pKgHAQhUCKQh6JJelaFDh9pV8p49exqtmNcrTz31lOnatWvuGah304BV89zTQIcJCCDoCWBRFQI5EkDQc4RNVxAoOAEEveAJJHwItIJAZwRdryRzW9d9Yp922mnNww8/7FO103Uk5NW/XIOsmHcaLQ3kRABBzwk03UAgIQEEPSEwqkMgYgIIesTJZ+gQaJZAZwRdAixJ9y0zzDCDOf300231NLaUu5V7tedk3P25OibXF1vZfTNFvRAIIOghZIEYIDA5AQSdWQEBCPgSQNB9SVEPAhCoEOiMoLtGqg9b6wxaX2mvFvN6/amd6l+diYlrIdAqAgh6q8jTLwTaJ4CgM0MgAAFfAgi6LynqQQACqQq6GvOR9OWXX94svfTSlb5rRbsj8XYXVou8E/F6PyPNECgyAQS9yNkj9jITQNDLnF3GBoF0CSDo6fKkNQhEQSCNFXQHSoKtg+LGjRtX95C4Vp/gHkVCGWRpCCDopUklAykZAQS9ZAllOBDIkACCniFcmoZAWQmkKeiOUaPV9Fad4F7W3DGuchNA0MudX0ZXXAIIenFzR+QQyJsAgp43cfqDQAkIZCHowlIr6Xme4F6CtDAECBgEnUkAgTAJIOhh5oWoIBAiAQQ9xKwQEwQCJ5CVoNeups8zzzzm1ltvDZwG4UEgHAIIeji5IBIIVBNA0JkPEICALwEE3ZcU9SAAgQqBrAVdHb355pvmvffeMwMHDoQ8BCDgSQBB9wRFNQjkTABBzxk43UGgwAQQ9AInj9Ah0CoCeQh6q8ZGvxAoMgEEvcjZI/YyE0DQy5xdxgaBdAkg6OnypDUIREEAQY8izQyygAQQ9AImjZCjIICgR5FmBgmBVAgg6KlgpBEIxEUAQY8r34y2OAQQ9OLkikjjIoCgx5VvRguBzhBA0DtDj2shECkBBD3SxDPs4Akg6MGniAAjJYCgR5p4hg2BJggg6E1A4xIIxE4AQY99BjD+UAkg6KFmhrhiJ4Cgxz4DGD8E/Akg6P6sqAkBCPw/AQSdqQCBMAkg6GHmhagggKAzByAAAV8CCLovKepBAAIVAgg6kwECYRJA0MPMC1FBAEFnDkAAAr4EEHRfUtSDAAQQdOYABAIngKAHniDCi5YAgh5t6hk4BBITQNATI+MCCECAFXTmAATCJICgh5kXooIAgs4cgAAEfAkg6L6kqAcBCLCCzhyAQOAEEPTAE0R40RJA0KNNPQOHQGICCHpiZFwAAQiwgs4cgECYBBD0MPNCVBBA0JkDEICALwEE3ZcU9SAAAVbQmQMQCJwAgh54gggvWgIIerSpZ+AQSEwAQU+MjAsgAAFW0JkDEAiTAIIeZl6ICgIIOnMAAhDwJYCg+5KiHgQgwAo6cwACgRNA0ANPEOFFSwBBjzb1DBwCiQkg6ImRcQEEIMAKOnMAAmESQNDDzAtRQQBBZw5AAAK+BBB0X1LUgwAEWEFnDkAgcAIIeuAJIrxoCSDo0aaegUMgMQEEPTEyLoAABFhBZw5AIEwCCHqYeSEqCCDozAEIQMCXAILuS4p6EIAAK+jMAQgETgBBDzxBhBctAQQ92tQzcAgkJoCgJ0bGBRCAACvozAEIhEkAQQ8zL0QFAQSdOQABCPgSQNB9SVEPAhBgBZ05AIHACSDogSeI8KIlgKBHm3oGDoHEBBD0xMi4AAIQYAWdOQCBMAkg6GHmhagggKAzByAAAV8CCLovKepBAAKsoDMHIBA4AQQ98AQRXrQEEPRoU8/AIZCYAIKeGBkXQAACrKAzByAQJgEEPcy8EBUEEHTmAAQg4EsAQfclRT0IQIAVdOYABAIngKAHniDCi5YAgh5t6hk4BBITQNATI+MCCECAFXTmAATCJICgh5kXooIAgs4cgAAEfAkg6L6kqAcBCLCCzhyAQOAEEPTAE0R40RJA0KNNPQOHQGICCHpiZFwAAQiwgs4cgECYBBD0MPNCVBBA0JkDEICALwEE3ZcU9SAAAVbQmQMQCJwAgh54gggvWgIIerSpZ+AQSEwAQU+MjAsgAAFW0JkDEAiTAIIeZl6ICgIIOnMAAhDwJYCg+5KiHgQgwAo6cwACgRNA0ANPEOFFSwBBjzb1DBwCiQkg6ImRcQEEIMAKOnMAAmESQNDDzAtRQQBBZw5AAAK+BBB0X1LUg0DgBF599VXz/fffm6WXXnqySL/99ltz3333mRlmmMGsueaanR5JtaC//d5r5uWXXzYbb7yx6datW6Xt8ePHmyuuuMKMGTPGTDfddGb77bc3K664YtN9P/bYY+bTTz81v/71r80ss8zSph19Xz+fddZZzaqrrtp0H1wIgaITQNCLnkHiLysBBL2smWVcEEifAIKePlNahEBLCFx11VXm/PPPNyNGjDBzzTXXZAK7wQYbmCWWWMJceeWVieL7+eefzahRo0yvXr3MIossYq+tFvTtd9zSvPfee2bo0KFm9dVXtz//6aefzE477WR002CaaaYxc845pznhhBPMQgstlKjv6sr77LOPefLJJ82ll15qlllmmTbtjB492gwZMsSsvPLK5rzzzmu6Dy6EQNEJIOhFzyDxl5UAgl7WzDIuCKRPAEFPnyktQqAlBJygL7bYYubyyy83U001VSUOrTA3K+haBb/ooovM8ccfbzbccMPJBP3+f95lHn/8cXPYYYeZmWaayf78oYceMgcddJBZbrnlzFlnnWV69OjRaSYIeqcR0kAEBBD0CJLMEAtJAEEvZNoIGgItIYCgtwQ7nUIgfQJO0NWyVq8ltK50JOha8Vbp2rXrZIFddtll5pJLLmko6D2ma3yNVs11YyCN0qyg//jjj2bKKadsN4SJEye22Z7fXuUkddMYN21AIAkBBD0JLepCID8CCHp+rOkJAkUngKAXPYPED4H/J1At6PrWBRdcUHnmu5GgP/300+biiy82L7zwgm1Fq+977LGH3SquMmzYMLulXEVb1fUsucoZx1xtJkz8zhx/5t7mxx9/sN+75ppr7DPuG220kX1WXEUr6pLj0047za6y//WvfzWHHnpoZSu8S95xxx1nFMvpp59ut+HXK0kF/ZFHHjF33HGHefjhh20cGtPmm29ullxySdu8bkpcd9115tZbbzUffvihHZ+e31c/biv+K6+8Yg488ECz9tprm3nnnddce+21dju/xnjssccy9yAQHAEEPbiUEBAELAEEnYkAAQj4EkDQfUlRDwKBE3CCvvPOO5ubbrrJRqvn0Xv37m2FuXaL+7333muOPvpoW2+99dazv+sgORW38n3bbbdVpFTy3rdvX/vz7Tc90Hz33bdm2DUnmjH/etZ+75577rF97bnnnubtt982X375pZl//vnNjDPOaA4++GD7tX5W+5z4V199ZdZaay0ryA8++GDdVXy1n0TQ33//fbPZZpvZuNzNhieeeMKceeaZZo011jC//PKL3YIveVfRVvyXXnrJ6DA9FbHs16+fef75582uu+5qY9PP9Iy9xnb44YfbaygQCI0Agh5aRogHApMIIOjMBAhAwJcAgu5LinoQCJyAE/SjjjrKCuURRxxh5fScc84xn3/+eRtB/+abb8z6669vpVOHqjmJffbZZ83gwYPtivOdd95punfvbjra4j5kz13sKe4SdJ2irnLGGWfYmwTVbeuwuUGDBtmbBXfffbeZbbbZbF2tquv59h133NHsu+++DSknEXTdWDjllFPMaqutZp+BV3n99dftDQY9D69YjznmGLtjQD+feeaZjbbCi6F2FLjD9Jyg63rV10n1FAiETABBDzk7xBYzAQQ95uwzdggkI4CgJ+NFbQgES6Ba0DfddFMrlBLR/fff36yzzjptBH3kyJFm7733tiKvA92mmGKKyrh22WUXu+Vdp71LVNMSdHXgDpxT31rpV9lrr73MU089ZVfq3Snx9SAnEXR3o0Hj082C2te7uT4POeQQu6Luytdff2223npr+6UY6caDVtBVtEV/6qmnDjb/BAYBEUDQmQcQCJMAgh5mXogKAiESQNBDzAoxQaAJArWC7mRTK9aSVMmoWxnW6ra+p23v2s5eXU488UT77PbJJ59sfvOb36Qq6J988ok9CV6vXbv99tvNv//9b7Puuuuaueee22jVu72SRNDVzp/+9Cfzl7/8xTa51FJLmSOPPNJuuVfRyrrbzt6oT22313Z2CfrAgQNtexQIhE4AQQ89Q8QXKwEEPdbMM24IJCeAoCdnxhUQCJJAraAryDFjxpjdd9+9Em+toNee9q6KBxxwgNEBa+459DRX0NX+H//4R/PYY49Z8X/rrbfsVnRtbdcWdx9B1yvfll9++TZV9Xy52qh9vv2ZZ56xJ9A/99xztr7e1S45d8+Pa4zu4LvqBnWwndpyW9z1jP5JJ50UZN4JCgLVBBB05gMEwiSAoIeZF6KCQIgEEPQQs0JMEGiCQD1BVzMSWm0tV3GC/uijj9qt7zqdXCesu6KTzVdYYQX7pa7RiedO0HXQm9v+/fqY8bZO34V6GN9n0F0fWplWW5tssok9EV03Ee666y7Tp0+fdkfttuwrBl1fXTSGW265xa7GS/iri5591xiGDx9uV9L1jnjdDND2dbeNv1HHCHoTE5FLWkoAQW8pfjqHQEMCCDqTAwIQ8CWAoPuSoh4EAifQSNB/+OEHo+fKX3311Yqg60R1yayKDoObY4457J+rn03Xie56htsdqFYt850RdMWjU9vdFvP+/fvb17l1VPSMug68U0x69dvCCy9sLxk7dqzZbbfdbHvaxr/VVlvZU9ol/ssuu6yto63qW265pf3zqFGj7PXqc5lllrGr6r169bI/00FxH3zwgX2lmgqC3lFW+HloBBD00DJCPBCYRABBZyZAAAK+BBB0X1LUg0DgBBoJusJ+9913zRZbbFERdH3PrYzrxHa9kkzifPXVV9tR6gR4vTNcZfz48ZWD1LQ9XCe19+w2p1l34GZNraCrTYm2hFtF7xPXe8U7KnqmXmPQzQUVPU8uodYqvIqea7/hhhuswDux1oq53m2uLfA6xV3X6xVpEyZMMNtuu23lWt2s0Li0tV/j1evppp12WgS9o6Tw8+AIIOjBpYSAIICgMwcgAIFEBBD0RLioDIFwCVxzzTXm3HPPbfg6MB3CpleaaVu3ilaZb775ZnPBBRdUVrMl63pGXIfHVRd3qJz73iorrG323u0oK+h77zfYPuOtFXe9rkxFry67/vrr27xmrbo998y4vqct7z179vQCq/ebS+7d+8vdRYpXJ8O717zpnea6AaCT17WyrnFp1V7P4+vPKnr/+tlnn22317ui63WI3e9//3v7irkXX3zRnjZf7zA9r4CpBIGcCSDoOQOnOwh4EmAF3RMU1SAAAYOgMwkgEAkBCfm4ceMq29mrh633pOtVa05e6yH5/vvvzWeffWZ69+5tPnztZ1tFgt5juq6JCT799NNmzz33NM0evjZx4kQ7li5dupjZZ5/dTDXVVHVj0PPnOjlez7erbr2i5+4//vhjO3a9I50CgSITQNCLnD1iLzMBBL3M2WVsEEiXAIKeLk9ag0AUBKqfQU8i6JJ8bT8/88wz7Qnu5513nj0tnQIBCKRDAEFPhyOtQCBtAgh62kRpDwLlJYCglze3jAwCmRFoVtDdK9YUmA6u22uvvTKLkYYhECMBBD3GrDPmIhBA0IuQJWKEQBgEEPQw8kAUECgUgWYFXQfTaau93kOuw9soEIBAugQQ9HR50hoE0iKAoKdFknYgUH4CCHr5c8wIIZA6gWYFPfVAaBACEGhDAEFnQkAgTAIIeph5ISoIhEgAQQ8xK8QEgcAJIOiBJ4jwoiWAoEebegYeOAEEPfAEER4EAiKAoAeUDEKBQFEIIOhFyRRxxkYAQY8t44y3KAQQ9KJkijgh0HoCCHrrc0AEECgcAQS9cCkj4EgIIOiRJJphFo4Agl64lBEwBFpGAEFvGXo6hkBxCSDoxc0dkZebAIJe7vwyuuISQNCLmzsih0DeBBD0vInTHwRKQABBL0ESGUIpCSDopUwrgyoBAQS9BElkCBDIiQCCnhNouoFAmQgg6GXKJmMpEwEEvUzZZCxlIoCglymbjAUC2RJA0LPlS+sQKCWBUAR99OjRXnz79+/vVY9KECg6AQS96Bkk/rISQNDLmlnGBYH0CSDo6TOlRQiUnkCWgl4t3fqz+9pXxn3hS9qduFf/2fd66kEgRAIIeohZISYIGIOgMwsgAAFfAgi6LynqQQACFQJpCbqke/jw4bbdjgS83ip4o+/Va6tW/Bulc/DgwfZH7nfSDoEiEUDQi5QtYo2JAIIeU7YZKwQ6RwBB7xw/roZAlATSEnTJuRP0atmuXd3OCnLtCn2t2Ls4kPWsMkC7aRNA0NMmSnsQSIcAgp4OR1qBQAwEEPQYsswYIZAygbQEPeWwUmvO3TRwv6thVtZTw0tDGRJA0DOES9MQ6AQBBL0T8LgUApERQNAjSzjDhUAaBMou6NWMamUdUU9jBtFGVgQQ9KzI0i4EOkcAQe8cP66GQEwEEPSYss1YIZCWD+P/AAAgAElEQVQSgZgEvVbWnbBL1Nn6ntKEopnUCCDoqaGkIQikSgBBTxUnjUGg1AQQ9FKnl8FBIBsCsQq6aNauqA8bNqxyGnw2tGkVAv4EEHR/VtSEQJ4EEPQ8adMXBIpNAEEvdv6IHgItIRCzoDvg1QfcIektmYZ0WocAgs60gECYBBD0MPNCVBAIkQCCHmJWiAkCgRNA0CclCEkPfKJGGB6CHmHSGXIhCCDohUgTQUIgCAIIehBpIAgIFIsAgv6/fOnVbEOGDLHb3LWSToFAKwkg6K2kT98QaEwAQWd2QAACvgQQdF9S1IMABCoEEPS2k8GtpLPVnQ9Jqwkg6K3OAP1DoD4BBJ2ZAQEI+BJA0H1JUQ8CEEDQ25kDAwYMsD8dNWoUMwUCLSOAoLcMPR1DoF0CCDoTBAIQ8CWAoPuSoh4EIICgtzMHtM1d290RdD4orSSAoLeSPn1DoDEBBJ3ZAQEI+BJA0H1JUQ8CEEDQ25kDbHPnAxICAQQ9hCwQAwQmJ4CgMysgAAFfAgi6LynqQQACCDqCzqcgcAIIeuAJIrxoCSDo0aaegUMgMQEEPTEyLoAABDgkbvI54FbQ2eLO56OVBBD0VtKnbwg0JoCgMzsgAAFfAgi6LynqQQACrKC3Mwc4JI4PSAgEEPQQskAMEJicAILOrIAABHwJIOi+pKgHAQgg6A3mgFs9Hzx4sNEvCgRaRQBBbxV5+oVA+wQQdGYIBCDgSwBB9yVFPQhAAEGvMweQcz4YIRFA0EPKBrFA4H8EEHRmAwQg4EsAQfclRT0IQABBr5kDTs779+9vhg0bxgyBQMsJIOgtTwEBQKAuAQSdiQEBCPgSQNB9SVEPAhBomaB/8MEHpm/fvkFlwL33XEFxMFxQqYk6GAQ96vQz+IAJIOgBJ4fQIBAYAQQ9sIQQDgSKQCDrU9xHjx5tMQwdOtSMHTvW7L///mb77bcPAo1ik5yraOVcz5zrdwoEQiCAoIeQBWKAwOQEEHRmBQQg4EsAQfclRT0IQKBCIAtBl/hqy/jXX39tpbxnz572zypXXXWV6devX0sz4OJzNw84EK6l6aDzBgQQdKYGBMIkgKCHmReigkCIBBD0ELNCTBAInEBagt6elFcjeOKJJ0y3bt1yp1Ir5QqAVfPc00CHCQgg6AlgURUCORJA0HOETVcQKDgBBL3gCSR8CLSCQGcEvZ70tjeG7t27m8ceeyyXYbrVca3kq7ivJeXVv3IJhk4g0AQBBL0JaFwCgRwIIOg5QKYLCJSEAIJekkQyDAjkSaAzgu5OPveNd+aZZzb33Xefb3Xvek6+9Xv1n6sbYLXcGycVAyGAoAeSCMKAQA0BBJ0pAQEI+BJA0H1JUQ8CEKgQ6Iygu0a22247+6x5M6X2ULZ6h7Q56a5tv9H3XRt6tlyFg9+ayQzXtJoAgt7qDNA/BOoTQNCZGRCAgC8BBN2XFPUgAIFUBV2N+aymL7vssqZLly5t6DeS7I5SVC3dbsu6uwYh74gePy8CAQS9CFkixhgJIOgxZp0xQ6A5Agh6c9y4CgJRE0hjBd0B7EjSfU5wrxV2ZDvq6Rn14BH0qNPP4AMmgKAHnBxCg0BgBBD0wBJCOBAoAoE0Bb0jUW/VCe5FyAMxQqCWAILOnIBAmAQQ9DDzQlQQCJEAgh5iVogJAoETyELQNeTa1fQ8T3APHDnhQcCLAILuhYlKEMidAIKeO3I6hEBhCSDohU0dgUOgdQSyEnSNSNvVhwwZYgc355xzmjvuuKN1A6VnCBSMAIJesIQRbjQEEPRoUs1AIdBpAgh6pxHSAATiI5CloDuaEvU33njDbL311vEBZsQQaJIAgt4kOC6DQMYEEPSMAdM8BEpEAEEvUTIZCgTyIpCHoOc1FvqBQJkIIOhlyiZjKRMBBL1M2WQsEMiWAIKeLV9ah0ApCSDopUwrgyoBAQS9BElkCKUkgKCXMq0MCgKZEEDQM8FKoxAoNwEEvdz5ZXTFJYCgFzd3RF5uAgh6ufPL6CCQJgEEPU2atAWBSAgg6JEkmmEWjgCCXriUEXAkBBD0SBLNMCGQAgEEPQWINAGB2Agg6LFlnPEWhQCCXpRMEWdsBBD02DLOeCHQPAEEvXl2XAmBaAkg6NGmnoEHTgBBDzxBhBctAQQ92tQzcAgkJoCgJ0bGBRCAAILOHIBAmAQQ9DDzQlQQQNCZAxCAgC8BBN2XFPUgAIEKAQSdyQCBMAkg6GHmhagggKAzByAAAV8CCLovKepBAAIIOnMAAoETQNADTxDhRUsAQY829QwcAokJIOiJkXEBBCDACjpzAAJhEkDQw8wLUUEAQWcOQAACvgQQdF9S1IMABFhBZw5AIHACCHrgCSK8aAkg6NGmnoFDIDEBBD0xMi6AAARYQWcOQCBMAgh6mHkhKggg6MwBCEDAlwCC7kuKehCAACvozAEIBE4AQQ88QYQXLQEEPdrUM3AIJCaAoCdGxgUQgAAr6MwBCIRJAEEPMy9EBQEEnTkAAQj4EkDQfUlRDwIQYAWdOQCBwAkg6IEniPCiJYCgR5t6Bg6BxAQQ9MTIuAACEGAFnTkAgTAJIOhh5oWoIICgMwcgAAFfAgi6LynqQQACrKAzByAQOAEEPfAEEV60BBD0aFPPwCGQmACCnhgZF0AAAqygMwcgECYBBD3MvBAVBBB05gAEIOBLAEH3JUU9CECAFXTmAAQCJ4CgB54gwouWAIIebeoZOAQSE0DQEyPjAghAgBV05gAEwiSAoIeZF6KCAILOHIAABHwJIOi+pKgHAQiwgs4cgEDgBBD0wBNEeNESQNCjTT0Dh0BiAgh6YmRcAAEIsILOHIBAmAQQ9DDzQlQQQNCZAxCAgC8BBN2XFPUgAAFW0JkDEAicAIIeeIIIL1oCCHq0qWfgEEhMAEFPjIwLIAABVtCZAxAIkwCCHmZeiAoCCDpzAAIQ8CWAoPuSoh4EIMAKOnMAAoETQNADTxDhRUsAQY829QwcAokJIOiJkXEBBCDACjpzAAJhEkDQw8wLUUEAQWcOQAACvgQQdF9S1Cs8ge/G/2T0i9J5Al+Mm2gb6T17t843RguWwEx94mXJZzO9D4H7bPaYrquZpmfX9BqOuCWx1K8YC5/N9LLOZzM9lq6lmD+b6dOkxZAIIOghZYNYMiHw+UcTzb8/mWi69ehqfvklky5oFAKdItClizETv/vJzDBrNzPLnPGIuv7D+uXHfDY7NXm4OFMC7rPZfdqupu9CPYy+jqF889+fzEdvfmeHOlX3OG9OxJDnoo/xh+8nLbrMuWAPbkgWPZnE34YAgs6EKDUBJwC9Zuthppya/2SUOtklGNzXn35nppu+q5l5jvJLuvts9pi+m9EvCgRCJvDdVxPNLz/+ZOb6VY+Qw0wtNj3GxGczNZw0lCEBfTb1SzfQYt3pkiFemm4RAQS9ReDpNh8C/CcjH870kh6BL98bH8V/ND77cKKZMMEg5+lNHVrKmMD4z74zs/btVnoJ0K6ziRONmbonN84ynlI0nxKBmG5up4SMZgIngKAHniDC6xwBCfpMc0/XuUa4GgI5EtB/NGabq/wSoM8mO1tynFh01WkC+mz2mrFr6c+LeH/sd6bLlF25edbpGUMDeRGIbYdLXlzpp3UEEPTWsafnjAnocBudmoqgZwya5lMlEIsEIOipThsay4GAJGCaacp/oCOCnsNkootUCSDoqeKksQAIIOgBJIEQsiGAoGfDlVazJYCgZ8uX1iHQLAEEvVlyXAeBbAkg6NnypfX8CSDo+TOnx5wIIOg5gaabVAkg6KnipDEIpEYAQU8NJQ1BIFUCCHqqOGksAAIIegBJIIRsCCDo2XCl1WwJIOjZ8qV1CDRLAEFvlhzXQSBbAgh6tnxpPX8CCHr+zOkxJwIIek6g6SZVAgh6qjhpDAKpEUDQU0NJQxBIlQCCnipOGguAAIIeQBIIIRsCCHo2XGk1WwIIerZ8aR0CzRJA0Jslx3UQyJYAgp4tX1rPnwCCnj9zesyJAIKeE2i6SZUAgp4qThqDQGoEEPTUUNIQBFIlgKCnipPGAiCAoAeQBELIhgCCng1XWs2WAIKeLV9ah0CzBBD0ZslxHQSyJYCgZ8uX1vMngKDnz5wecyKAoOcEmm5SJYCgp4qTxiCQGgEEPTWUNASBVAkg6KnipLEACCDoASSBELIhgKBnw5VWsyWAoGfLl9Yh0CwBBL1ZclwHgWwJIOjZ8qX1/Akg6Pkzp8ecCCDoOYGmm1QJIOip4qQxCKRGAEFPDSUNQSBVAgh6qjhpLAACCHoASSCEbAgg6NlwpdVsCSDo2fKldQg0SwBBb5Yc10EgWwIIerZ8aT1/Agh6/szpMScCCHpOoOkmVQIIeqo4aQwCqRFA0FNDSUMQSJUAgp4qThoLgACCHkASCCEbAgh6NlxpNVsCCHq2fGkdAs0SQNCbJcd1EMiWAIKeLV9az58Agp4/c3rMiQCCnhNoukmVAIKeKk4ag0BqBBD01FDSEARSJYCgp4qTxgIggKAHkARCyIYAgp4NV1rNlgCCni1fWodAswQQ9GbJcR0EsiWAoGfLl9bzJ4Cg58+cHnMigKDnBJpuUiWAoKeKk8YgkBoBBD01lDQEgVQJIOip4qSxAAgg6AEkgRCyIYCgZ8OVVrMlgKBny5fWIdAsAQS9WXJcB4FsCSDo2fKl9fwJIOj5M6fHnAgg6DmBpptUCSDoqeKkMQikRgBBTw0lDUEgVQIIeqo4aSwAAgh6AEkghGwIIOjZcKXVbAkg6NnypXUINEsAQW+WHNdBIFsCCHq2fGk9fwIIev7M6TEnAgh6TqDpJlUCCHqqOGkMAqkRQNBTQ0lDEEiVAIKeKk4aC4AAgh5AEgghGwIIejZcaTVbAgh6tnxpHQLNEkDQmyXHdRDIlgCCni1fWs+fAIKeP3N6zIkAgp4TaLpJlQCCnipOGoNAagQQ9NRQ0hAEUiWAoKeKk8YCIICgB5AEQsiGAIKeDVdazZYAgp4tX1qHQLMEEPRmyXEdBLIlgKBny5fW8yeAoOfPnB5zIoCg5wSablIlgKCnipPGIJAaAQQ9NZQ0BIFUCSDoqeKksQAIIOgBJIEQsiGAoGfDlVazJYCgZ8uX1iHQLAEEvVlyXAeBbAkg6NnypfX8CSDo+TOnx5wIIOg5gaabVAkg6KnipDEIpEYAQU8NJQ1BIFUCCHqqOGksAAIIegBJIIRsCCDoflwff/wh88Ybr5k11ljXzDPPfPaiq64aZrbaagfTo8c0kzXyxBMPm9dff9Wstdb6pm/fuet2ct11V5gff/zBbLvtLqZbt262zi23XGe++Wa82WabnczUU3f3Cy7CWgh6hElvZ8ifffaJGTVqpHnppefNhx++b+aaax6z/PIrm1VXHVj3qp9++smMHPmoGTPmGfs57dVrerPSSquZlVde3cwww4z2mnvuud289dbr5vvvvzczzjiTmXvueU3fvvOYhRZaxEw55ZQkoAEBBL21U+OXX34xo0c/ZV5++Xnz8ssvmKmmmsrO2Y02+q2dx60s11xzmbnkkrPNoYcebzbe+LephPLJJ+PMnXfeYr7//jszceJEM80009rxLrro4mbOOedK3Mcdd9xsunbtagYN2jzxtaFfgKCHniHiS0oAQU9KjPqFIYCg+6Vq9923NSNG3Giuu+5O85vfbGQvmnnmLmbXXfc0Z5xx4WSNHHTQH8yf/3yJufnmv5mBA9et24muV3n77a9Mz5697J/nnbeXGT/+a/P661+0/D9TfmRaUwtBbw33EHu97bYbzAEHDLGfm9ryu9/93pxzzmVtvv2f//zb/OEPO5i///3uyeqvuOKvzV13PWK/v9VW65kHHvjbZHX69VvSXHTRNUa/UyYngKC3blZ8+unHZr/9dqs7t6ebrqe5++7HWjpvzzvvdHPCCYeZs8++1Oyww26pgHr66SfMBhusUretPfc80Bx++Al1b6LXu0D8Fltsdvuj11771PTuPUsqMYbSCIIeSiaIIy0CCHpaJGknOAIIul9KGgm6rr766hFmgw02bdMQgu7HtdlaCHqz5Mp13ZlnnmhOO+0YO6htt93ZrLPOhmaOOfqa559/1pxxxvFm//2PMEOG7FcZtFbYBg5cxrz22su23sEHH2sWX3wpu2vl4Yf/YRZffGmzySZbthH0Qw451iy22JLmgw/eMzfddI1tW+XZZ9+2q+qUtgQQ9NbMiM8//9QMGLCgvVE188yzmoMOOtrO7fHjx5tbb73ePPjg/WbMmLe9ZTWLUWQp6PPMM7854YQz7fhfeeVFc8EFf7JDGDBgRXtjQqviHRXtPjj88H3NFFNMYU455dyOqhfu5wh64VJGwB0QQNCZIqUlgKD7pbY9QdfKxOOPv9RmOx2C7se12VoIerPkynPd22+/YZZbbiE7oAsvvMpsvfWObQb33Xff2v+Ud+s2deX7V155sTn44D2N/jN/992Pmj595mgIxK2ga0VdK+sqP/74o9lyy9+YRx99wPzpTxeZXXb5Q3mApjQSBD0lkAmb+eMfdzPXXnu5WWaZ5cyNN9492eqvdo64xzdqm5aY/vDDxDaflXrda/6rdPSIh7abd+/ew9a99947zHrrbWy6dOlifAT9hx9+sJ9bSbJPcSvov/71mmbEiH9WLnn33bfNRhutZj766AMzdOglZqedhtRtbsKE71N/nCyLNn1YdFQHQe+IED8vGgEEvWgZI15vAgi6H6r2BF0t6D/wt9/+QOU/Lgi6H9dmayHozZIrz3V77rmjXdFef/1NzDXX3N7hwPTc+QILzGhX2C6++Bqz5Za/a/eaeoKuCy6//EJz6KF723MiLrjgzx32G1sFBD3/jOt8lBVXXMR2/MADo82SSy7rFcQ777xpjjxyf6MzVvS5WGCBX5mddhpshgz5Y5sVZ+0uOfXUo+05Dyq6CaDnyNdee/1KP99++43dtaJHu9SWYph//gXN7bffZI4++lSz336HtSvo999/lznttGMrO1R0/YEHHmU23HCzdsfSSNB10c03X2sfZ9ENudGj37TtLLnkXHaHwamnnmeOPfYgOybtpjnzzEvMQQftYevMN9+C5o47HjTHHXeIufHGqybbiaMbGuuvv7J55523zN/+9qRtXzdAtH1fZ1doN4P60N9NRx11cjBb5RF0r48FlQpEAEEvULIINRkBBN2PVyNB1+r5jjvubi666Cz7H5aDD5603RZB9+PabC0EvVly5bluhRUWNm++OdbceedD9nC3joq2qC+99Dy22kcfTagczNjoukaCfswxB9rP+yGHHGe0/Z3SlgCCnv+M0MFmv//9VmaVVdawYulTxo59xay77gpWptdYYx17mOl99/3VyuX22+9qzj33ctuMDi7dY49JN7O22GI7+7u2zKtcdNHV9qBUCeuOO25mV8v1b+Lqq69t7r57hK0jeX3kkefMtNNO11DQL7nkHHPUUfvb+hJzrUDrMRSVk0462+yxxx8bDqk9QZc0L7jgpIPx3n//G7u93539ojgXWaSfXT3XYZI6VPKMM44zTz31eEXoJe/rrbeS/XrUqDfsLgAV1+cKK6xit8+rn9VWW9Ku1qtdteXOr5CoP/XUa2b66WfwSUumdRD0TPHSeAsIIOgtgE6X+RBA0P04tyfor776iVlrrQH2PxR33fWoWXHFVRF0P6xN10LQm0ZXigsnTpxg5phj0lsOXnzxwzZb1bUN94svPquMU/9hlhxolXCTTQbaVUL9h7mjUivoavf22/9SkZX2DoDsqO0y/xxBzz+7Q4eeZFe4d9ttb3Paaee3CUDyKOF1ZbbZJh2Ctu22g+xhclrZ1gq3ig5JW221paykayVeK8lLLNHXSvyNN95TWTF/8slHzEYbrW5XifVc+1tvvWFWX30p28bYsZ+bmWbqbd+msNRSk95g4uS43hZ3vSlh+eV/Zes9/PC/TL9+k9rRqv0WW6xj//zGG1823J7fnqDrWnfw6mOPvWiF3Am6zqw477wrKtKtujqLYp55erZZcV9zzf52Vf+eex634q2iQymvvnq4ueKKm+1p9O7xgp133sOceOJQeyNA3PfZZxd700LnARx22An5T4yaHhH0lqeAAFImgKCnDJTmwiGAoPvloj1Bf+ed/9rX2egOuv7D8uSTr5iTTz6SU9z90DZVC0FvCltpLqo+bbl2NVz/Id5hh/8d2ui21+pVTLvuuqX3KqMTdAm+TnN+9923Kvy0kjhs2HWl4ZnmQBD0NGn6taWDzS699Pw2u7jclaus0q+yGq3vffbZz1ZEJa4qOj9l4YUXq3SkQxd1+OKxx55uD03UmQv6DLz11n/aPBeulWWtMN9335N25VifLb3hRG86cWXDDVe1K9Ja1dfqfj1BP/fc08yJJx5uNttsG3P88ZMOdnNFfevGd7Uc1xJpT9C1sj/LLJOeZR8z5h37+kUn6IpbB8hVl3qCfsMNf7aiLfk+88yL7c0KsdO/9S+88IG9fPbZJ70m9e9/f9q4GyD6WmdV7LXXTnaHwi233O+XzAxrIegZwqXplhBA0FuCnU7zIICg+1HuSNDViv6DpP8obbTRFvY/9LxmzY9tM7UQ9Gaoleean3/+2cw666RTmUePfsvMM898lcFptevKKy8xTz/9uP3PvRN0vRv6N79Zsc3qWHtEal+zpudUf/WrRc0OO+xuP+O+h1iVh7rfSBB0P05p1tIjF3r0ot5rBfVc+EcfvW8PkFORoOuGsla8Jd56zafbuq2fu+e2d9xxsH0lm85b0HkNOrehurhV4+HDr7civ/LKi1lpffnlcfazocPeFlqotxVatzJeT9CHDNm+smW+EZMbbrjLvqGhXmlP0L/44nOz8MKTXpX28cc/2DNiJOj1bjioTj1B12GTiy7ax47jvffGGz1OIGE/5pjTzL77Hmpef/1Vs9JKi7abTm3b146EVhcEvdUZoP+0CSDoaROlvWAIIOh+qfARdEnDNtts0ObdyY22wVbf2R83bqKZaqqpbCC8B90vHwi6H6cy13Irg5dfflPl1WjV4z377FPsThYn6NWr7nosRTLRXmn0DHqZmaYxNgQ9DYrJ2nC7RvT4xhNPvDzZK8V0QOJss01pG50k6M+b1Vdf2j7vXSuO7nlwyf4SSyxjBV0iKiGtLttvv7H529/+asX9t7/d3r7iTbtMNt10K7P55tta6ZbManX+4Yefs3JcT9BdO3pn+Sqr1D9LYqWVVjO9ek2fWNBHjLjR6N/u6kPinKBr51ttqSfoqqPD3xS7bkbokEjtCnDvSX/uudH2ETf9fXLuuZfVjXGWWWYzyy67fLKkZlAbQc8AKk22lACC3lL8dJ4lAQTdj66PoKuljz/+yJ6mq7vtKo0E3W2T05386v8oIOh++UDQ/TiVuZb7T7OkRM+Xuptcbsy1gq6bYquuurhdVa9+7rYRIwS9udmDoDfHrTNXffbZJ3aVV+WSS661wlxdagX9q6/+Yw9P078/b7757zZC74RZQq5ntrfbbiN7A0w3wlzReQx9+ky6qey2n+vfvg03/HWbR0H02dQbFrTzRMUJ+llnDTNaoVc56aQjzDnnnGq31O+zzyGJMTRaQdc5FQMHLms/74cffqI9EV6lGUHXafe6ASEJ1/P51TsVvv76v2a++SbdPPjgg28rr5dLPJAcLkDQc4BMF7kSQNBzxU1neRJA0P1o+wq6WtPptTvttLltWIKuQ+PWXns5M++8C5hrr73DbiccMeIvZvfdt5nseVgE3S8fCLofpzLX+ve/vzTLLDOvvRmm1z1deOHVpnfvme2Qtb123313tdt13Qq6vn/ffXea3/1uE1vnnHMus//RdkU/U/1LL73RbtFF0JubPQh6c9w6e9Wf/nSCOf30SW8V0BzebLOtK026M1L0Da2g698gd/hZdV0drrjwwpN2lvztbyPN3HPPWxH/Z599236t8uCD91eeTdchjRJ9vZJMj3X9/vd72X/rFl10cbPUUv3b3Dj7y1+uts9kVwv/Y489aDbddE3bxj/+8YxZcMGFK3G/9NLzdpt9e6WeoOvgOW1D10q3pPrZZ98y00wzrW2mGUHXde7GxaTxP2t3F7gyaNBqZuTIR83eex9sjjjipMobIr788gujGwV9+szR2fSmcj2CngpGGgmIAIIeUDIIJV0CCLofzySCrhbd83luBX3vvXe271PVdj+tPuj1UCraMqftgK4g6H75QND9OJW91l133WZ23nmLyjBXXPHXZvbZ5zRPPfWYPbhK5bjjzrD/cVbRKrr+467PoopW+JZYYmn7HKlkQGXEiH+aX/96TQS9ycmDoDcJrpOXaXu2bj7pYDIVbeteeun+RqvlDz3090rrTtDdWw30A53+rnNT9Llw29Qvu+wv9hodGKeD4yS6ekf6hAkTzAUXTDrMbejQS8xOOw0x7kwISba2o7/33tv2FHe9L13vMderSLt1m9p88sk406/fJFnVoXE6OE07X9y/l+77yy23knnmmSftmxfuv/+pdreHO0HXtTon4r///aqyg00M9G9s//4rVMbfrKD/85/3ma23Xt/o75i77nqkTbaq30MvBttss5P9d16vqBMPPUMfQkHQQ8gCMaRJAEFPkyZtBUUAQfdLhxP06sNq9A+9/tOi51lri1b19IyfTn0dOHBd8/bbb9jnYW+/fdI2Qf0jrnco77HH/m0Om0LQ/fKBoPtxiqGWtrAedtg+FTFxY9bztRIKvU5JclBd9BypTo92Eq+faaXu5JPPse9EVtF5Ev/4x73tniAdA9+kY0TQkxJLr76k8PzzzzBXXnlxm7mtf2/0bPjuu+/bZkVaAqxXhrkbxopEz5vrlWDduk06mVw3ta644iJ70rp7dEv/7ul1Yjo8zpXLLrvAbldXHX2Wevac3q4qq1TfiNYqug6u040A9/o17Xi56KKhRo+luD4U8/rrb2JXpHX6eqPiDn90P9dNN45VSbsAAAeDSURBVG3N1wntu+++z2Rbztv7d1sHws0117R1X8WoxwT0OjidND9o0KQdctXllVdeNAcdtIddtXdFHAYP3s++Vz6EgqCHkAViSJMAgp4mTdoKigCCnl06dIJs9+7d7TuYXdFqxvfff9fmVSzZRVDelhH08ua22ZFJTvSsqFbk5pxzbnsoVUdFW1B1eNy8884f9LOjHY0jpJ8j6GFkQ+/h1g2oOeecy0w//QztBqVVZ/3bpLrtvZ1AK+Bdu3bt8IBF19nIkY+ZQYN+bXekaGeKK5JdrbJrhbu6P90MUMzdu/eoPK4SBs1JUeg5e92caO/vFkm+/k6ZY465JjsXo9VjQdBbnQH6T5sAgp42UdoLhgCCHkwqCCQBAQQ9ASyqQiBHAgh6jrAD6uroow8w3333nRk8eF8z//wL2Ztl2qWi94hr9d5tmQ8o5OhCQdCjS3npB4yglz7F8Q4QQY8390UeOYJe5OwRe5kJIOhlzm79selwuf79F6hsT6+upRXnRx55zsw666RT5imtI4Cgt449PWdDAEHPhiutBkAAQQ8gCYSQmACCnhgZF0AgFwIIei6Yg+tErxu77bYbzL/+NdqunkvM9e5vnQExwwwzBhdvjAEh6DFmvdxjRtDLnd+oR4egR53+wg4eQS9s6gi85AQQ9JInmOEVlgCCXtjUEXgDAgg6U6O0BBD00qa21AND0EudXgZXYAIIeoGTR+ilJoCglzq9UQ4OQY8y7XEMGkGPI89lGyWCXraMMp6yEEDQy5JJxlE2Agh62TLKeBB05kBpCSDopU1tqQeGoJc6vQyuwAQQ9AInj9BLTQBBL3V6oxwcgh5l2uMYNIIeR57LNkoEvWwZZTxlIYCglyWTjKNsBBD0smWU8SDozIHSEkDQS5vaUg8MQS91ehlcgQkg6AVOHqGXmgCCXur0Rjk4BD3KtMcxaAQ9jjyXbZQIetkyynjKQgBBL0smGUfZCCDoZcso40HQmQOlJYCglza1pR4Ygl7q9DK4AhNA0AucPEIvNYH/a99edqIKwiAAd4IOjALGK2rc8gC+/0O4VlyhaLzGCwqOXEzHsHFhSHpD1/+ZuDMnp77qI9QZMNCj6y0ZzkAvWXuN0AZ6jZ7TUhroaY3KkyJgoKc0KUeagIGe1qg8BrozECtgoMdWGx3MQI+uV7iJBQz0ictz69ECBnp0vSXDGegla68R2kCv0XNaSgM9rVF5UgQM9JQm5UgTMNDTGpXHQHcGYgUM9Nhqo4MZ6NH1CjexgIE+cXluPVrAQI+ut2Q4A71k7TVCG+g1ek5LaaCnNSpPioCBntKkHGkCBnpao/IY6M5ArICBHlttdDADPbpe4SYWMNAnLs+tRwsY6NH1lgxnoJesvUZoA71Gz2kpDfS0RuVJETDQU5qUI03AQE9rVB4D3RmIFTDQY6uNDmagR9cr3MQCBvrE5bn1aAEDPbrekuEM9JK11whtoNfoOS2lgZ7WqDwpAgZ6SpNypAkY6GmNymOgOwOxAgZ6bLXRwQz06HqFm1jAQJ+4PLceLWCgR9dbMpyBXrL2GqEN9Bo9p6U00NMalSdFwEBPaVKONAEDPa1ReQx0ZyBWwECPrTY6mIEeXa9wEwsY6BOX59ajBQz06HpLhjPQS9ZeI7SBXqPntJQGelqj8qQIGOgpTcqRJmCgpzUqj4HuDMQKGOix1UYHM9Cj6xVuYgEDfeLy3Hq0gIEeXW/JcAZ6ydprhDbQa/ScltJAT2tUnhQBAz2lSTnSBAz0tEblMdCdgWiBvWeHbXtn2a6tr0XnFC5H4PP+YXuyu2zLzewz++rFUVtsLjybOUc3PkmVl2ev947ayUlrWw+W8Z0KmCHQB/rGRmv3Hi8yAklRXsBAL38EsgH6CFhbrLX1Lf9pZzedka5/k9H/7j7dzAj0nxSHX0/bp7ertnnfCIgvOyDgya/T9u3dUYln8+f303bw8sjL7YBzWyHCxbN55+Gi3X3ke70KnVfIaKBXaLl4xv3nf0f6+Xlr1zeyP5UsXvXU8fsw/318WuLT84uiPhysWh8D/fn0bE59fKNv/uLZvL2zKPMJXX82v7xfteWthWcz+nTPHa5/zezPZ6Vnc+7G3P1lBQz0y0r5d1MLfHyzav130v0hcJUF+tv/G1u1XiL1Z7O/PDv+4fm8ymez+r31H51N/7WTfzvuP+FydubZrH72r3r+/sn5ze1aXzeveifub1zAQB83dAUCBAgQIECAAAECBAgQIDAsYKAPE7oAAQIECBAgQIAAAQIECBAYFzDQxw1dgQABAgQIECBAgAABAgQIDAsY6MOELkCAAAECBAgQIECAAAECBMYFDPRxQ1cgQIAAAQIECBAgQIAAAQLDAgb6MKELECBAgAABAgQIECBAgACBcQEDfdzQFQgQIECAAAECBAgQIECAwLCAgT5M6AIECBAgQIAAAQIECBAgQGBcwEAfN3QFAgQIECBAgAABAgQIECAwLGCgDxO6AAECBAgQIECAAAECBAgQGBcw0McNXYEAAQIECBAgQIAAAQIECAwLGOjDhC5AgAABAgQIECBAgAABAgTGBf4A/mKU0ikhA+MAAAAASUVORK5CYII=;" vertex="1" parent="1">
          <mxGeometry x="460" y="70" width="405.99" height="313.02" as="geometry" />
        </mxCell>
        <mxCell id="DckorlrUe_CT-1jbjkwf-3" value="Android Restore" style="text;strokeColor=none;align=center;fillColor=none;html=1;verticalAlign=middle;whiteSpace=wrap;rounded=0;" vertex="1" parent="1">
          <mxGeometry x="635.01" y="406" width="60" height="30" as="geometry" />
        </mxCell>
        <mxCell id="DckorlrUe_CT-1jbjkwf-4" value="" style="shape=image;verticalLabelPosition=bottom;labelBackgroundColor=default;verticalAlign=top;aspect=fixed;imageAspect=0;image=data:image/png,iVBORw0KGgoAAAANSUhEUgAAA+gAAAMDCAYAAAAxID+lAAAgAElEQVR4XuydBbgcRdaGT0gICUSAECBYkMUXD7a4u7t7suji7u62WIIszuLuLO4QLCwS3IJrgEAg5H++Ymv+yWTuvTP3tlR1v/U8eZLMdFed856q5H59TlV3Gjt27FijQQACEIAABCAAAQhAAAIQgAAEIJArgU4I9Fz5MzgEIAABCEAAAhCAAAQgAAEIQMARQKAzESAAAQhAAAIQgAAEIAABCEAAAgEQQKAHEARMgAAEIAABCEAAAhCAAAQgAAEIINCZAxCAAAQgAAEIQAACEIAABCAAgQAIINADCAImQAACEIAABCAAAQhAAAIQgAAEEOjMAQhAAAIQgAAEIAABCEAAAhCAQAAEEOgBBAETIAABCEAAAhCAAAQgAAEIQAACCHTmAAQgAAEIQAACEIAABCAAAQhAIAACCPQAgoAJEIAABCAAAQhAAAIQgAAEIAABBDpzAAItEBj14xj3jf8dUBDIg8DkU3fNY9jcxtR6Y83lhp+B/0eAdcdUgED2BMq27rInzIixEECgxxIp7MyMwNixZh+/Ncr++MNMf6ZBIC8CnTqZjR41xiadsqv1nbbYQv2nH8bYiHdGWdfunVl3eU04xnUEWHdMBAhkT8Cvu8mm6mpTTFPs/++yp8uIsRFAoMcWMexNncBHw0dZpy6drXtv/oNIHTYDNETgxy9HWY/ena1Pv+LOybde/NGtOdZdQ1OCi1Im8PuvY+yHz0fZdLN2t+49Oqc8Wn7ds+7yY8/I4xMoy7oj9hBoiwACvS1CfF8qAiqtVfZ88hl6lMpvnA2bgH5o+XXkaJth9u5hG9pO6775bLSN/G6M9ehbTP/aiYXbciagdTf6x9E2/WzFnJdffzrafv3VbKKexX3wl/MUYvh2EPjlh9H2x29jCrvu2oGEW0pIAIFewqDjcssEEArMjlAJfPPhjzbrAsV8cCSh8MsvZt16IRRCnX9ltMtn84q67r4a8ee6o2qljLM7XJ+L/mAsXPJYFhIBBHpI0cCW3AlIoP/w7RjrOWUxMya5A8aAdhMoskDXuvv5Z4RCuycHN6ZCoOgCXdVi1pntXKlMHjptNwEEervRcWOBCCDQCxRMXOk4AQR6xxnSQzoEEOjpcKVXCLREAIHO3IBA9gQQ6NkzZ8TwCCDQw4sJFuVIAIGeI3yGbpUAAp0JAoFsCSDQs+XNaBAQAQQ68wACZgh0ZgEEqggg0JkOoRJAoIcaGewqKgEEelEji18hE0CghxwdbMuKAAI9K9KMEwUBBHoUYSqlkQj0UoYdp3MkgEDPET5Dl5YAAr20ocfxKgIIdKYDBMigMwciIIBAjyBImFgoAgj0QoUTZyIhgECPJFCYmSoBBHqqeOk8NgJk0GOLWHnsRaCXJ9Z4GgYBBHoYccCKchFAoJcr3nhbnwACnZkBATLozIEICCDQIwgSJhaKAAK9UOHEmUgIINAjCRRmpkoAgZ4qXjqPjQAZ9NgiVh57EejliTWehkEAgR5GHLCiXAQQ6OWKN96SQWcOQKBNAgj0NhFxQU4EEOg5gWfY0hJAoJc29DieIwEEeo7wGToYAmTQgwkFhoRAAIEeQhSwoR4BBDrzAgLZEkCgZ8ub0SAgAgh05gEEeA86cwAC4xBAoDMhQiWAQA81MthVVAII9KJGFr9CJoBADzk62JYVATLoWZFmnCgIINCjCFMpjUSglzLsOJ0jAQR6jvAZurQEEOilDT2OVxFAoDMdIFBFAIHOdAiVAAI91MhgV1EJINCLGln8CpkAAj3k6GBbVgQQ6FmRZpwoCCDQowhTKY1EoJcy7DidIwEEeo7wGbq0BBDopQ09jpNBZw5AoD4BBDozI1QCCPRQI4NdRSWAQC9qZPErZAII9JCjg21ZESCDnhVpxomCAAI9ijCV0kgEeinDjtM5EkCg5wifoUtLAIFe2tDjOBl05gAEyKAzB+IigECPK15YGz8BBHr8McSD+Agg0OOLGRYnT4AMevJM6TFiAmTQIw5ewU1HoBc8wLgXHAEEenAhwaASEECglyDIuNgmAQR6m4i4oEwEEOhlinZcviLQ44oX1sZPAIEefwzxID4CCPT4YobFyRNAoCfPlB4jJoBAjzh4BTcdgV7wAONecAQQ6MGFBINKQACBXoIg42KbBBDobSLigjIRQKCXKdpx+YpAjyteWBs/AQR6/DHEg/gIINDjixkWJ08AgZ48U3qMmAACPeLgFdx0BHrBA4x7wRFAoAcXEgwqAQEEegmCjIttEkCgt4mIC8pEAIFepmjH5SsCPa54YW38BBDo8ccQD+IjgECPL2ZYnDwBBHryTOkxYgII9IiDV3DTEegFDzDuBUcAgR5cSDCoBAQQ6CUIMi62SQCB3iYiLigTAQR6maIdl68I9LjilYa1P/440iaccEKbaKJubXb/22+/2ffff2u9e0/m7qE1TwCB3jyzpO4YM2aM/fDD9zbZZJMn1WW7+3nvvbft448/tL/+df4g7Gm3I5HciECPJFCYmSoBBHqqeOk8NgII9JYjttBCs1i3bt3siSf+6y566qlH7bjjDrUbbrjXunXrPs6N//3vK7bZZmvYxhtvZYceenzdTpdZZj779ttv7OWXP7ROnTqZv2f11de1E0/8Z2xTJ3V7EeipIw5ygOHDX7eTTz7Snn32SRsx4mNn4yyzzGZ77nmQW1+dO3cex+677rrFzjvvdHv66ccqn6+xxnq2114H2/zzD7Ann3zENt98LZPY79Gjp80886w288x/saWXXsG22GKH8foLEkpGRiHQMwL9v2F+//13GzLkbLvzzpvsmWeecJ9qjq600hru/5H+/WfK1qD/jXbCCYfZaacdazfeeL8ts8yKHbaheg2qsymmmNIWWGBhtwZ33HG3ph6o7bjjJjZs2Ev2wAPPWc+evTpsWwgdINBDiAI25E0AgZ53BBg/KAII9JbDMcUUndwPS++//4O76KGH7rONNlrF/UBRK6hffnmorbDCANtuu53tlFPOq9vpjDP2ciLhiy/G2AQTTOAEyOqrL2HrrruxXXTRtUHNixCMQaCHEIVsbbjyyottzz13rAiVxRZb0r7++it78cXn3Gfvvff9OD+Un3zyUU7Mq80++1w222xzusyfrn/ooRdsnnkWqKxbXSNR8Pnnn1aE/6KLLmGXX36L9ekzRbaOBjoaAj27wGge7rDDJpUHS3PPPa9NN11/Gzr0Gfvqqy/soIOOsX32OTQ7g6pGSlqg+/87/Rr86KMPnI9q8ltrsNGHEXpw/sEH79orr3xk00wzXS58kh4UgZ40UfqLkQACPcaoYXNqBBDozQt03XHllbfaqquuXbkZgZ78FEWgJ8805B6HDXvRlltuQWfiUUedYrvsso+rNFF77bVh9uabr9l6621SceGJJx62ddZZzv39+uvvteWWW7ny3QcfvFf5gd+Lg623Hminnz7YXaMs/Xbbbej61Gf6jmaGQM9uFmj+3X77jU6gXnbZTTbjjLO4wUeP/tWuuOIiW3/9zTItL1c2v0uXLs6GtAR69RrUg7R99/27PfDA3bbUUsvbTTc9UFnvrUXh+++/cw+6p512+uyClfJICPSUAdN9FAQQ6FGECSOzIoBAb59AV2b9ySdfqzzBR6AnP2MR6MkzDbnHNdZY0pX5HnDAUbbffoe3aurYsWNt5ZUXdZny0067wLbZZlCL19cT6Lr4/vvvtM02W9NWWWUtu+qq20JGk5ltCPRsUD/66H9s/fVXdBVaL774fsNCXA+lnnzyUfvyy89dxchqq60zXhb5m2++diXz2kKl/eyqGlHJvH/YJQ9//vknu/bay92Dr+mmm8EWW2wp23//XWy33fazjTbaslWB/vrrr9oDD9xlegg2wwwzujJ1bSVprbW0Bn/99RdbeOFZXUWLf+itfu+882ZbcMFFrFev3nbPPbfZZ5+NsLXW2tD0EE9NZ0zstNPu9sILz5pYzjffQuM8oNM1esjx9ddf2sCBe9jEE09io0ePtttuu970f3Xnzl0cP1Wvde8+cTZBb2UUBHruIcCAAAgg0AMIAiaEQwCB3rxAV1mshMQSSyzr9ugp6/DSS8/biisubNtu+3c79dTz63ZKiXtz8x6B3hyvmK9Wuescc0zlXHj33e/cD+atNf3A/te/TusEzuuvf9bqD9ktiYNHHnnANthgJdN+dWUwaWTQs5oDhx66l11wwZkNl7HrgdRBB+1hF110zjgmav5r7vp94hKwG220aqV83F+sOa5tVBK2EvfajuXPd6ju8IILrrQNN9yiRYF+4YX/dHbUNpXiqyS/pdbSGtT15513mh1++L7ujAntu/fX+v9nfZ/KsOuhhm9ffTXW3n33LVtkkdmsf/+Z7bnn3nJbx9RUQr/AAjO66oRHHnnZPv30E9t009XdQ4vqpvuuv/4edy5Fng2Bnid9xg6FAAI9lEhgRxAEEOgth6GlPej77nuYdekyoZ144uGVH7AQ6MlPZwR68kxD7dGfx6Afyu+88/E2zXz66cdtzTWXcg/Jbr31oVavrycOfvlllG299Xr24IP3NpSxb9OgglxABj2bQG644cr28MP3u7JuZaDbaiqFV0m8BOfVV99h/fpN6zLLmsM6cO2ll953/yfpIFJt29A5KFtttZM7FX7gwM3cWHpwrAfIe+89yC6/fIhtttm2dtRRp7r93Outt4IrG3/ttU9tyimnrivQn3/+aVt11cWdGD7yyJNdWboech122N5O7N9yy4O25JJ/bjmpba0JdPmx5ZbruGqAK664ZZwzIw455Djbeee97J13htvss89t33zzlS299HzuAYQEupqEt8rk77jjUVcJoHb66cfZ8ccfav/857+cn/4a9aVzYnRi/sUXn+seeOge3ZtnQ6DnSZ+xQyGAQA8lEtgRBAEEevsE+r77Hm7rrLOsy6TfddcT1rVrVzLoCc9oBHrCQAPu7qabrrGBAzd3p7Sfd97l41i61Vbr2ieffOQ+k0DRD92tXd+SOJCwWH31ddyhcxLm+iFf4kZvaeCQuD+pIdCzWSTzzju9E7VPP/2G/eUvs1cGlZA95piDKn8/+eRzbcCAxcxv/xgy5Gq3N923QYO2sBtvvNpt0VCptjLMOjhNB6j59tZbb9jii89ZySb7Q9aUcZ5ppr+4yySyzz//DDv//CtaLHHXdhBtC6k9f+WyywbbPvv83XbffX874oiT6gJsTaD7cv8VV1zN/v3vuyoCXdUBb7/9TWVfvO/Ys/MC3W9V2XLLHezMMy9y4lvZcz2cUHXNG2/811ZaaRHn/8MPv1Qp9deee1Xh6N8BjTPppJNlE/w6oyDQc0PPwAERQKAHFAxMyZ8AAr19Av3AA4+2999/xwYM+Iv7geissy52J7xT4p7cnEagJ8cy9J58ufnyy69i1113zzjmKrunDJoEjcTKPfc8VfkhXntrr7nmjlbdqz5BuvrCddbZyFXAVAuk0DmlbR8CPW3Cf/bvBbfmsua0b8omH3HEfm6+q/nXnPntUcOGfeyy574pA3zggbvbcced6R4S77ffLnXfJKJqMLUvv/zD1l13edNedr2mzO8d15sT9AaFs8++xDbffLu6GXRtQZGY1f93E07YtWLDTz/96D5v7W0krQn0a6651HbffbvK21H8tS39X1or0CW0F1xwJvfvwwcfjHT70vVvhi+79/3LYD2kq26qHlB77LFhNuecf80m+HVGQaDnhp6BAyKAQA8oGJiSPwEEessxaK3EXQJdTQft7LrrNi4Tpx9SWhPo/ock/+Sf16y1Pv8R6Pn/+5CVBf5hl9bRq69+Ml7WzO8p9QLd7z2VWHjppQ8qe0/r2et/4F9rrQ1M61bvTlYZrz+xOisfYxgHgZ5NlCRIJRzPOGOIK0WvbXvtNdCuuOJCJ9BVNj7VVH+eru7/7/DXn3fe6Xb44fu4bRrdunWzo446wL0CVK8C9U0CduqpJ3R/HTHiF9M9xx57sOlhmPZ8v//+u7bHHtu7EnefVa89xb26j5b2muugNmXBW1uD1ae4++v23Xdnu/TSC+yYY0535ex+vWormf9/trrPWoGu7zwHVQCoOub66690/y7oALwzzzzB+avtMPW2E2jfug6cU8Y+r4ZAz4s844ZEAIEeUjSwJXcCCPSOCXTdveOOm9gtt1znOmpJoPsfcKrLDxHorU9/BHru/zxkZkB1uanfN1o9eK1A14nM+kFdD8Uuv/xmW331dVu0tbXsXWYORjIQAj2bQOmE8b322slldJ966jXr2nWicQauFug6AM6XpStDPMkkPSrXbrHF2nbvvbe70nQ9cNppp81sr70ONu3d9s2fj+L/79Fr3LQP/d//vqxyjcSpyum1xUSt3mvWFl10dpfZf/PNL6xPn75NgWppDerwtnnm+fNd5o8++orNNdc87RLo2rYy++x9bZZZZnM2Vmfzb731etthh42d+NdDgBAbAj3EqGBT1gQQ6FkTZ7ygCSDQOy7Qv/32G7fHrzqDrpNuv/jiMzv//Ctd6aH2qquscdllV7IbbrjPDYpAR6B37/3/paJB/0ORgXG+GkVi4cILr3GvhvLNrxWfQdfnOuTpgAN2c9UrN954n80993zu8j/++MPOPvsk93opiRsEeuPBQ6A3zqojV+oBk/7PUIm1tlqcccaFlTcX6GGVzl3Q3mpf4v6Pf+xgV111yTgZ95Ejf7CZZvrzbQfay965c2f3yjIJ8WefHW7dunV335166jHuQFN/voOqVSTsJ5usj+lQxumn7+8OaJtqqn4Vl3xGWtlylYqr7b//rnbJJee5bPOxx57hxlNTibtOmW8tA11vDWpv+DbbrO8Etd8/rv7ak0HXfb5MX3++447HbLHFlnT2+Yd7+nP1vnv9XW+DmHrqaToSykTuRaAngpFOIieAQI88gJifLAEEess8Gylx93c/9tiDbt+bz6APHnyWHXLInjbvvAva5JP3cafoqkl4rLfepu7PCPTW5zIZ9GTXeui96XCn7bffyL0DWU0CW2Wz3377tSkLplZ9yrveobzBBivb008/5r6ToNcP288++4Q7yVrZNAkXrT2dD1GvvDZ0Jlnbh0DPjrj2gUsoq7Rc4lYPk7T14sknH3HzV80LdL0bfKGF/tw/rcPYNM+vvvoS99qw6nmtPej/+tf5bu1sssnW7pwUvc5NzYtTf8K5ssyjRo1y12hcvYpN70Dv3XtS07vOl1pqHnffHnscYIcffqJVP4jWQ7GtttrRCXPtXV9vvU3shBPObhGeF93yc4455nb7xf1r3lQWf+65l1Wy8u0V6Hq/uV4f51+tVm3MWWedWDl8b5VV1nL/jgwd+oz7t8aXwmcX+fFHQqDnSZ+xQyGAQA8lEtgRBAEEesthqBXo/iCr/fc/0vbf/4jxbtT+P2U19DobnSCrw360j9A3lR3qhx2feUCgt74EEOhB/BORqRH6gV8HX/3znyeP855mCYINN9zcdtppD+vff6aKTb/99pt7nZJEiYSObxIfOjhLWUG/bvV6Jb1+itYyAQR6trNDGXRVgeg1YdVNAnKHHXa1ddfdpHK+wn//+7Ltvvv29sorL1QuVTm7/j/S+83VlH0/9dSjnSj360EPic866yKbZ54F3DU6v2HHHTd1/ajEXvu0JW51vfay77ff4e46vZ/87LNPdm840JsO1D788H1nr7L7vqn/3Xffr/LguR5Bvwb9dxLRs802l3urgn9g7b9r6/9ZX+5fux9f9+u0du2/18OJ6qaqmiuvvMi9b91z0cMCnUuhffjV1QPZzoA/R0Og50GdMUMjgEAPLSLYkysBBHpy+FW2+N1337hshG+jRv1s33//nfsBoFOnP0/SpTVGAIHeGKeiXvXdd9+6ElQJiEYOcFJGTvtrp59+xspDsKKyScsvBHpaZFvvV9UjH374njsdXae0+4e49e5SSbmy2Spl1wFn9ZoedGk9KBveyNpRn/3793TbRd544/NKl1pPX3zxuVuD1e2XX0bZ559/9r8T3f98OBBC+/rrL61Xr0krDyzq2aR/U8Q5pFcrItBDmD3YkDcBBHreEWD8oAgg0IMKB8ZUEUCgMx0gkC0BBHq2vPMYTZlzHSanTLlOiFe1l7aQnHTSEa40/v77n83DrFKPiUAvdfhx/n8EEOhMBQhUi6DPRtsP346xnlP+eaAMDQKhEECghxIJ7CgLAQR68SN9xhnH23HHHTKeo8qe33XX4zbzzLMWH0JgHiLQAwsI5uRCAIGeC3YGDZUAGfRQI4NdCHTmAASyJYBAz5Z3XqO9997b9vjjD9nw4a+7kvqlllrevQWhpZL5vOwsy7gI9LJEGj9bI4BAZ35AoIoAAp3pECoBBHqokcGuohJAoBc1svgVMgEEesjRwbasCCDQsyLNOFEQQKBHEaZSGolAL2XYcTpHAgj0HOEzdGkJINBLG3ocryKAQGc6QIAMOnMgAgII9AiChImFIoBAL1Q4cSYSAgj0SAKFmakSQKCnipfOYyNABj22iJXHXgR6eWKNp2EQQKCHEQesKBcBBHq54o239Qkg0JkZECCDzhyIgAACPYIgYWKhCCDQCxVOnImEAAI9kkBhZqoEEOip4qXz2AiQQY8tYuWxF4FenljjaRgEEOhhxAErykUAgV6ueOMtGXTmAATaJIBAbxMRF+REAIGeE3iGLS0BBHppQ4/jORJAoOcIn6GDIUAGPZhQYEgIBBDoIUQBG+oRQKAzLyCQLQEEera8GQ0CIoBAZx5AwAyBziyAQBUBBDrTIVQCCPRQI4NdRSWAQC9qZPErZAII9JCjg21ZEUCgZ0WacaIggECPIkylNBKBXsqw43SOBBDoOcJn6NISQKCXNvQ4XkUAgc50gAAZdOZABAQQ6BEECRMLRQCBXqhw4kwkBBDokQQKM1MlgEBPFS+dx0aADHpsESuPvQj08sQaT8MggEAPIw5YUS4CCPRyxRtv6xNAoDMzIEAGnTkQAQEEegRBwsRCEUCgFyqcOBMJAQR6JIHCzFQJINBTxUvnsREggx5bxMpjLwK9PLHG0zAIINDDiANWlIsAAr1c8cZbMujMAQi0SQCB3iYiLsiJAAI9J/AMW1oCCPTShh7HcySAQM8RPkMHQ4AMejChwJAQCCDQQ4gCNtQjgEBnXkAgWwII9Gx5MxoERACBzjyAAO9BZw5AYBwCCHQmRKgEEOihRga7ikoAgV7UyOJXyAQQ6CFHB9uyIkAGPSvSjBMFAQR6FGEqpZEI9FKGHadzJIBAzxE+Q5eWAAK9tKHH8SoCCHSmAwSqCCDQmQ6hEkCghxoZ7CoqAQR6USOLXyETQKCHHB1sy4oAAj0r0owTBQEEehRhKqWRCPRShh2ncySAQM8RPkOXlgACvbShx3Ey6MwBCNQngEBnZoRKAIEeamSwq6gEEOhFjSx+hUwAgR5ydLAtKwJk0LMizThREECgRxGmUhpZdIE+apRZt15dSxlbnA6TAAI9zLhgVbEJINCLHV+8a4wAAr0xTlxVEgKjfhxjX3w82nr07V4Sj3EzBgJFFwo/jxxjX37CuothLpbJxlHfj7axv4+x6Wcr5v8HX40YbT9+P8Z6TllM/8o0V4vkq9bdRBOZ9Z2WB7ZFiiu+NEcAgd4cL64uAYG3XvzRuvfu6n7RIBACgV9++PMHlimmKeac1IOxj98aZb2m6m5dJuocAnJsgICN/GKU9Zy0s/Xpx7pjOkAgKwI/fvnnupt86mKuu6w4Mk7cBBDocccP61Mg8NMPY2zEO6Nsksm62h9/mE3YDcGQAma6bJCAsgkTTGA2w+zFznIpm/ft56Nt4km72tixrLsGpweXpURAD8W07oqaPffYVLny3Resu5SmEd02QUCVYvo1cc/OZM+b4MalxSSAQC9mXPEqAQISDMrs0dpH4NdRf7gbJ+o+Qfs64C5HQNk7/cBShqb1pgdkrLv2R5t113521XeqWqV7j3KsO529oofRrLv2zx3WXfvZlXXdJUOMXopKAIFe1MjiFwRyJqCSZf3AJ4FJqVrOwWD40hDQFh216WbtXhqBWZrg4miwBFh3wYYGwyAQJQEEepRhw2gIhE8AgR5+jLCweAQQCsWLKR6FT4B1F36MsBACMRFAoMcULWyFQEQEEOgRBQtTC0MAoVCYUOJIRARYdxEFC1MhEAEBBHoEQcJECMRIAIEeY9SwOXYCCIXYI4j9MRJg3cUYNWyGQLgEEOjhxgbLIBA1AQR61OHD+EgJIBQiDRxmR02AdRd1+DAeAsERQKAHFxIMgkAxCCDQixFHvIiLAEIhrnhhbTEIsO6KEUe8gEAoBBDooUQCOyBQMAII9IIFFHeiIIBQiCJMGFkwAqy7ggUUdyCQMwEEes4BYHgIFJUAAr2okcWvkAkgFEKODrYVlQDrrqiRxS8I5EMAgZ4Pd0aFQOEJINALH2IcDJAAQiHAoGBS4Qmw7gofYhyEQKYEEOiZ4mYwCJSHAAK9PLHG03AIIBTCiQWWlIcA6648scZTCGRBAIGeBWXGgEAJCSDQSxh0XM6dAEIh9xBgQAkJsO5KGHRchkCKBBDoKcKlawiUmQACvczRx/e8CCAU8iLPuGUmwLorc/TxHQLJE0CgJ8+UHiEAATNDoDMNIJA9AYRC9swZEQKsO+YABCCQJAEEepI06QsCEKgQQKAzGSCQPQGEQvbMGRECrDvmAAQgkCQBBHqSNOkLAhBAoDMHIJAjAYRCjvAZurQEWHelDT2OQyAVAgj0VLDSKQQgQAadOQCB7AkgFLJnzogQYN0xByAAgSQJINCTpElfEIAAGXTmAARyJIBQyBE+Q5eWAOuutKHHcQikQgCBngpWOoUABMigMwcgkD0BhEL2zBkRAqw75gAEIJAkAQR6kjTpCwIQIIPOHIBAjgQQCjnCZ+jSEmDdlTb0OA6BVAgg0FPBSqcQgAAZdOYABLIngFDInjkjQoB1xxyAAASSJIBAT5ImfUEAAmTQmb8C+AYAACAASURBVAMQyJEAQiFH+AxdWgKsu9KGHschkAoBBHoqWOkUAhAgg84cgED2BBAK2TNnRAiw7pgDEIBAkgQQ6EnSpC8IQIAMOnMAAjkSQCjkCJ+hS0uAdVfa0OM4BFIhgEBPBSudQgACZNCZAxDIngBCIXvmjAgB1h1zAAIQSJIAAj1JmvQFATP7/fff7YcffrBevXpZly5dCsPkiy++sA8++MBmnHFG69u3b5t+dVSgNztemwYlcMH333/vGPTp08f69etnE0wwwXi9vvbaa/bTTz/ZQgstVPf7BMygCwi0SAChwOSAQPYEWHfZM2dECBSZAAK9yNHFt0wJPPzww3bVVVfZiy++WBl3ueWWs+22287mmmuuTG3RYGPHjrVOnTolNu5NN91kxx9/vB1++OG29tprt9lvRwV6s+O1aVAHL7jiiivsrLPOqvRy1113Wffu3W3LLbe0eeaZx4499lj3neI9bNgwe/zxx61bt24dHJXbIdAcAYRCc7y4GgJJEGDdJUGRPiAAAU8Agc5cgEACBIYMGWL6pTbzzDO7LPNnn31myqZKtM8+++wJjNJ4F5dffrldeeWVdu+99yYm0psVzEUS6P/9739tm222sWmnndYGDRpkk08+uS222GL2+eef2xprrOE+v/XWWxHojU9RrkyJAEIhJbB0C4FWCLDumB4QgECSBBDoSdKkr1ISGDp0qBNtauecc44Tbr6NGDHCpplmmsy5bLzxxvbuu+/ac889h0BPgP4FF1xgF110kZ144om24oorjtOjHsT06NHD/VIjg54AcLpoNwGEQrvRcSME2k2AdddudNwIAQjUIYBAZ1pAoAMEVEauzKoy5QcffLCtv/76LfYmsf7QQw/Z3HPP7cTco48+al9++aWtvvrqrkRa7Z133rEnnnjCPvnkEyfsF1544XHK4zWeRPdLL73ksrfKzK+yyirWu3fvyrjK5J522mn2888/25577ukEukrsF1hggco1bY1TzwmfQd95551dafeHH35oM8wwg/3tb39zFQPV7c0337T77nrCPv7oI5tmuiltvQ3XcNfWtpEjR9pjjz3m/P7tt9+cP0sttZTbv18vYz98+HDn/2STTea4vfLKK66cfOmll7bpp5++0v3TTz/t+lx11VXdfvEnn3zS3nvvPRswYIDjq/3t/fv3d2NNN910LcZszJgx9u9//9vuvvtue+ONN2zbbbd1Y2+yySb28ccfu77UlEFfdtll2xTozz77rL3wwgvujAIx0z1TTjllB2Ygt0JgXAIIBWYEBLInwLrLnjkjQqDIBBDoRY4uvqVOQAJ7tdVWs4knntjuu+++VvccSzTutttuNt9889nLL79cse3mm2924vLaa6+1U045ZTybd9hhB5MoVrvwwgtt8ODB411zyCGH2Hrrrec+X3nlle2bb74Z55qBAweafqk1Mk49cF4w1/vuiCOOsLXWWst95f2svU7f6zrfJFQPPPDA8WzVFoHrrrtuPIEuUa393vLtkksusXnnndcuvvhiO//88+2MM85wYtu3E044wW688UZX5j/HHHO4hyeKT7128skn2/LLL1/3u9GjR7sHELVNDxUeeOABO+qoo9xXyyyzjHsoolYvgy6hL9/vueee8frSfbqfBoEkCCAUkqBIHxBojgDrrjleXA0BCLROAIHODIFABwgok73jjju6E7vrCefqrquF6y677GJbbLGFOxF8ttlmc1lgCTtlYv/xj3+4TK+yraeffrrL9qrEWp/peonSrbbayiaddFLTwXQnnXSSe0Agwdi1a1eTGNxss81ciftTTz3lThJXFl2/NzpOPSReoKvEW8J6wgkntDvvvNMkcNUkiJWV1in2hx56qC2z2Fo25eQz2KffDLezzzvJCevLLrvMVRAog7zmmmu6LP8BBxzg/qzqAGW6tb97wQUXHEeg66GDOCuLffTRR7vsuVqzAn2nnXZyFQ+y8fbbb3eiWuzkR8+ePevOhG+//daJa9mmBwOKkWz89ddf7a233nJxa0ug+wPmJPb1wEUPZO6//373QEbj33bbbS6eNAh0lABCoaMEuR8CzRNg3TXPjDsgAIGWCSDQmR0Q6AABHcKm7LUEo4Rja80LdAkylbp37ty5crlK0XXqtwS5yrV986J46623tj322GOc7iVuf/nlF9t1112dUPSZeF3U0h709oxTa0vtKe56MKHM/uabb2577713xUYdEjfyu19swkl+sVvuusqVivtMuw6xO/vss112Wr+39kDgsMMOs2eeecZlwKurCdoj0P1DBD+eHiQoq63T6fUQoKV20EEHOUFdzVjXav+5Hi60JtD1wGTRRRd1XWusKaaYojKM7/fMM8+0JZdcsgMzkVsh8CcBhAIzAQLZE2DdZc+cESFQZAII9CJHF99SJ+BFt8SVRFZrzV+7wQYbmIRZdfNl6dqPrMy0b6NGjXKZ55VWWslUtq2m13tJFGufenXzZd/6rCWB3sw4tb60dIq7stoqPZcIPffcc91t2ht+6sln2Wtv/H8pvz7ffffdXQZbIl9+tLZv348nJqoiUJOwr35lXbMZ9FqBLsF93HHHmSoatt9++xbD1xGB/tFHH1W2Hyj7Xt2UndeDFvWveUGDQEcJIBQ6SpD7IdA8AdZd88y4AwIQaJkAAp3ZAYEOENBBaToYTiLyjjvucGXkLTUv0FWq/fe//71yWXWG1e81r+1jzjnndNlmlbGrvFwl1joATQe/ab+2Dk5rS6A3M049H1oS6Dosbd1113V76yWY/d/Vx1KLr2xLLbWkvfvhay6D7gW6sv7Kivs94q2Np+90iJ7K87WfXGXyvvqgowJdh78pQ1+vQqHapo4IdJ03oMy/5khLIlx74GeaaaYOzERuhcCfBBAKzAQIZE+AdZc9c0aEQJEJINCLHF18S52ATh7Xe7CV5T711FMrJ3nXG7glga5rJfIl9lVGrVPC6zVl03ViuzKu119/fUXQqSz+6quvrivQVTbfrVu3SneNjNMStJYEun/N3Nprr+0y476MfrdBB9gSA1azPv262suvP2H77bdfRaDrdWU33HBDq8z8eKpO0F5t/dJn++yzj9tjr6aHEuedd954JeotHRJXm0H3769vK4PdEYHuDxL0h9+lPikZoNQEEAqlDj/O50SAdZcTeIaFQEEJINALGljcyo6AMtg6KE1Zbb0HXYe+qf3xxx+VQ9EWWWSRyunmtRl0XauD3iS69fouCVCfiZcYV9O+dZV5a6+7XlcmoaqmrLiulxCX2NThamrKVOuAOGWYldn2rZFx2hLo1WJWPiqj/+CDD1YOb1tnnXVc+f1lF9xmXTv3cgL9tnuudmxUOSD/tZ9c5e0qV5fd/iGC/Pn6669dtrn2gUD1wXI64K1fv36mV8odc8wxroRcZwGoffXVV24/vB6a1J7iXi3Q9b0y/2J8zTXX2KyzztripGlGoCsejzzyyDjx8A9Gave6S7z37ds3u8nKSIUngFAofIhxMEACrLsAg4JJEIiYAAI94uBhehgE9CoulWy/+OKLziBlfCW6VNqsk9QlqCUMVdKt16zVE+gSnxtuuKETlRL6Eo461VwCVPvPlX3W35Wtl1DfdNNNTRlZZdxV3q4mG3SiuJr2dyubrT3Pukdl5yrlVha+rXHaEuj6XiXhk0wyiXsw4EvPtT9cDxYkmGX3gAUXtwX+uoR99Nmbds99t7tutU9dQl2+6ER1MRIfvapOn6mEX6ep68FCvYy9F/Z+z79Otfdl49pfL+4qW/evmasV6BLh2hqg96/rwYrEeSMH/DUj0L2NiuP+++9vOvXel7mLgcr0V1hhBfcee1URtPaatzBmOFbERAChEFO0sLUoBFh3RYkkfkAgDAII9DDigBWRE9Bru1RqLcHls95ySeJaGVWd3K3Xpukwsup3kle7PWLECCfWJHp9k5iTGPYnjL/55pvuIDa98ktNe7OVLddp5BLuzz//vPtcNmhcL971mT+BvJFx6oVDglkH4S2xxBLuwYBvypjr9HYJdrXvvvvOsfBZ/immmNIOOeQg95BCvumVY9pTLxsl1iWUfVOlgA640158iXxlnKvfsa7rfHWAf3+4XpFW/X51CXY9iNBDilqBLtHsxbvG2mijjdxYXbp0aXUG+tPea09x91UN2kPuXzenk/XFSVUFehjgT7bXe99V2q+HNr4tvvjibvzqg+8iXwqYnzMBhELOAWD4UhJg3ZUy7DgNgdQIINBTQ0vHZSUg0aas+jTTTNPqoXEt8dH7tX2Zd0vCUWXcPXr0GKc0XOOq7Lu66To1CdPaA+waGae6L2X5dY+y1BKhOoF8qqmmatHH4S9/aT+N/M36/2UKm3zqrq4rlXT37t3bva/dN5XJK5sswdyrVy/3zvZmm0rj5b8ehFSfgu/7UTm9Mtt6SKA9/rJffrRnrEZtU0WAMvXyqZZjFuM3aifXFYsAQqFY8cSbOAiw7uKIE1ZCIBYCCPRYIoWdEIiMgN6DPurHMW4PuhfoeblQLdD79++flxmMC4HUCSAUUkfMABAYjwDrjkkBAQgkSQCBniRN+oIABCoEEOhMBghkTwChkD1zRoQA6445AAEIJEkAgZ4kTfqCAASCFOjaD//666+7Q/pUYk+DQFEJIBSKGln8CpkA6y7k6GAbBOIjgECPL2ZYDIEoCISUQY8CGEZCIAECCIUEINIFBJokwLprEhiXQwACrRJAoDNBIACBVAgg0FPBSqcQaJUAQoEJAoHsCbDusmfOiBAoMgEEepGji28QyJEAAj1H+AxdWgIIhdKGHsdzJMC6yxE+Q0OggAQQ6AUMKi5BIAQCCPQQooANZSOAUChbxPE3BAKsuxCigA0QKA4BBHpxYoknEAiKAAI9qHBgTEkIIBRKEmjcDIoA6y6ocGAMBKIngECPPoQ4AIEwCSDQw4wLVhWbAEKh2PHFuzAJsO7CjAtWQSBWAgj0WCOH3RAInAACPfAAYV4hCSAUChlWnAqcAOsu8ABhHgQiI4BAjyxgmAuBWAikKdCHDh1qCy20UCwosBMCmRFAKGSGmoEgUCHAumMyQAACSRJAoCdJk74gAIEKgbYEukS2b/pz9d/1ee3f20JbLdhr/4yYb4se3xeFAEKhKJHEj5gIsO5iiha2QiB8Agj08GOEhRCIkoAX6O+PGGbvfTKsIrjbEt6tiel639UK/ZZg6V5/f/Wfo4SL0RBogQBCgakBgewJsO6yZ86IECgyAQR6kaOLbxDIkYAX6DfefqndcNulFUtaEslpZLmHDBnixq2XofcifeDAgTlSYmgIJEsAoZAsT3qDQCMEWHeNUOIaCECgUQII9EZJcR0EINAUgeoSd2XQ0xDgTRn0v4u9aPe/62Mv0hHr7SHKPSERQCiEFA1sKQsB1l1ZIo2fEMiGAAI9G86MAoHSEWhrD3oIQFoS6wj1EKKDDe0hgFBoDzXugUDHCLDuOsaPuyEAgXEJINCZERCAQCoEYhDo1Y5LrHvBLoGOSE9lWtBpygQQCikDpnsI1CHAumNaQAACSRJAoCdJk74gAIEKgdgEujccoc4kjpkAQiHm6GF7rARYd7FGDrshECYBBHqYccEqCERPIFaBLvDVIn3w4MHB7J+PflLgQOoEEAqpI2YACIxHgHXHpIAABJIkgEBPkiZ9QQAC0WfQvQM6+X3QoEHur4h0JnYsBBAKsUQKO4tEgHVXpGjiCwTyJ4BAzz8GWACBQhKIOYNeK9J1Ar1EOg0CoRNAKIQeIewrIgHWXRGjik8QyI8AAj0/9owMgUITKIJAV4B8uTtZ9EJP18I4h1AoTChxJCICrLuIgoWpEIiAAAI9giBhIgRiJFAUgS72AwYMcPvQyaLHOBPLZTNCoVzxxtswCLDuwogDVkCgKAQQ6EWJJH5AIDACRRLo2ouuPelk0QObZJgzHgGEApMCAtkTYN1lz5wRIVBkAgj0IkcX3yCQI4EiCXRf5v7888/nSJShIdA2AYRC24y4AgJJE2DdJU2U/iBQbgII9HLHH+8hkBqBIgl0n0FHoKc2Xeg4IQIIhYRA0g0EmiDAumsCFpdCAAJtEkCgt4mICyAAgfYQKJJAZw96e2YA9+RBAKGQB3XGLDsB1l3ZZwD+QyBZAgj0ZHnSGwQg8D8CRRHovrx94MCBpl80CIRMAKEQcnSwragEWHdFjSx+QSAfAgj0fLgzKgQKT6AIAl0Hw6m8nRPcCz9dC+MgQqEwocSRiAiw7iIKFqZCIAICCPQIgoSJEIiRQBEEOqe3xzjzym0zQqHc8cf7fAiw7vLhzqgQKCoBBHpRI4tfEMiZQLMC/eeff7aJJ544Z6v/HN5nzvVnStuDCAlGNEgAodAgKC6DQIIEWHcJwqQrCEDAEOhMAghAIBUCjQh0CWH9evjhh+3yyy+3Ll26pGJLM536Pee6h/eeN0OOa0MggFAIIQrYUDYCrLuyRRx/IZAuAQR6unzpHQKlJdCSQJcglwgeOXKkDR8+3PFR5vzRRx/NlZW3S79rz7ky5/qdBoGYCCAUYooWthaFAOuuKJHEDwiEQQCBHkYcsAIChSNQLdDf+2SYE+USvz179nTivLrNMMMMdtNNN2XOoFqU+8Epac88DAyYIAGEQoIw6QoCDRJg3TUIissgAIGGCCDQG8LERRCAQDMEJHy/+Wy0XXDRWfbBR2/XFeXV/a288sp2/PHHNzNEu6/1olwd6M9qZMzbjZMbAyOAUAgsIJhTCgKsu1KEGSchkBkBBHpmqBkIAuUhUL2PuxGvd955Z9thhx0aubSpa7wAlz3Vgtx3gjBvCicXR0AAoRBBkDCxcARYd4ULKQ5BIFcCCPRc8TM4BIpL4P47n7KDjti9KQdr93w3swfci/F6Qlyf+b5Uwl7996YM5GIIBE4AoRB4gDCvkARYd4UMK05BIDcCCPTc0DMwBIpNwO9Bv+uhK+yKqy9u1dlqIV4ttNtDyPfV0u/t6ZN7IBALAYRCLJHCziIRYN0VKZr4AoH8CSDQ848BFkCgkASqD4m74bZL3SFx9VojJ7i3JtqbybIXEjROQaCKAEKB6QCB7Amw7rJnzogQKDIBBHqRo4tvEMiRQL3XrG2++eb26aefjnOKe14nuOeIhqEhkBoBhEJqaOkYAi0SYN0xOSAAgSQJINCTpElfEIBAhUBL70GvPUAuyxPcCQ8Eik4AoVD0CONfiARYdyFGBZsgEC8BBHq8scNyCARNoCWBLqOrRXpaJ7gHDQfjIJASAYRCSmDpFgKtEGDdMT0gAIEkCSDQk6RJXxCAQJsZ9GpEr776qvXr18/69OkDOQhAIAECCIUEINIFBJokwLprEhiXQwACrRJAoDNBIACBVAi0lkFPZUA6hQAEDKHAJIBA9gRYd9kzZ0QIFJkAAr3I0cU3CORIAIGeI3yGLi0BhEJpQ4/jORJg3eUIn6EhUEACCPQCBhWXIBACAQR6CFHAhrIRQCiULeL4GwIB1l0IUcAGCBSHAAK9OLHEEwgERQCBHlQ4MKYkBBAKJQk0bgZFgHUXVDgwBgLRE0CgRx9CHIBAmAQQ6GHGBauKTQChUOz44l2YBFh3YcYFqyAQKwEEeqyRw24IBE4AgR54gDCvkAQQCoUMK04FToB1F3iAMA8CkRFAoEcWMMyFQCwEEOixRAo7i0QAoVCkaOJLLARYd7FECjshEAcBBHocccJKCERHAIEeXcgwuAAEEAoFCCIuREeAdRddyDAYAkETQKAHHR6Mg0C8BBDo8cYOy+MlgFCIN3ZYHi8B1l28scNyCIRIAIEeYlSwCQIFIIBAL0AQcSE6AgiF6EKGwQUgwLorQBBxAQIBEUCgBxQMTIFAkQgg0IsUTXyJhQBCIZZIYWeRCLDuihRNfIFA/gQQ6PnHAAsgUEgCCPRChhWnAieAUAg8QJhXSAKsu0KGFacgkBsBBHpu6BkYAsUmgEAvdnzxLkwCCIUw44JVxSbAuit2fPEOAlkTQKBnTZzxIFASAgj0kgQaN4MigFAIKhwYUxICrLuSBBo3IZARAQR6RqAZBgJlI4BAL1vE8TcEAgiFEKKADWUjwLorW8TxFwLpEkCgp8uX3iFQWgII9NKGHsdzJIBQyBE+Q5eWAOuutKHHcQikQgCBngpWOoUABBDozAEIZE8AoZA9c0aEAOuOOQABCCRJAIGeJE36ggAEKgQQ6EwGCGRPAKGQPXNGhADrjjkAAQgkSQCBniRN+oIABBDozAEI5EgAoZAjfIYuLQHWXWlDj+MQSIUAAj0VrHQKAQiQQWcOQCB7AgiF7JkzIgRYd8wBCEAgSQII9CRp0hcEIEAGnTkAgRwJIBRyhM/QpSXAuitt6HEcAqkQQKCngpVOIQABMujMAQhkTwChkD1zRoQA6445AAEIJEkAgZ4kTfqCAATIoDMHIJAjAYRCjvAZurQEWHelDT2OQyAVAgj0VLDSKQQgQAadOQCB7AkgFLJnzogQYN0xByAAgSQJINCTpElfEIAAGXTmAARyJIBQyBE+Q5eWAOuutKHHcQikQgCBngpWOoUABMigMwcgkD0BhEL2zBkRAqw75gAEIJAkAQR6kjTpCwIQIIPOHIBAjgQQCjnCZ+jSEmDdlTb0OA6BVAgg0FPBSqcQgAAZdOYABLIngFDInjkjQoB1xxyAAASSJIBAT5ImfUEAAmTQmQMQyJEAQiFH+AxdWgKsu9KGHschkAoBBHoqWOkUAukR+OGHH6xTp07Ws2fPcQZ58cUX3efzzz9/eoNX9fz222/bt99+a/PMM49169ZtvDEbyaDLlwknnNC6d++eic0MAoGiE0AoFD3C+BciAdZdiFHBJgjESwCBHm/ssLxEBCRkzznnHHv88cftiy++cJ7PPPPMtvzyy9vf//539/ell17aCeX77rsvEzIHH3ywG+vGG2+0/v37NyXQb7vtNufPN9984+6beOKJbeDAgbblllu6v48cOdL9WeL/2GOPTdyfV155xfbdd1835oYbbph4/3QIgbwIIBTyIs+4ZSbAuitz9PEdAskTQKAnz5QeIZAogQ8//NB23313++STT5yQXXDBBe2PP/6wl156yRZeeGE77bTTohLo9957rx1yyCEVm7t06WJPP/20bbzxxrbbbru5zz///HNbY401bNppp7Vbb701UZ7qTA8W9IBBY+6///6J90+HEMiLAEIhL/KMW2YCrLsyRx/fIZA8AQR68kzpEQKJEthpp51M5evKkB9//PGVcvLRo0ebMutTTDFFVALd+yNfVl55ZWf7Tz/9ZPJnsskmq7D77LPPrEePHu5Xa23MmDHWuXPnppm///77Nv3007fr3qYH4wYIZEQAoZARaIaBQBUB1h3TAQIQSJIAAj1JmvQFgYQJPPnkk7bHHnvY5JNPbnfccYd17dq1xRF8ifull15qDz/8sCnzrjL4tddee7w94iot/89//mPvvPOO63vOOee0JZdc0u1hr24fffSRPfvss/buu+86oTz33HPb3/72N1PWu16J+2OPPebGnWOOOWyqXnPZqB/HWJ9+XW3yqf/f7vXXX99dc9ddd9mUU045nj8Szk888YT7XBn0ZZddtnLNsGHD3Hd6MLHQQgvZ119/7bioXL5Xr152880321/+8hebaqqp7KGHHnJ2q4911lnHevfu7fqRP2+99Zb7s6oR5PuPP/7oMvUrrbSSK7vXGOpbfiiT354HAAlPBbqDQEMEEAoNYeIiCCRKgHWXKE46g0DpCSDQSz8FABAygZNOOsmuv/5623PPPSv7s1uyVwL9559/Hu/rWWed1S6//HJ3GJvaCy+84PqrvXbRRRe1008/3SaaaCJ33XXXXWcnn3zyeP1tvvnmtvfee48n0FWmrhJ1ie4rr7zSfv66e12BfuKJJ9oNN9xg6ucf//jHeOL39ttvt6OOOsqNu8wyy1RK+K+44go766yzxrNnvvnms1NPPdVl38VAv48aNaqyv103yKabbrrJPahQ3xpDbb/99rNNNtnECXmVu6uvl19+eZwxVlxxRZPNNAjEQAChEEOUsLFoBFh3RYso/kAgXwII9Hz5MzoEWiWw884723PPPWdDhgxx2d7WmhfoEr7bbrutffnll3bMMcfYG2+84X5fbbXVXOZZh6IpS3zAAQeYxOd7771nF154oRtn0KBBphJ0idQddtjBZdd1SJvG1r3Keq+yyirWt2/fcQS67Npqq62c6JewV+a+pVPcX3vtNXewna7Vw4Ndd93VllhiiUr2/pdffnEZ7u22264i0EeMGOEqAdTEYvbZZ7fBgwfb1VdfbZtuuqk78E2tmoHu/+qrr9xDBm0ROOKII2yttdZyB9Ap6669+7UCXX0cfvjhjsurr75qhx56qGOlzLzK4WkQCJ0AQiH0CGFfEQmw7ooYVXyCQH4EEOj5sWdkCLRJYPXVV3entiv7O8MMM7Qp0HXBo48+WrnulltucQJ7m222cQfNXXXVVXbGGWfYFltsYXvttVflOp9BVkm3st8qq/fl9VtvvXXdcX2J+7/+9S8nflW2fvbZZ7sSeLXWXrP28ccf24EHHugeHqgtt9xyLrOtQ/DUtP98zTXXrAj0Bx54wF2vz4488kh3jV7xppJ0Zcf14MAL9FoGjzzyiO2zzz5O8OthgJo/qK5WoIv30UcfXfFXFQV6CFDtV5tB4wII5EgAoZAjfIYuLQHWXWlDj+MQSIUAAj0VrHQKgWQISFRq3/Vll13m9n+31uq9Zk0CWK8r075vCWqJW2WPJYSrD2RTv/6UeAl8Hd6mzLHPhtcb1wt0CWQ9RFCf99xzT0Vkt/UedJ1Erz3rEsEaW9l0iWHtg68V6CrL1yvR5KOuV/NZdWX5/avl6jFQJlwVBRtssIEddNBBTQl0X1ZffaBdMpGlFwikQwChkA5XeoVAawRYd8wPCEAgSQII9CRp0hcEEiagcmtlh5Vd1mFlzQr0N99802XLQcBvIwAAIABJREFUvUBXBvmZZ55x5eI6PK22TTrppLbuuuua9qOrPf/88y0O6QW6LtD7yvUgwe9P12dtCXTfsU5w130S6f6d6rUC/ddff3Vl8GqHHXaYG++SSy5xDwR0AJw+U6sn0F9//XVXft8ega4HBnoggEBPeGLTXWoEEAqpoaVjCLRIgHXH5IAABJIkgEBPkiZ9QSBhAjogTgfFKbus8vQJJpigxRHqidNaga792MqK61C16tPRazuV6JVgvv/++8fLtPtrvUCX6FeWXoetqcxdB9LNNddcDQt09ecPjvN75WsFuq7RvniV6VcfbqdxzjzzTLdXHoGe8OSjuygJIBSiDBtGR06AdRd5ADEfAoERQKAHFhDMgUA1AR2Ypmy3ys1rTz2XGJZo33///d1J6I0IdL+XW3vNdTBc9+7d3XAqN9ee7j59+ri/n3DCCS6brQPYtH/bv35NB8VprEkmmWS8U9z9wXJ6mKB97J++O7ruKe46vE7vLp966qndWMqO6/A2+ajXpS222GLjlbjrOtmrkvNVV13V+vXr50r+F1hggcrp9Ah01g4EzBAKzAIIZE+AdZc9c0aEQJEJINCLHF18KwQBf8iZnNFBcf793/4wOGWfdep4IwJ97Nix7gC4p556yrFR6bt/Z7hEs4S1BLjEskrdla1eeOGFbcCAAe7PyugrW6794PXeg+6FvQ6gW2aR9esKdH/wmt67rpL6Bx980PWthwYqW9e73msz6KNHj3aHz6ksX69CU3ZfDxQk5nVQnIQ6Ar0Q0x0nOkgAodBBgNwOgXYQYN21Axq3QAACLRJAoDM5IBABAb2aTEJcv/umw9n0HnG99qwlcepL3PVqNZ2CriYxfMEFF7gD2ar7kiDXq9Uk0NV0CJsEtxfz+kwCWeJc++G9QK9+BZky7DppXWNcfN7NNvGEk1mffl1t8qm7VsZSif3dd9/t9qz7pgy63qHuM/g6dE4nqi+//PKVd7H7DLrumXHGGV3W358C/9BDD1nPnj1b3YOu95yr2kBNh8rJfv1dn/tT7GWHTqT3ze9B9w9BIpgqmFhyAgiFkk8A3M+FAOsuF+wMCoHCEkCgFza0OFZEAioHV/ZY4rxHjx4dclECV5lqnebuS93rdajstcrSdZ1/DVojA7d1SJzEvLLgKldX1rw9Te9E1y8dpuffk96efrgHAkUhgFAoSiTxIyYCrLuYooWtEAifAAI9/BhhIQSiJNCWQG/WKb0iTVlyncbet29fe/vtt11VQe3715vtl+shUCQCCIUiRRNfYiHAuoslUtgJgTgIINDjiBNWQiA6AkkKdGXwt9lmG/e+9dqm18hpzzsNAhDgkDjmAATyIIBAz4M6Y0KguAQQ6MWNLZ5BIFcCSQp0OfL777+7/fBvvfWWfffdd+5gOB2Y16tXr1z9ZHAIhEQAoRBSNLClLARYd2WJNH5CIBsCCPRsODMKBEpHIGmBXjqAOAyBdhBAKLQDGrdAoIMEWHcdBMjtEIDAOAQQ6EwICEAgFQII9FSw0ikEWiWAUGCCQCB7Aqy77JkzIgSKTACBXuTo4hsEciSAQM8RPkOXlgBCobShx/EcCbDucoTP0BAoIAEEegGDiksQCIEAAj2EKGBD2QggFMoWcfwNgQDrLoQoYAMEikMAgV6cWOIJBIIigEAPKhwYUxICCIWSBBo3gyLAugsqHBgDgegJINCjDyEOQCBMAgj0MOOCVcUmgFAodnzxLkwCrLsw44JVEIiVAAI91shhNwQCJ4BADzxAmFdIAgiFQoYVpwInwLoLPECYB4HICCDQIwsY5kIgFgLNCvShQ4eO51q9z3SRPtc70Ktb9d9rv4uFGXZCoKMEEAodJcj9EGieAOuueWbcAQEItEwAgc7sgAAEUiFQK9Crxbb+XPv3NIyQUPdivfrPaYxFnxAIgQBCIYQoYEPZCLDuyhZx/IVAugQQ6OnypXcIlJaAF+g33n6p3XDbpS1yqBbQuqi17Hftd22J/CFDhow3brVQHzhwYGnjg+PFJIBQKGZc8SpsAqy7sOODdRCIjQACPbaIYS8EIiHgBfr7I4Y5gd6MEE/axeqMfa1ol0gnu540cfrLiwBCIS/yjFtmAqy7Mkcf3yGQPAEEevJM6RECEDCzZvegZw1NQr1arHuRTlY960gwXpIEEApJ0qQvCDRGgHXXGCeuggAEGiOAQG+ME1dBAAJNEghdoHt3fHbdi3UJdER6k8Hm8mAIIBSCCQWGlIgA665EwcZVCGRAAIGeAWSGgEAZCcQi0KtjU51VR6iXcdbG7zNCIf4Y4kF8BFh38cUMiyEQMgEEesjRwTYIREwgRoEu3MqoS6j7V7kNHjw44ihgetkIIBTKFnH8DYEA6y6EKGADBIpDAIFenFjiCQSCIhCrQPcQfTadTHpQ0wpj2iCAUGCKQCB7Aqy77JkzIgSKTACBXuTo4hsEciQQu0AXOkR6jhOIodtFAKHQLmzcBIEOEWDddQgfN0MAAjUEEOhMCQhAIBUCRRDoAjNo0CBX7q5S99be0Z4KRDqFQJMEEApNAuNyCCRAgHWXAES6gAAEKgQQ6EwGCEAgFQJFEegS5xLpEufsR09lqtBpggQQCgnCpCsINEiAddcgKC6DAAQaIoBAbwgTF0EAAs0SKIpAl98+i/788883i4HrIZApAYRCprgZDAKOAOuOiQABCCRJAIGeJE36ggAEKgSKJND9XnTK3JngoRNAKIQeIewrIgHWXRGjik8QyI8AAj0/9owMgUITKKJAJ4Ne6ClbCOcQCoUII05ERoB1F1nAMBcCgRNAoAceIMyDQKwEiiTQKXGPdRaWz26EQvlijsf5E2Dd5R8DLIBAkQgg0IsUTXyBQEAEiiTQBwwYYLwPPaDJhSktEkAoMDkgkD0B1l32zBkRAkUmgEAvcnTxDQI5EiiKQOdd6DlOIoZumgBCoWlk3ACBDhNg3XUYIR1AAAJVBBDoTAcIQCAVAkUQ6IjzVKYGnaZIAKGQIly6hkALBFh3TA0IQCBJAgj0JGnSFwQgUCEQu0D34pz3nzOpYyKAUIgpWthaFAKsu6JEEj8gEAYBBHoYccAKCBSOQDMCfejQoTbPPPNY165dg+DgD4WTONfec/1Og0AMBBAKMUQJG4tGgHVXtIjiDwTyJYBAz5c/o0OgsATaEugS5aeddpoNHz7cOnfubM8880zuLGSTxLkah8LlHg4MaAcBhEI7oHELBDpIgHXXQYDcDgEIjEMAgc6EgAAEUiFQK9AlftW8KO/Zs6eNHDnSfTbLLLPYtddem4odjXSqcnbZ520cPHgwWfNGwHFNcAQQCsGFBINKQIB1V4Ig4yIEMiSAQM8QNkNBoEwEJNAleG+8/VL7fezPLlNeLcqrWSyyyCJ23nnnZYpHtnlhroEpZ88UP4OlRAChkBJYuoVAKwRYd0wPCEAgSQII9CRp0hcEIOAIqEz8qy++tw8+ershIhtvvLHtv//+DV3b3ou8INf9PlOOMG8vTe4LlQBCIdTIYFeRCbDuihxdfINA9gQQ6NkzZ0QIlILAWaefb1dcfXFDvq633nrWt2/fccrKmz2YrVp0+z/X/u6N8dlyL9AbMpKLIBABAYRCBEHCxMIRYN0VLqQ4BIFcCSDQc8XP4BAoLgGVuF95zcV2w22X5uqkF/o69A1BnmsoGDwDAgiFDCAzBARqCLDumBIQgECSBBDoSdKkLwhAoELAHxL3/ohhdtARu7dIRq9W++c//+m+r86C+xvqfVavMy/Ea38nJBAoEwGEQpmija+hEGDdhRIJ7IBAMQgg0IsRR7yAQHAEak9x14Fs+lXb8j7BPThwGASBDhBAKHQAHrdCoJ0EWHftBMdtEIBAXQIIdCYGBCCQCoF670GvJ9LzOME9FYfpFAIBEEAoBBAETCgdAdZd6UKOwxBIlQACPVW8dA6B8hKoJ9A9jc0339w+/fRT9x70LE5wL28U8LxsBBAKZYs4/oZAgHUXQhSwAQLFIYBAL04s8QQCQRFoTaDL0JtvvtlOOukkO/PMM22xxRYLynaMgUCsBBAKsUYOu2MmwLqLOXrYDoHwCCDQw4sJFkGgEATaEujeybFjx1qnTp0K4TNOQCBvAgiFvCPA+GUkwLorY9TxGQLpEUCgp8eWniFQagKNCvRSQ8J5CCRMAKGQMFC6g0ADBFh3DUDiEghAoGECCPSGUXEhBCDQDAEEejO0uBYCyRBAKCTDkV4g0AwB1l0ztLgWAhBoiwACvS1CfA8BCLSLAAK9Xdi4CQIdIoBQ6BA+boZAuwiw7tqFjZsgAIEWCCDQmRoQgEAqBBDoqWClUwi0SgChwASBQPYEWHfZM2dECBSZAAK9yNHFNwjkSACBniN8hi4tAYRCaUOP4zkSYN3lCJ+hIVBAAgj0AgYVlyAQAgEEeghRwIayEUAolC3i+BsCAdZdCFHABggUhwACvTixxBMIBEUAgR5UODCmJAQQCiUJNG4GRYB1F1Q4MAYC0RNAoEcfQhyAQJgEEOhhxgWrik0AoVDs+OJdmARYd2HGBasgECsBBHqskcNuCAROAIEeeIAwr5AEEAqFDCtOBU6AdRd4gDAPApERQKBHFjDMhUAsBBDosUQKO4tEAKFQpGjiSywEWHexRAo7IRAHAQR6HHHCSghERwCBHl3IMLgABBAKBQgiLkRHgHUXXcgwGAJBE0CgBx0ejINAvAQQ6PHGDsvjJYBQiDd2WB4vAdZdvLHDcgiESACBHmJUsAkCBSCAQC9AEHEhOgIIhehChsEFIMC6K0AQcQECARFAoAcUDEyBQJEIINCLFE18iYUAQiGWSGFnkQiw7ooUTXyBQP4EEOj5xwALIFBIAgj0QoYVpwIngFAIPECYV0gCrLtChhWnIJAbAQR6bugZGALFJoBAL3Z88S5MAgiFMOOCVcUmwLordnzxDgJZE0CgZ02c8SBQEgII9JIEGjeDIoBQCCocGFMSAqy7kgQaNyGQEQEEekagGQYCZSOAQC9bxPE3BAIIhRCigA1lI8C6K1vE8RcC6RJAoKfLl94hUFoCCPTShh7HcySAUMgRPkOXlgDrrrShx3EIpEIAgZ4KVjqFAAQQ6MwBCGRPAKGQPXNGhADrjjkAAQgkSQCBniRN+oIABCoEEOhMBghkTwChkD1zRoQA6445AAEIJEkAgZ4kTfqCAAQQ6MwBCORIAKGQI3yGLi0B1l1pQ4/jEEiFAAI9Fax0CgEIkEFnDkAgewIIheyZMyIEWHfMAQhAIEkCCPQkadIXBCBABp05AIEcCSAUcoTP0KUlwLorbehxHAKpEECgp4KVTiEAATLozAEIZE8AoZA9c0aEAOuOOQABCCRJAIGeJE36ggAEyKAzByCQIwGEQo7wGbq0BFh3pQ09jkMgFQII9FSw0ikEIEAGnTkAgewJIBSyZ86IEGDdMQcgAIEkCSDQk6RJXxCAABl05gAEciSAUMgRPkOXlgDrrrShx3EIpEIAgZ4KVjqFAASKkEH/+eefrUuXLta1a9dcAvrLL79Yt27dchk79EFffPFF69Spk80///yhm5qpfQiFTHEzGAQcAdYdEwECEEiSAAI9SZr0BQEIVAjEKtDfe+89GzJkiL388sv2xRdfOH9mmGEG22677WyNNdawCSaYoF1R/uOPP5q6V9evt956dvLJJ9vss8/erjFDu+nEE0+0Rx99tE2zdthhB9tggw1avW7ppZd2Dy/uu+++Nvsr0wUIhTJFG19DIcC6CyUS2AGBYhBAoBcjjngBgeAIxCjQb731VjvmmGMcy4knnthlZ7/77jt77bXX3GePPPKITTLJJE2xfvLJJ+3MM8+0Qw891Oadd96G73322Wdtl112sS233NL23HPPhu8L+cJTTjnFHn/88YqJn3zyifvz5JNPbt27d698vu2227qHE601BHp9OgiFkFcAthWVAOuuqJHFLwjkQwCBng93RoVA4QnEJtDffPNN22KLLVxc/vGPfzhhrBJqtbffftveffddW3nllZuO2+mnn25XX321XXLJJU0J9IMOOsjuv/9+96DgwQcfdKX2RWtHHnmk3XHHHTZ48GBbaKGFmnIPgY5Ab2rCcDEEUiSAQE8RLl1DoIQEEOglDDouQyALArEJdJVVq6x90KBBttNOOzWE6LfffrMHHnjAXn/9dSegZ5ppJltppZUq+8affvppO++881wGfuONN7Zpp53WZYtXW221Vvv/+uuvbZVVVqlcowz8kksuOd49I0eOtMcee8zeeecdky0qhV9qqaWsV69elWs/+ugjUzZeDxh69Ohhc889t/3tb38bR/Dr+xdeeMF++OEHm3HGGW3ZZZe1KaecstKHxnnuueds6NCh1r9/f5tvvvls1llndSX7rX3XFsSWBPqYMWPsP//5j73xxhumP88222y2wgorjLMfv1aga0vALbfcYqNGjTJ9N/3007vhv/nmG9eXGIn9nHPO6Vj6hy/i8swzz9gmm2xiTzzxhGlvu/paZJFFHKfYGkIhtohhbxEIsO6KEEV8gEA4BBDo4cQCSyBQKAIxCXSJOJ8df/jhh52Qbatpf7oy7W+99dY4l0qE//Of/3T71g8//HC76667xvle4vbiiy9utfvLL7/czj77bNttt93snHPOsRVXXNG0f7u6SVAfeOCBToBWt5lnntmuu+4695F+1x722rb55pvb3nvv7cTvEUccYffcc89415x22mm2zDLLmA7KW3fddccbR31PPfXULX4nO9pq9QS6HhLss88+TihXN/E899xzrV+/fu7jWoGuLPyFF17oPj/11FPdwwMx0vYA+VDdFl10UVNlw0QTTWQ33XSTHX/88S6DrwcQ1U1VDG3thW/Lx6y/RyhkTZzxIMAhccwBCEAgWQII9GR50hsEIPA/AjEJ9FdeecW23357lxluSzz7AO+xxx6m/eUSuxtuuKHLukq06tcCCyzgxKI+kxD897//7cq4taddmdvWDprTPWuuuab9+OOPLju/6aab2ocffuiywL1793bDS8TqGgnPAw44wP157Nixzh5liRdccEFXDaCqAP392GOPdZ/pPj0wUHa+b9++dsUVV9hZZ53lMsW6VllnldVrr7hK62+77TZXXi8BK+GrfpTV1l78vfbaqyJu633XyEKoJ9A19rXXXut80gOIzp07u0P7/vWvf7nqhBNOOGE8gS5OulZZfcVPtstXxUUPMMRIDzl0AKDiomoAXynhBbo46SGIqhDEQL7qs9gOoUOgNzLzuAYCyRJg3SXLk94gUHYCCPSyzwD8h0BKBGIS6Pfee68dcsghtvrqq9vRRx89DhFlcz///HP3mQSgMs4qWd96663d37W/3JdLKyOt8nWJQglblZo3uwfdHw630UYbOWEpcapf1dlcn2GXsFamvV7zDxD0u2ytbbJVmWQ1ZdCnmGKKyiV+/7tK6/UQ4OCDD3YPL1QZIPHrm8RrS981Mq1qBbpeK+dL+bU3XRl6tXpcfQZd/uu8AIlpcfH3XHXVVXbGGWe4cwX0MME3lbRru8Ecc8xhV155ZeUhw2GHHWbrrLNO5Tpdo2t16ny1z434lec1CIU86TN2WQmw7soaefyGQDoEEOjpcKVXCJSeQEwC3YvixRdf3InQ6rbzzjvbBx984F65Ns8887hM7u23325HHXWUu0wl7dXNn0yuLPAss8zStEBXJlgZYWV6lYn3h9fNNddcToCq+dJ5ieP111+/7lxTyb4eFCijX6/cXHvT/UnptT58++23TphLqCuTrey6MucSwTvuuKMr+1Zm+9dff23xu0YWQK1A12F8qhiQPTpRv7rtt99+9tBDDzlRLXEtgS4bZZP8lLDXAwXffN8S15NNNtl4MdLnEt8+gy6ma6+9duU6/4BDFQfV+/Eb8SvPaxAKedJn7LISYN2VNfL4DYF0CCDQ0+FKrxAoPYGYBPrHH3/s9lJL7N19991OfFa3Tz/91NZaa62KQJdI135o7VvWYWK1TRl1CU2JwGYy6F999ZWtuuqqrjsJR5XCq3RdWWCJUS+2d911V3ewmRerteNXZ8eff/75unPRl8BLfLa0z3r55Zd3B99pbGWkVRKvP+vBgUrRJ5100la/a2sR1Ar0YcOGuffNS3yLW3XTXnK9os2f+O4Fuq5RJYPOAvD75vWZZyTRXfsAQt/LdvndkkDXHn0JeAR6W1HkewhAAIHOHIAABJIkgEBPkiZ9QQACFQIxCfTqEmqVsEuMtybQ/Z5nf9haa2H3Al2nudcT89X3+tL1lvrTPnm9G117pW+44QZ3GJpOXK/XVK6tbL72U9dmkHX9l19+6crxqw+Va2v66gGCtgLoMDWV/m+22WaVW1r7rqV+awW6qhS0zaC6WkD3Vj9w0L74aaaZppJBV/m/9tOrGkAPWG6++Wb3rnodjqcHGq0xUt8I9LaizvcQgEBbBBDobRHiewhAoBkCCPRmaHEtBCDQMIGYBLqcuvPOO93+cmW9dSha9WvN/CFyvsTdZ9R1nwShf6WXF74SjL5ddtllrmxeGV1lh1tq/nA4iVSVW0ts+qYDz/xnyvDrwDiVt0vISqB269bNXSohq1e0KSuuw9RuvPFGl8mXmPb75NWXKgQkYlUerwPo5G/1O94l3r0Pskvl8Hq9mpp/OKFD13RfS9/Vnjpfz+9agV7NoLo0X6exDxw4cJwKh9pT3C+99FJ34r383XfffSt2qhxe2wW6d+/uTNAYKuHv06eP+zsCveElzYUQgEALBBDoTA0IQCBJAgj0JGnSFwQgUCEQm0CXcNOhbNrnrCbxq3dmf//9907sqVWf8u4FoT6XWNR3r776qru/+oAzZbGVzZbwVxn977//7v6u08Krm98H31JGW9lqlXErEz9gwAD3rnaVqev1Y8qEqxRedvbs2dOdZK592RpPJekLL7ywu0d/vv76692hahK8vsxddkjI6l3jOhBP2XlloFXi/tJLL7l95yq9V7m7HmRI1OswPWWyW/pOmfC2Wr1T3P3Bc3pAodJ+PXQQa9l+3HHHVd4PXyvQ9R54Xa+D3XS93veufeRPPfWUM0MPI6aaaioXH/Wp7QF6UIFAbytKfA8BCLRFAIHeFiG+hwAEmiGAQG+GFtdCAAINE4hNoMsxiVxlbpX1VibbN4lFCVRlZyVK1STob7nlFncwmX/PtkS4RK6y5dWnouukcX/Am+6VuK0VsIceeqg7TX333Xe3bbbZZjzOft+7yu+V6deYyhj7d57rBo2v08d1sJ3E54gRI1wm3YtUXaP92BLna6yxhhtD2WlluyVsfdNheepDDykk4mW7Xq2mpgcCyrarD+0Zb+m71l4l58cRB5Ws+wPx/Od60KAHBP4d7+KvrHh1lr9WoOteX+ngT9cfNWqUXXDBBe6kfd9UXaAHFzr4rlqg125t8HvQVbFQXRHR8ALI6UKEQk7gGbbUBFh3pQ4/zkMgcQII9MSR0iEEICACMQr06sipFFz7qvXarrZes6WS8AknnNAdPNZSGzlypHu3uYS7rk2q6UGBst6yUa9186Xs1f2PHj3a7TnXXvSWfJG/es2ZxGi9PpT5V2l4PbHa2ncd8VPj6aFJdbl/e/oTo88++8z570vd29NPDPcgFGKIEjYWjQDrrmgRxR8I5EsAgZ4vf0aHQGEJxC7QCxsYHCs0AYRCocOLc4ESYN0FGhjMgkCkBBDokQYOsyEQOgEEeugRwr4iEkAoFDGq+BQ6AdZd6BHCPgjERQCBHle8sBYC0RBAoEcTKgwtEAGEQoGCiSvREGDdRRMqDIVAFAQQ6FGECSMhEB8BBHp8McPi+AkgFOKPIR7ER4B1F1/MsBgCIRNAoIccHWyDQMQEEOgRBw/ToyWAUIg2dBgeMQHWXcTBw3QIBEgAgR5gUDAJAkUggEAvQhTxITYCCIXYIoa9RSDAuitCFPEBAuEQQKCHEwssgUChCCDQCxVOnImEAEIhkkBhZqEIsO4KFU6cgUDuBBDouYcAAyBQTAII9GLGFa/CJoBQCDs+WFdMAqy7YsYVryCQFwEEel7kGRcCBSeAQC94gHEvFQIDBgywgQMHur79780MhFBohhbXQiAZAqy7ZDjSCwQg8CcBBDozAQIQSIUAAj0VrHRacAIS6L61R6gjFAo+QXAvSAKsuyDDglEQiJYAAj3a0GE4BMImgEAPOz5YFyaBaoHeHqGOUAgzrlhVbAKsu2LHF+8gkDUBBHrWxBkPAiUhgEAvSaBxM1EC9QR6M0IdoZBoOOgMAg0RYN01hImLIACBBgkg0BsExWUQgEBzBFoT6EOHDm2uM66GQEkIDBo0qE1PWyt9Ryi0iY8LIJA4AdZd4kjpEAKlJoBAL3X4cR4C6RFoTaC3liVMzyJ6hkCxCAwePNgWWmihcZxCKBQrxngTBwHWXRxxwkoIxEIAgR5LpLATApERIIMeWcAwNwgCjWTQZ5ttNttnn33GE+dyAKEQRBgxomQEWHclCzjuQiBlAgj0lAHTPQTKSoA96GWNPH53hEBr1SWtCXM/JkKhI/S5FwLtI8C6ax837oIABOoTQKAzMyAAgVQIINBTwUqnBSdQT6A3IswR6AWfGLgXNAEEetDhwTgIREcAgR5dyDAYAnEQQKDHESesDItAtUBvRpgj0MOKI9aUiwACvVzxxlsIpE0AgZ42YfqHQEkJJCXQX3jhBVtwwQVLShG3y0ZAAr09whyBXraZgr8hEUCghxQNbIFA/AQQ6PHHEA8gECSBjgp0vYrttNNOs7feesuee+65IH3EKAgkTUDzvvZk9mbGQCg0Q4trIZAMAdZdMhzpBQIQ+JMAAp2ZAAEIpEKgvQLdC/NPP/3URo4caRNMMIE9++yzqdhIpxAoGgGEQtEiij8xEGDdxRAlbIRAPAQQ6PHECkshEBWBZgV6rTD3ziLQowo7xuZMAKGQcwAYvpQEWHelDDtOQyA1Agj01NDSMQTKTaBRgd4QypEFAAAgAElEQVSSMEegl3v+4H37CCAU2seNuyDQEQKsu47Q414IQKCWAAKdOQEBCKRCoC2B7oX58OHDWx1fGfTzzz8/FRvpFAKxE6jdr45QiD2i2B8jAdZdjFHDZgiESwCBHm5ssAwCURNoTaAPGjTIJNBpEIBA+wlInA8ePHicDhAK7efJnRBoLwHWXXvJcR8EIFCPAAKdeQEBCKRCoK0M+pAhQ0y/2mqdOnWynXbaqa3L+B4CpSMggU4GvXRhx+EACSDQAwwKJkEgYgII9IiDh+kQCJlAWwLd296WUOeQuJCjjG2hEUAohBYR7CkDAdZdGaKMjxDIjgACPTvWjASBUhFoVKC3JdQR6KWaNjjbQQIIhQ4C5HYItIMA664d0LgFAhBokQACnckBAQikQqBZgd6SUEegpxIeOi0oAYRCQQOLW0ETYN0FHR6Mg0B0BBDo0YUMgyEQB4H2CvRaoa496M8991wcTmMlBHImgFDIOQAMX0oCrLtShh2nIZAaAQR6amjpGALlJtBRge7pff/999a7d+9yw8R7CDRIAKHQICgug0CCBFh3CcKkKwhAwBDoTAIIQCAVAkkJ9FSMo1MIFJQAQqGggcWtoAmw7oIOD8ZBIDoCCPToQobBEIiDAAI9jjhhZbEIIBSKFU+8iYMA6y6OOGElBGIhgECPJVLYCYHICCDQIwsY5haCAEKhEGHEicgIsO4iCxjmQiBwAgj0wAOEeRCIlQACPdbIYXfMBBAKMUcP22MlwLqLNXLYDYEwCSDQw4wLVkEgegII9OhDiAMREkAoRBg0TI6eAOsu+hDiAASCIoBADyocGAOB4hBAoBcnlngSDwGEQjyxwtLiEGDdFSeWeAKBEAgg0EOIAjZAoIAEEOgFDCouBU8AoRB8iDCwgARYdwUMKi5BIEcCCPQc4TM0BIpMAIFe5OjiW6gEEAqhRga7ikyAdVfk6OIbBLIngEDPnjkjQqAUBBDopQgzTgZGAKEQWEAwpxQEWHelCDNOQiAzAgj0zFAzEATKRQCBXq54420YBBAKYcQBK8pFgHVXrnjjLQTSJoBAT5sw/UOgpAQQ6CUNPG7nSgChkCt+Bi8pAdZdSQOP2xBIiQACPSWwdAuBshNAoJd9BuB/HgQQCnlQZ8yyE2DdlX0G4D8EkiWAQE+WJ71BAAL/I4BAZypAIHsCCIXsmTMiBFh3zAEIQCBJAgj0JGnSFwQgUCGAQGcyQCB7AgiF7JkzIgRYd8wBCEAgSQII9CRp0hcEIIBAZw5AIEcCCIUc4TN0aQmw7kobehyHQCoEEOipYKVTCECADDpzAALZE0AoZM+cESHAumMOQAACSRJAoCdJk74gAAEy6MwBCORIAKGQI3yGLi0B1l1pQ4/jEEiFAAI9Fax0CgEIkEFnDkAgewIIheyZMyIEWHfMAQhAIEkCCPQkadIXBCBABp05AIEcCSAUcoTP0KUlwLorbehxHAKpEECgp4KVTiEAATLozIGYCHz00Uf22Wef2eyzz269evXKzPTXXnvNfvnlF1tggQWsU6dOdcf94osv7IMPPrAZZ5zR+vbt26ptSQiFZsbLCtSnn35qX375pU0zzTQ2xRRT1B1WLH/66SdbaKGFbIIJJsjKNMaBgCWx7sAIAQhAwBNAoDMXIACBVAgg0FPBWvpOJWbXX39969evn1188cXj8dhhhx1MYu7GG2+07t27N8zr/PPPd/2dd955tsgiizR8X0cv3G677WzYsGH2+OOPW7du3ep2d9NNN9nxxx9vhx9+uK299tqpC/Rmxuuo/23d/+uvv9qRRx5p999/v7t02mmntVtvvdVGjhxpW265pc0zzzx27LHHuu8aYdnWeHwPgfYQQKC3hxr3QAACLRFAoDM3IACBVAgg0FPBWvpOR40aZUsttZRNOeWUdtddd43HY5111rFPPvnEHn30UZt44okb5oVA/39UIQn0q666ys444wxbeOGFbbPNNnPZ87nmmss+//xzW2ONNSqCHYHe8FTnwhQIINBTgEqXECgxAQR6iYOP6xBIkwACPU265e0bgV6uDLrPiuthjB7KVDdtSejRo4f7hUAv778JIXiOQA8hCtgAgeIQQKAXJ5Z4AoGgCCDQgwpHYYxpVqA/+eST9t5779mAAQPsiSeeMO2v7t+/v8vCTzfddBUurWXQhw4dai+88IJ98803NtNMM9myyy47jliUTcrYv/nmm/bjjz/aYostZksuuaR17dp1PO4vv/yyPfPMM27fua45/fTT7Y033mioxH3nnXd2ZfsffvihzTDDDPa3v/3N7Uv3bezYsXbzNY/a8LeH2S+/f2Nz/XUOW2WVVax3797j2aES8ccee8zeeecd++2339zeezHR/vt6GfThw4fbc889Z5NNNpmtvvrq9sorr7jS/KWXXtqmn376Sv9PP/2063PVVVe1Pn362M0332x//PGHzTbbbPbII4/Y6NGjbZZZZrEVV1zRJplkkhbnpfab33fffTZ48GD7+eefba+99rLJJ5/cVlttNXv//fddLNVU8q54tCXQn332WRfDH374wTGrjWFhFgiO5EIAgZ4LdgaFQGEJINALG1ocg0C+BBDo+fIv6ujNCvSDDz7YCb167eSTT7bll1/efVVPoEvwnnLKKXbdddeNc7tK50899dTKXnWf5a2+SNdIXM4555yVjy+44AK76KKL6trSyB70ejceccQRttZaa7mvLrzwQjdmbTvkkENsvfXWq3wsoXrggQe6Bw7VbeaZZ3a+1gp0PdTQfm9df8kll9i8887r9uuLmcrPJex9O+GEE9z+/yuvvNLmmGMOJ+AlsGubsuHnnnuue+BRr0lQ77LLLuN8pf3m//rXv+z222+3o446yn23zDLL2Gmnneb+XG8P+pgxY0yM7rnnnvGG0X26nwaBjhJAoHeUIPdDAALVBBDozAcIQCAVAgj0VLCWvtP2CvSddtrJttlmG/v999+dwJM4k4i+8847rWfPnnUF+oMPPmj777+/zTrrrHbmmWe6E9SVKd93331dNlf9TDTRRO4BgE5ZV2ZZ/V999dVOpCpDrvvUHn74YXefhOmJJ55oc889t7344ov297//3X3fiEBX1lnCesIJJ3R26wGDmsZSVYBsOPPUwbbmypvYbPNMZU8/95iddNJJzs8HHnjAZfSVQV5zzTWdaD7ggAPcn/UgQpUG8mnBBRccR6CvvPLKtuOOO7os/9FHH+18VGtWoIu3eEjk6yA+sVt00UWdSK/XlGlXll8VALJfmfguXbq4agBVH7z11ltOkLcl0K+44go766yzXLWBDhBUtl8HzunBi/q97bbbbNJJJy39ugJAxwgg0DvGj7shAIFxCSDQmREQgEAqBBDoqWAtfaftFehexHqAhx56qMuq6nR0idB6GXQJOpWkH3fccU4o1t6r8nRliKvb999/b/qlk+YleH32Xn9Xafqll15qf/3rXyu3NHLyeEuHtilbrqz55ptvbnvvvbfr0wuFyacba506/2a77rqrE7MSuBKnl19+uZ199tlOsOr3es2Pd9hhh7lyfPkgFiqx960Zga7T6aurGCS+1113XbfdQA8apppqqhbntfjW3q+Ltf9cDxdaE+jKnushgJpiXf16toMOOsgJdT1A0YMDGgQ6QgCB3hF63AsBCNQSQKAzJyAAgVQIINBTwVr6TpMS6BKsEt4qo95+++3rCnRfnl17QJnKwJW93meffdzJ4rJJJd3K1taWcz///PPuM/XlXxFWHcSOCHRltVV6Xp2JvuS8m+yG2y+1L74cMc5c8aXpelWb/FHpvx4atCbQle2XiFaTsNfp6UkIdPXhH5Co5H/++edPRaDr3fa+tF/sq9u3337r4iKhvsEGG5R+XQGgYwQQ6B3jx90QgMC4BBDozAgIQCAVAgj0VLCWvtO2BLpKsCUq/WvW/B702gz63XffbcoQb7311rbHHnuMJ9B1sJl/H7pEdnXzr/4aNGiQqXReZeTXX3+9K4VfaaWV3CFkKmNXObfu1aFmG264oc0333zjvbu9IwL9448/dplo36/K2FUC36vnZO6QtoUXWdDtKdfhbl6gK6OurLjfI96aQNd32vetw+C0n/yyyy6zzp07u1s6kkHX/Xo4oockbWWwO5JBV/WDMv960NCSCNcZBC3tgy/9YgNAwwQQ6A2j4kIIQKABAgj0BiBxCQQg0DwBBHrzzLijbQLVZcu+bNvfVZ0x1Z5q7bluSaAPGTLE9MtnUOuVuLf0TnWVk+sBgPZka++39rZLBN5yyy2Vk9s33nhje/fdd51A117q5ZZbzpW833vvvdapU6eKox0R6DpdXg8J1l57bdtvv/1cGb6ywqcefZktuvQc1r1HZ3dKvPbEe4GuBwc33HCDO+TOn35eS92XuKv0W3u19Uuf+YoBXa/+tJfcbxHwfdQ7JK5eibrfPnDttde6U91bah0R6DoJXqe++8Pv2p5dXAGB9hFAoLePG3dBAAL1CSDQmRkQgEAqBBDoqWClUzNX1q3ybolgvX5Lh6bpcDbtqZYYVSm2SrLV6gl0ZbaVeZaYveaaa1zm22fFtc9a4lFNAlyHiFWfgv7TTz9VTv5WVl6vVtMYm2yyiRPJatqDvtFGG7kMul47psPNvNivPmhN13pfGjkkrrocWxl+Zct1kJ361GvkVD3Qb6rp7fRjr7DpZu1uXbubE9XqWw8jdACc9oLLXjHSZxLPanrw8fXXX7sHDbV73qsPltPhbv369bNbb73VjjnmGFdCLj5qX331ldsPL7+rT3HXd3qg4ZtOkR84cKB7YHHHHXfUfR2dv7YZgS5f9So376v68Hv/ax8kSLzr0D8aBJIggEBPgiJ9QAACngACnbkAAQikQgCBngpWOq06EV0wdBK33jsuIez3f1eXTXuBLhGusm9ls1X2rWslaCVu1fTubolsNWXEd999dxsxYoTLTqupFF6CToJdh65J+Klvn7WXHdtuu60TvMoKf/LJJ+4+lYKrBP2hhx6qCHiNK3teeuklJyjVGhHo3g69P1zX+9JzPYxQVn6NNdZw5f2rrrCBzTP/rPbwo/9x5e1qKm1Xtl7CXmX5Kv/Wu9SVYdYp7iqP12n2srfeoXRe2PuT6XVivC8b1yF7YqNtA/7VbbWvWZPQ1gMC8dKDDTXth/d8W5rYzQh0b6OEv07f16n3vsxd/atMf4UVVrDPP//cVRFUv2aPhQWBjhBAoHeEHvdCAAK1BBDozAkIQCAVAgj0VLDS6f8IqFRcr+6qfpe3DgJTFrX6ZHUv0CXa/LUS08pwK1uu7LZvEpUSu3rtln/3+fDhw52IV8beNx0qpwywv1dZbL3jXCXtahLgEoKypfqU8VqbJdKVtZZdbQl0PXRYYokl3Mnjvikrr3J7CXY1ZfNPOeFse+nVZ9zftX9cDxp0IJuEu99Lr4cT55xzzjjvdxcTVSSIibLjyjhXv2Nd/amvp556ynGXXzqBXdf4JsGuMwJ0CF2tQK/mrz+r8kEPB9pqLQl0+SPO2kPuXzen16+Jk+KhhzH+ZHtl7FXa7+OjMRdffHHna/XBd23ZwvcQaIkAAp25AQEIJEkAgZ4kTfqCAAQqBBDoTIYsCHz33XdO5CqD26tXr/GGrC5xn2yyydw7tHVt9T7w6pv0CjAJ5v9j7yzArSrWP/wJqKCEgd2FnWBeuxW7sRMMTOxrd2EX2H3txMS8tmJeQfHaio0iGKDo//mNd/Z/n83e5+x9zopZa73zPDzKOWvPfPN+M/f6rok988wzN6lLUqut3toC3q5du6pd01d/qW5/kZraGjduXJOv99IHdYO4nqkWb7WK1e748eNd3apTn9dXk1WLQ6Lw45jvbf7Futu03f8Wd21fl9Bqa3p50Wq6VpMl54qlFpPm8ujr1leY6ahBZfGCrZcT2gKvZ+L+3nHtCNBOiUq+4thS/pMYs7SRPwIIev5ySo8gkCYBBD1N+rQNgRwTQNBznNwMda3WJXEZ6kJDoYYmCrVWwBvqFA9DIHACoc27wHERHgQg0AIBBJ0hAgEIxEIAQY8FK5U2SABBbxBYxI8j6BEDpbogCSDoQaaFoCCQWQIIemZTR+AQCJsAgh52fooSnS48GzFihPXv39+6deuW+26HJgr6mjd93Z34UyCQVwKhzbu8cqZfECgKAQS9KJmmnxBImACCnjBwmoOAmSEKDAMIJE+AeZc8c1qEQJ4JIOh5zi59g0CKBBD0FOHTdGEJIAqFTT0dT5EA8y5F+DQNgRwSQNBzmFS6BIEQCCDoIWSBGIpGAFEoWsbpbwgEmHchZIEYIJAfAgh6fnJJTyAQFAEEPah0EExBCCAKBUk03QyKAPMuqHQQDAQyTwBBz3wK6QAEwiSAoIeZF6LKNwFEId/5pXfRE+jVq5f17dvXVez/2WgrzLtGifE8BCDQHAEEnfEBAQjEQgBBjwUrlUKgWQKIAgMEAo0RkKD70lpRZ941xpynIQCB5gkg6IwQCEAgFgIIeixYqRQCCDpjAAIREigX9NaKOoIeYUKoCgIQMASdQQABCMRCAEGPBSuVQgBBZwxAIEIC1QS9UVFH0CNMCFVBAAIIOmMAAhCIhwCCHg9XaoVAcwQQBcYHBBoj0Jyg1yvqzLvGmPM0BCDQPAFW0BkhEIBALAQaFfTBgweb/lAgAAEIQAACIRKodUYdQQ8xW8QEgewSQNCzmzsih0DQBBoV9GHDhiHoQWeU4LJA4NdxE12YnTq3z0K4xAiB1Ano/3taKl26dLGxY8e6W96r3fSOoLdEkN9DAAKNEEDQG6HFsxCAQN0EGhX0uivmQQhAoCYBRIHBAYHGCDS3xb0lMfctMe8aY87TEIBA8wQQdEYIBCAQCwEEPRasVAqBZgkgCgwQCDRGoJqg1yvmCHpjrHkaAhCojwCCXh8nnoIABBokgKA3CIzHIRABAQQ9AohUUSgC5YLeqJgj6IUaKnQWAokRQNATQ01DECgWAQS9WPmmt2EQQNDDyANRZIeABL21Yo6gZyfPRAqBLBFA0LOULWKFQIYIIOgZShah5oYAgp6bVNKRhAhI0Gtd/lZvCMy7eknxHAQgUA8BBL0eSjwDAQg0TABBbxgZH4BAmwkgCm1GSAUQaJgA865hZHwAAhBohgCCzvCAAARiIYCgx4KVSiHQLAFEgQECgeQJMO+SZ06LEMgzAQQ9z9mlbxBIkQCCniJ8mi4sAUShsKmn4ykSYN6lCJ+mIZBDAgh6DpNKlyAQAgEEPYQsEEPRCCAKRcs4/Q2BAPMuhCwQAwTyQwBBz08u6QkEgiKAoAeVDoIpCAFEoSCJpptBEWDeBZUOgoFA5gkg6JlPIR2AQJgEEPQw80JU+SaAKOQ7v/QuTALMuzDzQlQQyCoBBD2rmSNuCAROAEEPPEGEl0sCiEIu00qnAifAvAs8QYQHgYwRQNAzljDChUBWCCDoWckUceaJAKKQp2zSl6wQYN5lJVPECYFsEEDQs5EnooRA5ggg6JlLGQHngACikIMk0oXMEWDeZS5lBAyBoAkg6EGnh+AgkF0CCHp2c0fk2SWAKGQ3d0SeXQLMu+zmjsghECIBBD3ErBATBHJAAEHPQRLpQuYIIAqZSxkB54AA8y4HSaQLEAiIAIIeUDIIBQJ5IoCg5ymb9CUrBBCFrGSKOPNEgHmXp2zSFwikTwBBTz8HRACBXBJA0HOZVjoVOAFEIfAEEV4uCTDvcplWOgWB1Agg6Kmhp2EI5JsAgp7v/NK7MAkgCmHmhajyTYB5l+/80jsIJE0AQU+aOO1BoCAEEPSCJJpuBkUAUQgqHQRTEALMu4Ikmm5CICECCHpCoGkGAkUjgKAXLeP0NwQCiEIIWSCGohFg3hUt4/QXAvESQNDj5UvtECgsAQS9sKmn4ykSQBRShE/ThSXAvCts6uk4BGIhgKDHgpVKIQABBJ0xAIHkCSAKyTOnRQgw7xgDEIBAlAQQ9ChpUhcEIFAigKAzGCCQPAFEIXnmtAgB5h1jAAIQiJIAgh4lTeqCAAQQdMZApAT++usv+/HHH61Tp07WsWPHUt2//vqr/ec//7Hpp5/e5p133kjbrFXZ66+/bpNNNpkttdRSDbX32Wef2VdffWULLrigde3ataHPNvpwUqIwceJE++STT+y3336zOeec0zp37jxJqH/++acNGzbMpp56altkkUUa7QrPQyAzBJKad5kBQqAQgECbCCDobcLHhyEAgVoEWEFnbLSFwIcffmiXXHKJvfLKK/bLL7+4qpZeemnbeuutbd111zX9fptttrENN9zQTjrppLY0VfdnV111VfeS4NFHH637M3rwsssus6uuusouvfRSW2655Rr6rH9YstuuXbsWP9taUai3fgUwatQoGzBggL3//vsuHuXkiCOOsNtuu82uvPJKO/fcc22xxRYzvURZZZVVbPHFF7drrrmmxdijekAvdfQipbWlrZ9vbbt8LrsEWjvvsttjIocABOIkgKDHSZe6IVBgAgh6gZPfxq4/++yzdtBBB7lapptuOltyySVt3LhxTtYPO+ww23bbbQsj6M8//7ydf/75dswxx9gSSyzRItlGRaHR+hWAcqMcbbXVVqaXFnPPPbfNOuusdsYZZ9gdd9zh/rn22msnLuha0T/nnHPcS5CddtqpRVbVHrj++uvtxhtvtEceeaRNkt+qxvlQZgk0Ou8y21EChwAEEiGAoCeCmUYgUDwCCHrxch5Fj3/66SfbaKON3Kr5vvvua7vvvnup2jFjxtjkk09uU001VWEEXavRN998s1199dWxCHqj9WtL+8orr2yzzTab3XvvvU1S/scff9jnn3/uhF0l6RX0p556yg499FDr37+/7brrrq0ajtqVod0ZehnUllX4VjXOhzJLAEHPbOoIHAJBEkDQg0wLQUEg+wQQ9OznMI0eXHTRRXbdddfZOuusY6effnrNEMq3uGuL9QsvvGCSe50PX2uttSaRqw8++MCee+45++KLL9xq77LLLlv1XPRbb71l+qNz47PMMosts8wyJTGu3OKubeH33HOPE1H9bo455qgab60t7u+995699NJLTmq7d+9u66+/vjvP7cuLL77otsUPHz7cbeeXFGtHwQYbbFB6ZvTo0fb444+b+qffdZtyHlt68RVsjh5TWafO7U3btf/73/+aVsp/+OGHUn+mmWYaq6f+8g7pzP/TTz/ttqsvtNBCLg6dLdfRg/vuu8/Gjh3rHtfPFUtzgv7777/b0KFDbcSIEdahQwebZ555XM7L7xmoBlNtSJ51tn2uueZyuysWWGABdx5e4+aBBx6wlVZayZZffnn3ce22UP2K5ZlnnjEx126MFVZYwb1omGKKKUrN6IXDwIED3csh7RKQoPv+pTEXaDM7BBD07OSKSCGQBQIIehayRIwQyCABBD2DSQsg5E033dRJtGRr0UUXbVHQqz0gmT388MNLv7r11lvt7LPPnuTRPfbYw/bZZx/38wkTJtiZZ545yaqwfqfPrrHGGk7Cy8+gDxo0yK644gr3c22trnVGvJqgS4610ltZNt54Yzv++OPdj4877jh78MEHmzwiIdV5dpXXXnvNiaQ/o+8fXHyRXnbeeefaNNNP5c6Fn3XWWU3q0Bn+0047rcX6K2MbPHiw6U958QxVp14WqNx0003uQrxagv7NN9/YgQceWDrD7uvTCwi9oCl/SVHelvq52Wabldrxv1Mf9fKg2l0E2oqvnO2222729ttvN4ldOzGUw4UXXtj9vLwP/sG+ffua/lAg0BwBBJ3xAQEIREkAQY+SJnVBAAIlAgg6g6FRAtoirZVNFa2Iazt7reJX0PV7iazOPL/xxht2wAEHuI9oRVcr5ZIyyZnkT1LYq1cve/nll91FZhLFyy+/3P3s2muvtYsvvtitmJ544oludVYr21qd3nnnna19+/ZNBF2rv0ceeaRbvZUwS/ZqlWqCrr7qXLnOcesWesV56qmnOvn0Lye0Qq84//WvfzmR1O4ArerqRYB2C+izel4XtKn/H330kV1w7uX2zruv2e679bV99+vrYpbYSqy1Sv3www+7f4pzc/VX64vqkQjr6IHa030Aul1ffVccepHx2GOPtSjoypFW9LfffnvXB8UhydYfrcbrpUe1ctddd7kXC+rTKaecYu+++65b0T/44INdHdrirhczim+XXXZxVShvKrrYT6vsulRQ7HVs4M4773Sr6Drjr6Kb6fv06eO2uGv8ibPn3ehY5vliEUDQi5VveguBuAkg6HETpn4IFJQAgl7QxLeh2/oqMp0/1/bolm5Kr3WLu6RXEnrhhRe6rc7+QjOJrsTOFy97km8JnX8xoO3bunW8WvEr6Kp7xx13dHHqUrGZZ5652V63dIu7tnvrfL1eEkjGtYKulXSVWmfEtUp93nnn2Q477OAE1Zcnh/zHDjt+V+vRYyG7+eYbze9I0Ar/6quvPkmcjZ5B99yVpxNOOKFJfZJncW1uBV3b9cVcLzYkyf6ct+RYW+Ml+k888UTVr6PTmDj66KPdtnattFe+FKn3DLpY688WW2wxyVjjDHobJnCBP4qgFzj5dB0CMRBA0GOASpUQgIAZgs4oaJSA3xKtz2mVu7mvFasl6Lfccos7R6zV6PXWW6+0bXnGGWdssiKvtiSDOve8995725ZbbumET5JXq12/Gi0x12fLV1+b62stQddZd4mmvl+9vOy///6lFeBaAi051nlrxTzttNOWPv77hL/sm29HuZ/rzLVf6dcDWvXu16+fW0H3JWlBv//++90OBRXtaigvOtqgoiMJ88033yRIx48fb9pSr5Vz5WDPPfd0efOr5M0JuvKt29lvuOGGSY4EvPrqq6W2EPRGZy3PiwCCzjiAAASiJICgR0mTuiAAgRIBBJ3B0BoC/hywLl+bffbZa1ZRS9D9eXMJuoTUXxbmz5pXVqjzx1NPPbUTv9VWW83Jfa3iBV2/1wqwvqZTilYAACAASURBVAdcz+tzzZVqgq7t8zpPraJt15J9CbtW0OsR9P32289dMLfJJps0Ed3vv5zg6pxz3u623fZbu39/88033fZ9/yJAZ7XVpkrSgq4dCvp++549e1b9TnitqG+33XY1jwxom71W6L1oa0u8ttbr0rvmBF33C9x+++0ub3opo5vm9XVwetGCoLdmpvKZcgIIOuMBAhCIkgCCHiVN6oIABBB0xkCbCOhct1Z9dT75kEMOaZOgawVd25g//fRTdza6fKW5vGKdRZew6iy4zkG3JOg6zz3DDDPY5ptv7lZy7777bif5tUo1Qfdb74899li3DV3lySefdOe6qwm6bnPX93v7oovfFGvl1vXmROGhhx4ytafVdW0j1+3mXtAr66/Vl7Zucfcr+i3lt6VB9N1339k///lPd5v7gAED3NlxL+h77bWX2yngyzvvvON2JGgXhV78+Jvb/Wp5NUH3l8u1FAe/h4AIIOiMAwhAIEoCCHqUNKkLAhBA0BkDbSIwcuRIJ+cqfpu6r1DSpIvQdtppp5rfg16+gi5B9yun+rotiZzfvu5vPpes6qvItJqtLdYS3zXXXLPUhy+//NJ93ZpK5S3u/mI5rfjq+7drFX9eXKv4WqlX8WfDda5akq/i69OWe23fVtGFcdoGrxVzXXbnixddfd2ZLlXTZW0qI1/7ycb89KMt1ms29zVr6lP59n7frlbq559//pr11+pLI4Kuc+W6/V6std1erMXTn6/Xi43yr6b79ttv3YuPWkUXwenr73SBn4pnoJ0SWg3XDoTdd9/d7ZrQKr0v/uy6xoBegKjoDLq+nk8r6LpRXy8rVPRyRBfE6eI/nXWnQKAeAgh6PZR4BgIQqJcAgl4vKZ6DAAQaIsAW94Zw8XAZAf9d6PqRJEki+fHHH7vVUpUhQ4bYzz//7L4bXCvf5V+vVSno5bedS4Ql4hJyfee1tjp7YdOZd10Wp6IL0LQFWjKo57QCru9NrxR0Xe6mS9okrZLrxRZbrGoe9R3lkkMVreRKAk8++WRXt7a2a4u8bkfX31UkmNqSru3eEmxJteRWsesGcv29R48e7sZ6yaSKdgrMNNNM9vCQx23inxPt+utusM7dpnBfIzdq1CjXJ+0UkBTra8y0+i4prVW/viatWmlE0PV5fZe9bkvX1nLlSf/0LyL0ezFVjtV/7SDQufpal+7pln69uND3xescvcaBdkf4LfsSeN9PPaNb/PWc8qLdDmK46667uq9d0zjxZ97LZVxfa6dvBdD5+N69e7ub/LXroLlvFGDyQgBBZwxAAAJREkDQo6RJXRCAQIkAgs5gaAsBiZK+WsxLlOrS7eoSan0VmhfF8u8N1zNe0HWjuM6zq0hQtTKuFXhftPKs28T9M/q5XgBo1V7S54vOOEuE1XaloOsZv2pbeSt5Zd91QZlufNdZacnxjz/+aNpWrlvPVbTKfdRRRzmZVZw6Y+2/n1u3xuuzvngh1cq0viZOt6H7Mt20M9iaq/S2/gf2tam7Tu5W37X12/dJK9p6SVD+MqFW/dXypxcl+mq0Su561su4LuoTDxV9tZli1BED/33yEmltNdfXm5XvZFhrrbXcToHu3btXHTo6Sy8O+mo1Fb1oUP70PeV+Z4S27uur1nzRywwJtn6uODRuVPRiR+1pV0X53QOKRz975ZVXSnVUrvS3ZVzz2XwSQNDzmVd6BYG0CCDoaZGnXQjknACCnvMEJ9Q9rYB///33bkXTnx1ubdO6BVx1SYb9luZqdY0bN859z7hEsa1tltc/YcIEt6W6fIV47NixbkW/a9eupUe11btbt25N2tZziksxVa7mSnj1FXU6Y//5uxNdPbMv0MltcfdF/e7SpUvN/jRXf2t5l39Ouw30p/Kr0dRX9UcvLuot2kXwww8/1NwOL86qVzwq2xMnbaP3N7//9ttvJa7l7euMu4p2XTT3bQL1xsxz+SaAoOc7v/QOAkkTQNCTJk57ECgIAQS9IImmm0ERQBSCSgfBFIQA864giaabEEiIAIKeEGiagUDRCCDoRcs4/Q2BAKIQQhaIoWgEmHdFyzj9hUC8BBD0ePlSOwQKSwBBL2zq6XiKBBCFFOHTdGEJMO8Km3o6DoFYCCDosWClUghAAEFnDEAgeQKIQvLMaRECzDvGAAQgECUBBD1KmtQFAQiUCCDoDAYIJE8AUUieOS1CgHnHGIAABKIkgKBHSZO6IAABBJ0xAIEUCSAKKcKn6cISYN4VNvV0HAKxEEDQY8FKpRCAACvojAEIJE8AUUieOS1CgHnHGIAABKIkgKBHSZO6IAABVtAZAxBIkQCikCJ8mi4sAeZdYVNPxyEQCwEEPRasVAoBCLCCzhiAQPIEEIXkmdNitgn06tWr1IG+ffua/jRamHeNEuN5CECgOQIIOuMDAhCIhQCCHgtWKoVAswQQBQYIBBojUC7o/pONijrzrjHmPA0BCDRPAEFnhEAAArEQQNBjwUqlEEDQGQMQiJBANUFvVNQR9AgTQlUQgIAh6AwCCEAgFgIIeixYqRQCCDpjAAIREmhO0OsVdQQ9woRQFQQggKAzBiAAgXgINCrogwcPtmHDhsUTDLVCoCAEfh030fW0U+f2Bekx3YRA2wg08v87tba+I+htywGfhgAEmhJgBZ0RAQEIxEKgNYIuSadAAAIQgAAEQiTQo0cPGzBggPXs2bNJeAh6iNkiJghklwCCnt3cETkEgibQqKAH3RmCg0BGCCAKGUkUYQZDoJ4t7rXE3HeCeRdMOgkEArkggKDnIo10AgLhEUDQw8sJEeWfAKKQ/xzTw2gJNCfoLYk5gh5tLqgNAhD4mwCCzkiAAARiIYCgx4KVSiHQLAEEnQECgcYIVBP0esUcQW+MNU9DAAL1EUDQ6+PEUxCAQIMEEPQGgfE4BCIggKBHAJEqCkWgXNAbFXMEvVBDhc5CIDECCHpiqGkIAsUiEKeg6zK58ePH2/77718sqPQWAi0QQNAZIhBojIAEvbVijqA3xpqnIQCB+ggg6PVx4ikIQKBBAnEIusRcf7p06WIrrLCCnX766Q1GxeMQyDcBBD3f+aV30RPQ16xV3sreaCvMu0aJ8TwEINAcAQSd8QEBCMRCIEpBLxfzsWPHunjXWWcdBD2WzFFplgkgClnOHrFnlQDzLquZI24IhEkAQQ8zL0QFgcwTiELQq4m5B4OgZ36I0IEYCCAKMUClSgi0QIB5xxCBAASiJICgR0mTuiAAgRKBtgh6c2KOoDPIIFCbAKLA6IBA8gSYd8kzp0UI5JkAgp7n7NI3CKRIoDWCXo+Y+y5NO+20Nu+886bYQ5qGQHgEfh030QXVqXP78IIjIgjkgEDfvn0nObOOoOcgsXQBAgERQNADSgahQCBPBBoVdC/neWJAXyAAAQhAIF8EJOj6U14Q9HzlmN5AIG0CCHraGaB9COSUQKOC7jHUK+qcQc/pwKFbbSKAKLQJHx+GQKsIMO9ahY0PQQACNQgg6AwNCEAgFgKtFfR6RR1BjyVtVJpxAohCxhNI+JkkwLzLZNoIGgLBEkDQg00NgUEg2wTaKugtiTqCnu3xQfTxEEAU4uFKrRBojgDzjvEBAQhESQBBj5ImdUEAAiUCUQl6LVFH0BlsEJiUAKLAqIBA8gSYd8kzp0UI5JkAgp7n7NI3CKRIIGpB910ZMmSIXXvttbbJJpvYTjvtlGIPaRoC4RFAFMLLCRHlnwDzLv85pocQSJIAgp4kbdqCQIEIxCXoBUJIVyHQMAFEoWFkfAACbSbAvGszQiqAAATKCCDoDAcIQCAWAgh6LFipFALNEkAUGCAQSJ4A8y555rQIgTwTQNDznF36BoEUCSDoKcKn6cISQBQKm3o6niIB5l2K8GkaAjkkgKDnMKl0CQIhEEDQQ8gCMRSNAKJQtIzT3xAIMO9CyAIxQCA/BBD0/OSSnkAgKAIIelDpIJiCEEAUCpJouhkUAeZdUOkgGAhkngCCnvkU0gEIhEkAQQ8zL0SVbwKIQr7zS+/CJMC8CzMvRAWBrBJA0LOaOeKGQOAEEPTAE0R4uSSAKOQyrXQqcALMu8ATRHgQyBgBBD1jCSNcCGSFAIKelUwRZ54IIAp5yiZ9yQoB5l1WMkWcEMgGAQQ9G3kiSghkjgCCnrmUEXAOCCAKOUgiXcgcAeZd5lJGwBAImgCCHnR6CA4C2SWAoGc3d0SeXQKIQnZzR+TZJcC8y27uiBwCIRJA0EPMCjFBIAcEEPQcJJEuZI4AopC5lBFwDggw73KQRLoAgYAIIOgBJYNQIJAnAgh6nrJJX7JCAFHISqaIM08EmHd5yiZ9gUD6BBD09HNABBDIJQEEPZdppVOBE0AUAk8Q4eWSAPMul2mlUxBIjQCCnhp6GoZAvgkg6PnOL70LkwCiEGZeiCrfBJh3+c4vvYNA0gQQ9KSJ0x4ECkIAQS9IoulmUAQQhaDSQTAFIcC8K0ii6SYEEiKAoCcEmmYgUDQCCHrRMk5/QyCAKISQBWIoGgHmXdEyTn8hEC8BBD1evtQOgcISQNALm3o6niIBRCFF+DRdWALMu8Kmno5DIBYCCHosWKkUAhBA0BkDEEieAKKQPHNahADzjjEAAQhESQBBj5ImdUEAAiUCCDqDAQLJE0AUkmdOixBg3jEGIACBKAkg6FHSpC4IQABBZwy0SGDixInWvn37Fp8r+gPDhw+3n3/+2Xr27Gnt2rVrFoee/e2336yzLWCTTTaZzb5AJ+vUuSnjb775xj755BObe+65bYYZZogdb9Lt1dOhL7/80r799lubddZZrXv37lU/0gj3etrkmfwTQNDzn2N6CIEkCSDoSdKmLQgUiAAr6AVKdh1dffDBB+2MM86wX375pfT0vPPOa3vssYets846LQpoHU3k7pHddtvN3n77bXv22WetY8eOzfbPP3vtJQ/blFN0rCrod911l5122ml23HHH2SabbBI7r6Tba65D48ePtxNOOMEee+wx99hss81m9957r40dO9Z23HFHW3zxxe2UU05xv2uEe+wQaSATBBD0TKSJICGQGQIIemZSRaAQyBYBBD1b+Yo72ltvvdXOPvtsm2666WzmmWe27777zrTCqrL88svbJZdcEncImau/EVFE0JtP70033WTnnXeeLbvsstanTx+3er7IIovY119/bb179y4JO4KeuWkSRMAIehBpIAgI5IYAgp6bVNIRCIRFAEEPKx9pR+MFfcCAAU6QVN566y3bfffd3b8/8MADTtwp/08AQY9uNHiW2skx44wzNqn4q6++ss6dO7s/CHp0zItUE4JepGzTVwjETwBBj58xLUCgkAQQ9EKmvWanqwm6Hj7ooIPcFu7ybdejR4+2xx9/3D744AO34r7wwgvbyiuv7M5Wq3z44Yf26quv2pZbbumee+ONN9xzyy23nC2xxBL28ssvu9/rTPYyyyxjq6++epO4dAZen3v33XdN/96jRw9ba6213Dby77//3u677z7r1q2bbbHFFk0+9+KLL9qIESNcffPMM4/7nWJ87rnn7IsvvnDnmrVCq5XZesqwYcPstddeM/VX9anecnlsTtDffPNNe+mll1wfxebcc891/alni/s+++xjnTp1sk8//dTmnHNOW2mlldy5dF/++usve+WVVxxXrTAvuOCCtt566zkmlUVbxP/97387Dr///rt7dpVVVrGuXbtatS3uI0eOdHVPO+20tuGGG7qXNNrGv+qqq9occ8xRql6sVef6669v008/vd199932559/ulw9/fTTNmHCBJtvvvls7bXXtqmnnrombp03f/TRR23QoEHueMXBBx/sxsoGG2xgH3/8scudira8+3HSHHeNLeXsp59+cswqcybZV+zq52KLLWZLLrmkq5uSbwIIer7zS+8gkDQBBD1p4rQHgYIQQNALkug6u1lN0CVcG220kdvqfs0117hzwJIfSXv5WXU1oW3wktApp5yyJH4LLLCAvf/++00i0IVqEt/ycuSRR9pWW23lfiSx0ir+66+/3uQZiaq22UuQN954YxeTRF3SrSJp3WyzzZyIP/LII04afZ8qEehcvSS4VlFd2u5/2223NXlkqqmmsnPOOce9aFCpJYqXX365XXnllVWrr0fQq33w+OOPd/1WueKKK5zQVpZ//vOftvnmm5d+rFyJrV4wlBfdLaC+VQq6mOq8t56/+uqr3cuUq666yi677DK3/Vxi78vpp59ud955p91444220EILOYGvHBN6VvlS3vwLk8qYJdT77rtvkx9rnGm83X///XbiiSe636222mo2cODAmtz1IkeMHn744Um46HP6vMS8f//+k+T0qaee4o6FmrMhH79A0PORR3oBgVAIIOihZII4IJAzAgh6zhLaxu54md15552d5GnldejQoXb99de7FU2Jz7hx45xIS+COOOIItzr60UcfOWHUqmu/fv1sr732KomfPnf++efb7LPP7oRPMqcikVpzzTXdSqtW5r2Q6XcSY8WiFwOSS90mP3jwYCdsuqxOYqiYLrzwQid2fgu+hF5t63O6bEyrvhJorY4eeOCB1qtXL7dyr5cIElFJtH5WrTzxxBN2+OGHm14wKH7dqP7MM8/YoYce6lhIHPUiopqgS/b0nMRUl+4tuuii7mXD3nvv7ZqqR9DFVX2ffPLJbciQIXbWWWe5z0qI55prLnfTu8R5p512smmmmcbU5plnnml6gaCcTTHFFO5Fh1hImpUr/btePDz//POuD9q5UC7o6667ru25555ulf+kk05yq+cqjQq6ZFg7BjRGLr30UsequTsMtNKusaYdAIpfK/EdOnRwuwG0+0AveMS5JUG/4YYb7IILLnC7DfQCRqv9unBO40n16mWOcq8t9Pvtt59tu+22bmfIjz/+aNtss00bZw8fD50Agh56hogPAtkigKBnK19EC4HMEEDQM5OqRAKttdosST322GPdtnB/kdcOO+zgtiL7oi3tkhytpErCvfiVr+hK2CSB2lIs6fNl0003dave2uYskZLcqZSfedfqqLY8qw7Js/4uWZcE6zl9xZmkUhImeVesfmu+pEyru7742PQi4oADDqjKVoKnLeqnnnqqE0dfjjnmGPeiwtdZTdC17V5b06+99lq3hdqXtlwSp9VyvQTZfvvt7ZBDDmkSswRcIivplMxKcCWn/iWGhFUvM6oVz0L51XZ85aByd0Ejgq4jCKrDF8m3djXohYheNMw000w1x7JyVPl5Pawt6Xq50JygazzoJYCK8lP+9WxHHXWUE3W9aNFWf73k0PjV+PBHMhKZYDSSKgEEPVX8NA6B3BFA0HOXUjoEgTAIIOhh5CGUKLygS5S06iuRkVhpZVbnv1W0Mi0hlkjrjHJ5kWTr51pprna2Wd8XLsmqFHQvUBJLfdXWdttt1+TGbt/GYYcdZk8++WRpS7W2Pmt1VqvrOvess8blK/F6GSChl8RrJdqXX3/91f3cr8ZX4++3a1deWKZt4VrN9hfpVQq6ZFmf9V8RVl53WwRdq9rael6+Eq3YJO7iXl781nTtTNAzRx999CRn9f3zPk9i5G/s9y84/DNtEXTV4V9qaMv/UkstFYugf/bZZ6Wt/ZXnyX/44Qe3i0DjTDsmtOtAf9dLHO1q0AsMSv4JIOj5zzE9hECSBBD0JGnTFgQKRABBL1Cy6+hq5Rl0bYXWCrO2Q0ueddGXVmm10qrv6K52sZa2W+tiuNYKurYbS2QluVqlLi9+RVxSqnPsw4cPN62CawVeZ6VPPvlk9x3iEvPyFdVaZ811sV01OdO5e3/GXBfZlRe/g8Bv5a8UdF1qpiMAlS8hVEdbBP3zzz93K9G+Xm1j1xZ45UaXtC299NLuTLmOGXhB97nyZ8SrDQGfJ/1OLzd0LEC7IK677jp3tEClrYKuXQgaP1rB9rsjar0Uae0KunY7aOVfLxo0/qoVHanQOfhRo0a53Qh6uaOinR96+cNqeh3/I5HhRxD0DCeP0CEQIAEEPcCkEBIE8kAAQc9DFqPrQ7VL4rT6qi3Lfmu1Vo8lgroorfLm9fJIWivoOtets89a3dRKri/lwl1+MZwEXaKuC+R0Pl7bqP1qud9qru3Nlav9LVHz2+61G0C7AnzR9nL9zJ/RrhR0naVeY401nDjrorpy6WuLoOtSPb0U0IsRyaS23WsV+Pbbby9dvqYXGjfffHNJ0HX+/Y477mg2Vz5PEmed1dYf/az8q/Yk/DpL7l9+eBbVLomrJtj+uIDGl251r1XassVdN8HrCIS//K6l/Or3Gjd66aPdFM29xKinLp4JnwCCHn6OiBACWSKAoGcpW8QKgQwRQNAzlKwEQq0m6BIfrUhKBrWq+uWXX7qVW62yahVSXwWmolVnbSXWzekqrRV0rcr7W+P1IkDCpaLbyPv27evE96GHHiqt7moLt7Zyq5RfGKe/a2u+BFaXgUk4dU5dxd80Xi7elXj9efbyM/R+i76e9Ze1qV5ddKdt9rp0TcXLfflFa/q5tqjX+zVr2o7tV4LFVsx19l51apu2XmLopYQ4q+gFhmLRpWc+Fr1Y0QsWvezQzyTP/ll9VZ1WmyvzVH6xnFaYZ5llFrv33nvd7gRdHCgeKt999517aVMut/6cv15g+FKeNx2N0OV1tUojgl6Nu38hU/kiQWNYl/ypjBkzxl2Up50e5WOk/FsEEphqNJECAQQ9Beg0CYEcE0DQc5xcugaBNAkg6GnSD6/tWt+DLhnVaqkui9OqtlaRX3jhBdcBSZEu/tLZcEmiViK1Nbq1gq7LzbxYSsZ1mZfq1YVrEuvKS9t0Zl1nyfU7fU6f8UWy6W+c18+1RVxyJuHUZ7QSXatoG7RWq1W0Si/B08q9LmFTnyW+KuWx6tZ33b4uFr5uibS46fvKJfIq9dzi7tvVsQJJt996Lv5ale/du7c7M67z+nqJoV0C2t6uoq3tWq2X2OtWe23/lsxrhVn91/b4Ll26uK3r1fLk+6RVdW1L143x/mWBjg+IhV6S+K9uq/yaNYm2XlboXLjGjopeonietZg3IujVuPtt7qpfL5B0b4K+I167CLTzQ1vc/W4AvVzQbg2NeY0df7FeeLOSiKIigKBHRZJ6IAABEUDQGQcQgEAsBBD0WLBmttJagi7R23XXXd2WYImnvotbX1Gm7dS+aDVWAqztzOWCXv7d3bqcTd+jXXk+218iVi5JkkhJlZdACba+ukyCWFm0/VqrpGqrski0VY8k1xfJm6S7Wl3lnx85cqRbsdaqty/6Sjet5OtrwFR0e7okVqvbOgvub1jX9nZ93ZiPX5KuVWv9vSVBV33/+Mc/nHT7olV51S1hV3nvvffcd4vrngAVnR/ff//93YVsEnd/dl7yefHFFzf5PnftHNC5a53N18sKrTiX50n1qS69hPHfH66jA+V8JezKp3YwVAq6clWeN932r5cDLZVagq7+6EWHBNt/3Vwt7lqx19Z+fauALyuuuKLrq3YSaFfAPffc415aqGgsqi/+K+VaipHfZ5cAgp7d3BE5BEIkgKCHmBVigkAOCCDoOUhiil2QuOsrsHS+2291jzocbZvXqm/5ynhlGxJFrbJ37ty5ZvNaaffbur1c1xurJFer8XoJ4bfJV35WMer8edeuXZv8SvHrhUX5z5sTBbWjWLVKLQnV57VDoVa72mqufpdvX5fQamt6eVGutJosOVcsrbkQTYxVt77CrPxWfN+OF2y9nFBcesZvJa+XdaPP1eIujuInjtX6quMK6k9lvhptn+ezQwBBz06uiBQCWSCAoGchS8QIgQwSQNAzmDRCzjyBvIpCrRXwzCeMDuSCQF7nXS6SQycgkEECCHoGk0bIEMgCAQQ9C1kixrwRyKsoIOh5G6n56k9e512+skRvIJAdAgh6dnJFpBDIFAEEPVPpIticEMirKOhr3nRLe//+/XOSKbqRJwJ5nXd5yhF9gUCWCCDoWcoWsUIgQwQQ9Awli1BzQwBRyE0q6UiGCDDvMpQsQoVABggg6BlIEiFCIIsEEPQsZo2Ys04AUch6Bok/iwSYd1nMGjFDIFwCCHq4uSEyCGSaAIKe6fQRfEYJIAoZTRxhZ5oA8y7T6SN4CARHAEEPLiUEBIF8EEDQ85FHepEtAohCtvJFtPkgwLzLRx7pBQRCIYCgh5IJ4oBAzggg6DlLKN3JBAFEIRNpIsicEWDe5SyhdAcCKRNA0FNOAM1DIK8EEPS8ZpZ+hUwAUQg5O8QWIoFevXq5sPr27dvkn43EyrxrhBbPQgACLRFA0FsixO8hAIFWEUDQW4WND0GgTQQQhTbh48MFJOAF3Xe9NaLOvCvgwKHLEIiRAIIeI1yqhkCRCSDoRc4+fU+LAKKQFnnazSqBSkFvjagz77KafeKGQJgEEPQw80JUEMg8AQQ98ymkAxkkgChkMGmEnCqBWoLeiKgz71JNIY1DIHcEEPTcpZQOQSAMAlEJ+uDBg8PoEFFAIAMERn81wUU53cxTZCBaQoRA+gTq/f+Y5ra+I+jp55EIIJAnAgh6nrJJXyAQEIGoBL2l1Y2AukwoEIAABCCQcwKDBg2ynj17Nuklgp7zpNM9CCRMAEFPGDjNQaAoBKIS9GHDhhUFGf2EQJsJaN6pTD/LFNapc/s210cFEMg7gX79+tXVRUm5VtEr5VwfRtDrQshDEIBAnQQQ9DpB8RgEINAYgagEvbFWeRoCxSaAKBQ7//S+cQIt7dJqTsx9a8y7xrnzCQhAoDYBBJ3RAQEIxEIAQY8FK5VCoFkCiAIDBAKNEagl6PWIOYLeGGuehgAE6iOAoNfHiacgAIEGCSDoDQLjcQhEQABBjwAiVRSKQKWgNyLmCHqhhgqdhUBiBBD0xFDTEASKRQBBL1a+6W0YBBD0MPJAFNkh4AW9NWKOoGcnz0QKgSwRQNCzlC1ihUCGCCDoGUoWoeaGAIKem1TSkYQI6JK4Wpe/1RsC865eUjwHAQjUQwBB2iEaeAAAIABJREFUr4cSz0AAAg0TQNAbRsYHINBmAohCmxFSAQQaJsC8axgZH4AABJohgKAzPCAAgVgIIOixYKVSCDRLAFFggEAgeQLMu+SZ0yIE8kwAQc9zdukbBFIkgKCnCJ+mC0sAUShs6ul4igSYdynCp2kI5JAAgp7DpNIlCIRAAEEPIQvEUDQCiELRMk5/QyDAvAshC8QAgfwQQNDzk0t6AoGgCCDoQaWDYApCAFEoSKLpZlAEmHdBpYNgIJB5Agh65lNIByAQJgEEPcy8EFW+CSAK+c4vvQuTAPMuzLwQFQSySgBBz2rmiBsCgRNA0ANPEOHlkgCikMu00qnACTDvAk8Q4UEgYwQQ9IwljHAhkBUCCHpWMkWceSKAKOQpm/QlKwSYd1nJFHFCIBsEEPRs5IkoIZA5Agh65lJGwDkggCjkIIl0IXMEmHeZSxkBQyBoAgh60OkhOAhklwCCnt3cEXl2CSAK2c0dkWeXAPMuu7kjcgiESABBDzErxASBHBBA0HOQRLqQOQKIQuZSRsA5IMC8y0ES6QIEAiKAoAeUDEKBQJ4IIOh5yiZ9yQoBRCErmSLOPBFg3uUpm/QFAukTQNDTzwERQCCXBBD0XKaVTgVOAFEIPEGEl0sCzLtcppVOQSA1Agh6auhpGAL5JoCg5zu/9C5MAohCmHkhqnwTYN7lO7/0DgJJE0DQkyZOexAoCAEEvSCJpptBEUAUgkoHwRSEAPOuIImmmxBIiACCnhBomoFA0Qgg6EXLOP0NgQCiEEIWiKFoBJh3Rcs4/YVAvAQQ9Hj5UjsECksAQS9s6ul4igQQhRTh03RhCTDvCpt6Og6BWAgg6LFgpVIIQABBZwxAIHkCiELyzGkRAsw7xgAEIBAlAQQ9SprUlRsCEydOtPbt2+emP412ZPjw4fbzzz9bz549rV27do1+3D3fVkGvN4ZvvvnGPvnkE5t77rlthhlmaFWsjXwo6fbqiW3MmDGOwfTTT2+zzDJL1ZzVy7Oe9ngmXAKIQri5IbL8EmDe5Te39AwCaRBA0NOgTptBEjjttNPsrrvuKsU21VRT2eKLL2577723+2eRym677WZvv/22Pfvss9axY8dWdb2tgl5vDMqZcnfcccfZJpts0qpYG/lQ0u21FNsNN9xgF1xwQemxBx980Dp16mQ77rijG7ennHKK+129PFtqj9+HTQBRCDs/RJdPAsy7fOaVXkEgLQIIelrkaTc4AgMGDLCnn37aZpttNuvSpYt9+umn9ssvv7g4+/fvb7vuumtwMccVUBQyh6DHlZ3/r/edd96xXXbZxY3Zfv362XTTTWcrrLCCff3119a7d2/383vvvRdBjz8VwbSAKASTCgIpEAHmXYGSTVchkAABBD0ByDSRDQJe0G+88UZbaKGF7M8//7SbbrrJrU7OOOOMppXJohQEvXamQ1pBv/zyy+3KK6+0M844w9Zee+0mQX/11VfWuXNn90clipwWZfxnuZ+IQpazR+xZJcC8y2rmiBsCYRJA0MPMC1GlQKBS0BXChAkTnPhoJf3OO++0ueaay0X2wQcf2HPPPWdffPGFzTrrrLbsssvaIossUor6+eefd5/Vz4cMGWIffvihzTnnnLbaaqs52X/yySftP//5j9s+vsYaa9jCCy/cpMc6U/zEE0/Y+++/b926dXN1r7zyyjbZZJOZVk1ffvll9xmtlpaXe+65x3744Qfbbrvt3Dbn33//3YYOHWojRoywDh062DzzzGPrrLNOi9vWa8mczuY//vjj9u6775r+vUePHrbWWmtNUt/YsWPt3tsfd/3uMOVEW3KZRWyVVVaxrl27unC//fZbt1vB/b5DB1fHEkss4frnS71C6YV5n332cX3WzgexXmmlldy59PLy3nvv2UsvvWSff/65de/e3dZff333bGVR/P/+979dnsVwwQUXLMVfTdBHjhxpr7zyik077bS24YYb2ltvveWOCKy66qo2xxxzlKp/8cUXXZ1qV+fFNU4++ugj69WrlxtPOt+uMSZWs88+e81ZIPb/+te/7KGHHnK50O4Otb3tttu6vqkuFa2gr7766u7fm+Op8fTaa6/ZTz/95JjpMxqnvoiH+jds2DAX35JLLmkLLLBAq+8nSGF6F6ZJRKEwqaajARFg3gWUDEKBQA4IIOg5SCJdiIZANUH/7LPPbPPNN3cNSHqmnHJKu/XWW+3ss8+epNE99tjDJIkqRx99tD366KNO/iSMvuhcu6RJ4l1ebr75Zie7KpLI/fff30aPHt3kGYn86aefbqNGjbItttjC1XP33XeXJOnLL7+0jTfe2InTLbfc4mTvwAMPnKQtfe6iiy6qKqa+wWoyJ3kTo9dff71JXOrjJZdc4i4nU5HoHXnkkZPEP++889ptt93mJHDNNdechJ9+f+2115oYqTQq6NVGwfHHH++YqEiOdVShsuj3es6XluKvFHRx1nlv5evqq692Lxquuuoqu+yyy+y8885zsu2L8qcXPX6Xhh8n1WI/66yzqnLSs3r5oxcQlUUvFfRC5sQTT3S/0guhgQMH1uQp0VffH3744Unq0uf0eb2c2myzzSbJp3KpnFHCIoAohJUPoikGAeZdMfJMLyGQFAEEPSnStBM8AS/o2i6sFVOt8l5//fXuojQvcVoVlThKciW/WvnU6uO5557rhFhbjvUzL14rrriiHXvssW67vERIK5ASUAmtVlYldJLzPffc011GJ2Hq06ePW1mW5OrlwLhx41x9Wvk96qijbMstt7QDDjjArb5eccUVtvTSSzu2quvSSy917She/8z2229vW221lYtBUqU/+ow+W6tUk2O9lNDLiY022sjFplvuBw8ebNdcc41blZd8Sr71e0ldv90PsRWXWdemnWlyG/HBK+589DLLLOOa1AuC+eabz+0w0IsF/V3if9BBBznZVWlU0LXTQXFNPvnkbteCBFfF73z4448/7JhjjnEsJJbK5amnnurE87rrrrNFF120SfxHHHGE68tff/3lWPv4ywV93XXXdbnTKvZJJ53kVs9VGhX0vfbay50lV4z333+/k2qNE/VD9yFUK9opoVwrNuVeY1Ixjh8/3r2UEb+WBN1fMCfZ1wsmjcnHHnvMvYBS+/fdd5/byaFL+LQbQBfOqa/a/XDwwQcHP6eLGCCiUMSs0+e0CTDv0s4A7UMgXwQQ9Hzlk960gYAX9MoqtHItWdOWaAmkhF1CLmHxxUvbzjvv7MTYC/rtt9/utpWrSHQOP/xwk4zpQi8VSb2kTqvQqkOyv++++05y5v3jjz92YulXxxWDYtl0001LLwAkk5J5rdxL8BWLntcLAL91XC8ANthgAyelisdvOa/sc6Uc//bbb26LvcoDDzxgM888s/v3yvq0xf7CCy90q7uH73+m/Tpuok0/yxQ23cxTVM2MXhr8+OOPbvv0P//5TyfEJ5xwgnu2UUGvvMV90KBB7iWEXlAccsghTdrXtnUdI9CKvbaK+5caeiHj49c/qxWfa7140UsT8S7fPaHPNCro5ccn9Hm9SNCqtsRYLwFqFb2wkVBrJ0X5VnqdPxfL5gRduVt++eVd1WpL49sXX+/555/vXrZoPGtbu16k+B0ObZhqfDRGAohCjHCpGgI1CDDvGBoQgECUBBD0KGlSV6YJeEHXOV5drCXJUtEq5kwzzeT+XbIkudX5XK3U+vLrr7+6n/uVZC/o5eKllU7Je9++fd0fXyT6Oosu0bvjjjvchV+Sca0GlxetzKtIZiW2WiWX4D/zzDPuXLq213tR1Cqs3+asldXyonPzKloN1yp2tVIpx//973/dufbyW8H95w477DB3pl7btvUyQJfpqf/LLb5BTUGXQGq1v/LiPe04kASqtFXQtdKr1XhJqHYsqOhsuF+tL++3jhRoBVuS7+PXMYJqxQu6xoD4q0jsy+8gaKugS7i1uq+XNbvvvnvNedUWQS8/vlE5RrQ6LzFX/RJ9jSvx1Aq9dgxoF4d2UFDCI4AohJcTIso/AeZd/nNMDyGQJAEEPUnatBU0gcoz6JI6bd/2q5DlK47+rHllh3Rxm1aPWyvofgVXK+3bbLNNqfrytiX6U0wxhbthXmectbVa56slln51W3Er/p49e9pyyy03CXetqEu4a62GVsqx39qvlwnaPVBe/K4CrVhrq7VWlSXrndvPVVXQtXq9ww47uFV+Cbl2KKhotThKQddlaTo7rZVfCbP/u9rSrgXtCJCwawXdC/p+++1Xil83+Tcn6PqdvmdcbPSstsl7aW2roOvyN63Q+x0ZtSZOWwT9zTffdOKtFw0S7mpFdwVoB4hkXeNNW+L17zoioW3w00wzTdBzuojBIQpFzDp9TpsA8y7tDNA+BPJFAEHPVz7pTRsIVAq6tnVrFVWrpJIRiaT+rkvftK1Yt2bXKq0VdK2i67NaNdXqqS/Dhw93slb+dW/aGq5z1/4iOr96r8/oojCtwFfb3l0PokpB91vxtUqslwi+lL840Hll/U67AM455xybf7blqwq6f7EgSdbLBRXtPtDuhCgFXef9dZRgk002cSvj/kWCxFdHA1S08q8dAF7QtXvBx+9vP6/k5VfQJfgaF/qjn2n86P4AFX8fQOUW9VqXxFVucdfZfv3xdw7EIei6Y0HHHfzlffWMi++++84dRRDb8v7W81meSYYAopAMZ1qBQDkB5h3jAQIQiJIAgh4lTerKNIFqt7j7bena2isJ06q0zpVrG7yeb9euneuzVhVV/Ip0awXdbzuWiGubs26NV9F3XesCunKp1c9PPvlku/fee0vPLLXUUu7f/Y3u+vfK88kSsxlmmKHZXHkWkkRd7KYt9drqLFEvv71bN55ru774aNVXX8Gmvkvkjz/iAvtzwuTuDHq3Gdrb999/714weEktv6VcK9l6KaEVf63Eq1TGUCtgL8zlMqt49YJC5+z95W2Scm3v10sQxauiM+gXX3yxu6BPW7f9CxLFr77r6IGKXkT4+CtvcS+/GE9HC3SbvXKi3OiSPwmtiuRWL0z0MqLyFvdyQdfvtfKvMaXb+HWPQK3SyAp6NZ7+hVPli4TyMSKWGpf+Kwb9yx+9HNILDUpYBBCFsPJBNMUgwLwrRp7pJQSSIoCgJ0WadoInUE3QFbSXIG05l8jpfLgkSpInkdIt3xIyrWBrNValtYKuz/pVXEmipFhbs3W2u5ps6/vNd9ppp9LlceWQvXzqZ9qarq3e+u51rRqXX/RWLTFeVNVHbbeXjJX/TFvUJa1qQyKp89LrrbeeE3ldgqft07POMoettOza1qlzO3vuxSfdbeTa+q2t+FrR1sqtWGongGRYpfzm8moxVIvVC7N+p10GU089tbvIz28916q+XqT4lxla+daxBbHwLzd0Tl2irlz6+LUzQSvM+pmk1Mdf7XvQfayqWxerffLJJ6Vt49oZoBcieoHhvzqvUtAl4fpudH3fuF6AiGnly5hqfW9E0Kvx9NvcVbe26ev76L/++mu3i8C/QHnjjTfcywvFp+3uupNBu0jKb60PfnIXKEBEoUDJpqvBEGDeBZMKAoFALggg6LlII52IgkAtQfdbgdWGzuB269bNyYsk0BfJjeTQ37jtBb189dp/D3dzl8SpPomvbh+XlPuVedWvrdn6+rfKona1ot+7d+8mv5Is61Z1fxO3F2BJmM5al9/aXVmntvfrc1qBlpj5W9Alquq7F00J/KGHHtrkpnHFLNmVaPoi8dYLDp3d1/l3nZHXJXWqR7/TWWj1WxfHqS2tNNeKoTJWCbNi/cc//uGOHviiFXPVJWFX0YsA1a/nVbSaL8HV6rVyqdzqDoGW4pfUa8W5/DvWVZ+2yb/wwgvuK9L0AkAiW/796jrnrcsE9YKiUtDF0TMVj6233tqx6tChQ7ND29/2XrlLwh9J0Bly/3VztXhqF4ReCulOAF901EDt6yWRJF4vOfTVaip6caFxrnHsd5BEMf+oIxoCiEI0HKkFAo0QYN41QotnIQCBlggg6C0R4vcQqEFA3zfttz23JFKtgaiVW4mWVm6b+2or3bitZ5qLQS8ZdOt8o5d6KQat6lZ+HZva1O/8VvFq/fv0vZ/ti8++slnm7GZzLTB96ave/LO6LE71aHXZfw2ctourlLdXKwZfjz6jXKgeSajq1K37teRR/VGd5W2Ij1686PI9X/SCQ6vJYq9nfYyN5FIvHZRDvQwpv/Xf11G+00J3Gij+ch6NtFXvs7V4imNz7es72n2+6m2L55IngCgkz5wWIcC8YwxAAAJREkDQo6RJXRCAQInA5+//2uL3oBcdV7WjEEVnQv/bRgBRaBs/Pg2B1hBg3rWGGp+BAARqEUDQGRsQgEAsBBD0lrEi6C0z4onGCCAKjfHiaQhEQYB5FwVF6oAABDwBBJ2xAAEIxEIAQW8Zq87D66K//v37uy32FAi0lQCi0FaCfB4CjRNg3jXOjE9AAAK1CSDojA4IQCAWAgh6LFipFALNEkAUGCAQSJ4A8y555rQIgTwTQNDznF36BoEUCSDoKcKn6cISQBQKm3o6niIB5l2K8GkaAjkkgKDnMKl0CQIhEEDQQ8gCMRSNAKJQtIzT3xAIMO9CyAIxQCA/BBD0/OSSnkAgKAIIelDpIJiCEEAUCpJouhkUAeZdUOkgGAhkngCCnvkU0gEIhEkAQQ8zL0SVbwKIQr7zS+/CJMC8CzMvRAWBrBJA0LOaOeKGQOAEEPTAE0R4uSSAKOQyrXQqcALMu8ATRHgQyBgBBD1jCSNcCGSFAIKelUwRZ54IIAp5yiZ9yQoB5l1WMkWcEMgGAQQ9G3kiSghkjgCCnrmUEXAOCCAKOUgiXcgcAeZd5lJGwBAImgCCHnR6CA4C2SWQlKAPGzbMQar8Zy1y/rmePXuWHin/d/9D/azaz7ObESIvAgFEoQhZpo+hEWDehZYR4oFAtgkg6NnOH9FDIFgCUQl6uXj7fy8X8noA1BLt8vpq1VMu6kh7PbR5Jk0CiEKa9Gm7qASYd0XNPP2GQDwEEPR4uFIrBApPICpB79Wr1yQsK1e//d/buuJd7QXA4MGDq7avtvr27Vv4PAMgLAKIQlj5IJpiEGDeFSPP9BICSRFA0JMiTTsQKBiBqARdghyVgLclBZJ3L/Dl0u4lHVlvC10+GxUBRCEqktQDgfoJMO/qZ8WTEIBAywQQ9JYZ8QQEINAKAlEJeiuaTuQjXtIrZR1RTwQ/jdQggCgwNCCQPAHmXfLMaRECeSaAoOc5u/QNAikSyLugl6OVpHtRl6Aj6SkOvII3jSgUfADQ/VQIMO9SwU6jEMgtAQQ9t6mlYxBIl0CRBN2TRtTTHXO0boYoMAogkDwB5l3yzGkRAnkmgKDnObv0DQIpEiiioAu3JN2fV2c1PcUBWNCmEYWCJp5up0qAeZcqfhqHQO4IIOi5SykdgkAYBIoq6J5+v379nKgj6WGMx6JEgSgUJdP0MyQCzLuQskEsEMg+AQQ9+zmkBxAIkkDRBV1J8ZI+aNCg0k30QSaLoHJDAFHITSrpSIYIMO8ylCxChUAGCCDoGUgSIUIgiwQQ9L+zpu9x19fESdIpEIibAKIQN2Hqh8CkBJh3jAoIQCBKAgh6lDSpCwIQKBFA0P9G4S+OYxWdyZEEAUQhCcq0AYGmBJh3jAgIQCBKAgh6lDSpCwIQQNArxoDOoWurO6voTI4kCCAKSVCmDQgg6IwBCEAgPgIIenxsqRkChSbACvr/p59t7oWeCol2HkFPFDeNQcARYN4xECAAgSgJIOhR0qQuCECAFfQqY0CCzm3uTI4kCCAKSVCmDQiwgs4YgAAE4iOAoMfHlpohUGgCrKD/nX5/Bh1BL/R0SKzzCHpiqGkIAiUCzDsGAwQgECUBBD1KmtQFAQiUCCDoTQX91VdfZXRAIHYCiELsiGkAApMQYN4xKCAAgSgJIOhR0qQuCEAAQS8bA6yeMyGSJoAoJE2c9iDAGXTGAAQgEC0BBD1antQGAQj8j0DRV9C5vZ2pkAYBBD0N6rRZdALMu6KPAPoPgWgJIOjR8qQ2CEAAQS+dOxcKvv+cKZEkAUQhSdq0BYG/CTDvGAkQgECUBBD0KGlSFwQgUCKQxAq6VqlVRowYYTvuuGMQ9P22dn3vuS6G0z8pEEiKAKKQFGnagcD/E2DeMRogAIEoCSDoUdKkLghAIHZB91I+cOBAGzlypHXp0sU22mgjGzBgQKr0FZfkXP+UlGvlnAKBpAkgCkkTpz0IsILOGIAABKIlgKBHy5PaIACB/xGIcgXdy++XX35po0aNmoTxZZddZssuu2zi7Mul3DfO16klngYaLCOAoDMcIJA8AeZd8sxpEQJ5JoCg5zm79A0CKRJoq6CXy++ss85aVcx994YOHWrTTDNNIr31K/h+tVyNsp09EfQ0UgcBRKEOSDwCgYgJMO8iBkp1ECg4AQS94AOA7kMgLgKtFXR/+3m9cXXs2NGeffbZeh9v+LlqQu4rQcwbxskHYiaAKMQMmOohUIUA845hAQEIREkAQY+SJnVBAAIlAq0VdF/BiSeeaE899ZSNHTu2WaqTTz65LbHEElUvY2vkgjYv4pX/LG9c9ZX/Id0QCI0AohBaRoinCASYd0XIMn2EQHIEEPTkWNMSBApFoK2CLlj+RvTmwE099dT2888/R8q2XOwR8kjRUlnMBBCFmAFTPQSqEGDeMSwgAIEoCSDoUdKkLghAoEQgCkGvR9L79OnT5AZ3vwLuA6n8e3mKKlfYG1lxJ9UQCJEAohBiVogp7wSYd3nPMP2DQLIEEPRkedMaBApDICpB98BqraandYN7YRJJRzNFAFHIVLoINicEmHc5SSTdgEAgBBD0QBJBGBDIG4GoBb3WanqSN7jnLUf0J38EEIX85ZQehU+AeRd+jogQAlkigKBnKVvECoEMEYhD0NV9bVkfOHCgjRs3zkaPHh3rDe4Zwk2oEHAEEAUGAgSSJ8C8S545LUIgzwQQ9Dxnl75BIEUCcQm675K+Wu3RRx+1k046KcVe0jQEwiKAKISVD6IpBgHmXTHyTC8hkBQBBD0p0rQDgYIRiFvQC4aT7kKgLgKIQl2YeAgCkRJg3kWKk8ogUHgCCHrhhwAAIBAPAQQ9Hq7UCoHmCCAKjA8IJE+AeZc8c1qEQJ4JIOh5zi59g0CKBBD0FOHTdGEJIAqFTT0dT5EA8y5F+DQNgRwSQNBzmFS6BIEQCCDoIWSBGIpGAFEoWsbpbwgEmHchZIEYIJAfAgh6fnJJTyAQFAEEPah0EExBCCAKBUk03QyKAPMuqHQQDAQyTwBBz3wK6QAEwiSAoIeZF6LKNwFEId/5pXdhEmDehZkXooJAVgkg6FnNHHFDIHACCHrgCSK8XBJAFHKZVjoVOAHmXeAJIjwIZIwAgp6xhBEuBLJCAEHPSqaIM08EEIU8ZZO+ZIUA8y4rmSJOCGSDAIKejTwRJQQyRwBBz1zKCDgHBBCFHCSRLmSOAPMucykjYAgETQBBDzo9BAeB7BJA0LObOyLPLgFEIbu5I/LsEmDeZTd3RA6BEAkg6CFmhZggkAMCCHoOkkgXMkcAUchcygg4BwSYdzlIIl2AQEAEEPSAkkEoEMgTAQQ9T9mkL1khgChkJVPEmScCzLs8ZZO+QCB9Agh6+jkgAgjkkgCCnsu00qnACSAKgSeI8HJJgHmXy7TSKQikRgBBTw09DUMg3wQQ9Hznl96FSQBRCDMvRJVvAsy7fOeX3kEgaQIIetLEaQ8CBSGAoBck0XQzKAKIQlDpIJiCEGDeFSTRdBMCCRFA0BMCTTMQKBoBBL1oGae/IRBAFELIAjEUjQDzrmgZp78QiJcAgh4vX2qHQGEJIOiFTT0dT5EAopAifJouLAHmXWFTT8chEAsBBD0WrFQKAQgg6IwBCCRPAFFInjktQoB5xxiAAASiJICgR0mTuiAAgRIBBJ3BAIHkCSAKyTOnRQgw7xgDEIBAlAQQ9ChpUhcEIICgMwYgkCIBRCFF+DRdWALMu8Kmno5DIBYCCHosWKkUAhBgBZ0xAIHkCSAKyTOnRQgw7xgDEIBAlAQQ9ChpUhcEIMAKOmMAAikSQBRShE/ThSXAvCts6uk4BGIhgKDHgpVKIQABVtAZAxBIngCikDxzWoQA844xAAEIREkAQY+SJnVBAAKsoDMGIJAiAUQhRfg0XVgCzLvCpp6OQyAWAgh6LFipFAIQYAWdMQCB5AkgCskzp0UIMO8YAxCAQJQEEPQoaVIXBCDACjpjAAIpEkAUUoRP04UlwLwrbOrpOARiIYCgx4KVSiEAAVbQGQMQSJ4AopA8c1qEAPOOMQABCERJAEGPkiZ1QQACrKAzBiCQIgFEIUX4NF1YAsy7wqaejkMgFgIIeixYqRQCEGAFnTEAgeQJIArJM6dFCDDvGAMQgECUBBD0KGlSFwQg0PAK+pgxY+yTTz6x6aef3maZZRZr164dFCEAgVYSQBRaCY6PQaANBJh3bYDHRyEAgUkIIOgMCggUjMBrr71ml112mV188cU25ZRTNun9+++/bwceeKD17t3b9ttvv4bJ/PXXXzbZZJO5z5WvoA995h678sor7dxzz7XFFlusVO8NN9xgF1xwQenvDz74oM0444wNt6sP3HjjjXbzzTfb4YcfbquvvnqTOp5++mk788wzbbvttrOdd965VfXzIQhkgQCikIUsEWPeCDDv8pZR+gOBdAkg6Onyp3UIJE7gxRdftP79+9s222zjZLa8jBgxwnbaaSfbaqut7Mgjj2wotuuvv95J8iOPPOIkvVzQB197rt1xxx12xhln2Nprr+3qfeedd2yXXXax2Wabzfr162fTTTedrbDCCg21Wf6wXjpcddVVduqpp9p6663XpJ5HH33Ujj76aNt9991t3333bXUbfBACoRNAFELPEPHlkQDzLo9ZpU8QSI8Agp4ee1qGQCoEvKCrca1or7rqqqU42iLoEv4PP/zQXnk21on/AAAgAElEQVTllUkEvWv3dvb555/b3HPPXWrr8ssvd6vq5dLeFiAIelvo8dm8EEAU8pJJ+pElAsy7LGWLWCEQPgEEPfwcESEEIiVQLuhTTTWVW9n228prCfrHH39szz//vDsrrhXvZZdd1hZeeOFSXPfee68NHDjQfvnlFzvooIOcoM/QdT6bZ/bF7NX/PGp/tvvVPbvBBhtYt27d7F//+pc99NBD9u6779quu+5q0047rW277bZ2zz332MSJE93qvt8qr899//339vDDD7u2K7ev+yAaFfSvvvrKxGLkyJFu2/2SSy7p6vdl9OjR9vjjj9sHH3zgVvfV35VXXrkU16hRo+zJJ5+0RRdd1Dp37mzPPPOMffvtt7bhhhva4osvHmnOqAwC9RJAFOolxXMQiI4A8y46ltQEAQiYIeiMAggUjIAXdAnpm2++aT179rRLL73U2rdvb8OHD3dntLfccks76qijHBmdCz/uuOMmoXTAAQeUznOvu+66JqEtL3222t02WW9n2+ewLezHH//+3U033WTzzDOPrbTSSpPU9+9//9tOPPFEGzp0qNuqrvh80dlyrfYfdthhTuSrlUYEvfwlha9LLyueeuopd0mdzunrRYNeOJSX5Zdf3sWhs/uVHP1zd999t80xxxwFG1V0NxQCiEIomSCOIhFg3hUp2/QVAvETQNDjZ0wLEAiKgBfLPffc0zp06GDaar7PPvvYHnvsMYmga5V5o402MsnrhRdeaEsttZRbUd5///3tm2++cSvh888/v1v17tOnj9vi/sILLzjJHfXBb/bbz39Z+04/2xXXnW+PPfaYE/QFF1zQfvjhBzv++OPdqvzVV1/tVq61Sv3SSy+58/GbbrqpHXvssSVuO+64o1tt1yp69+7d2yzoeuGgFw+6CE/C/+yzz9qPP/7oVu5/+ukndwZfLxyOOOIId2b+o48+siuuuMJt39d5+b322qsk6ApG59p32GEHt8OgR48eQeWbYIpFAFEoVr7pbRgEmHdh5IEoIJAXAgh6XjJJPyBQJ4FyQZdo9u3b162kS5Ql7OUr6IMHDzb92WKLLdwla75oK/opp5xiEmetNKs0dwb98qvPsbvuuqsk6HpeK/SS9vIVZ4m+tsFLjrVlXC8GPvvsM9t8883dqrteEtQqjaygn3766XbnnXc6qfZb8n29eolw3nnnud8dfPDBpeb08kF9XGihhdxleJ6jYtRWd+1AoEAgbQKIQtoZoP0iEmDeFTHr9BkC8RFA0ONjS80QCJJAuaDvvffe7vK2zTbbzJ1D18qyVrD9Fnfd5K4t56eddpppG7sv7733nhPY1VZbzZ09j0rQVY9WqgcNGuS2u+vr3q677jq76KKLJomhEm4jgq6Vbt1Wry3siyyyiImD33Z/wgkn2AMPPOBeDuhsfHn54osv3M/18sBzLD8OEGTCCapQBBCFQqWbzgZCgHkXSCIIAwI5IYCg5ySRdAMC9RKoFHR9bsiQIW7LubaZa/XaS6e2smvLut+a7tvwZ9WXXnppJ9RRCrouX9tkk03M1+1X5nVGvVOnTjW76QX9pJNOche1lRd/jr78a9bUjmK///77S/HrjLteUGirvWIovzTO1zfNNNM4PtU41psDnoNAXAQQhbjIUi8EahNg3jE6IACBKAkg6FHSpC4IZIBALbH0W87VBS/ofiv4xRdf3OQ7yv2lbeVnxb1I6zx3x44dm3wPer1b3D0+/2LgnHPOsUMPPdQ23nhj9wKhuXLDDTfYBRdcUPVZvyruz9qX16OXDdrmrhcT2rp+33332W233WZqu9aN8fo8gp6BwV7AEBGFAiadLqdOgHmXegoIAAK5IoCg5yqddAYCLROoJZbll6N5Qfcrz+uvv747c67y119/uUvRdGGatsRrpVnFS7W/gf3z93+1X8dNtOlnmcIaFXRtq9f2el90y/xyyy3XbOf0YsCfh9f58rnmmss978+w6991hl1b2ceMGeP6odVwlTPPPNNuv/1216Z+pn/qrLlW2P2q/Z9//ukut5t++undZxD0lscaTyRPAFFInjktQoB5xxiAAASiJICgR0mTuiCQAQLNiaWkW6vMXtDLb2dfZ5113LZzbf9++umnbc4553QrzbpYTsXLvLaF6+z4yBGf2B7bH2ozzTF1w4I+fvx4U3s6I65t9/rO9JYuYfvjjz/cd6rrtncVxSqp1gV4Kvpucgm34tWFeJL+7bff3n1l2q233ura0oV1s88+u+kr5LS1X0UX5M0000zuIjjx0Cq7YkHQMzDYCxgiolDApNPl1Akw71JPAQFAIFcEEPRcpZPOQKBlAi+//LJbAdft7fpTWbTK/PPPP5e+B11fP6ZL4p544onSo2ussYa71b38EjUJ7oABA9zKui/nnXqTLbrkPDbomoHu1vRbbrnFFlhgAffrY445xn1tWq3vDT/88MNdm7vssotbna+nfPvtt+5COb0sKC964aAXD37FXOfOdRO9l3d957qe8WfX1Rd9/Zy28vuiS/R0mZ6+jk6C3hLHeuLlGQhETQBRiJoo9UGgZQLMu5YZ8QQEIFA/AQS9flY8CYFCEPj999/dd4H7rdy+01qh1nefzzDDDDb55JPXZPHdd9+53/3yfScb/8tfbov7dDNP0TA7f4N8udTXW4n6oO9wn2yyyWzmmWcurfJXfl4vIrQq3rVr16pVawVe9ehFRHMX1NUbF89BIG4CiELchKkfApMSYN4xKiAAgSgJIOhR0qQuCECgRKD8DHojgq7vG9eN7VoJ12q7BJ0CAQjURwBRqI8TT0EgSgLMuyhpUhcEIICgMwYgAIFYCLRG0LXyveKKK7p4tKX8yiuvtFlnnTWW+KgUAnkkgCjkMav0KXQCzLvQM0R8EMgWAQQ9W/kiWghkhkBrBF1byv0t8LrUjW3lmUk3gQZCAFEIJBGEUSgCzLtCpZvOQiB2Agh67IhpAALFJNAaQS8mKXoNgegIIArRsaQmCNRLgHlXLymegwAE6iGAoNdDiWcgAIGGCSDoDSPjAxBoMwFEoc0IqQACDRNg3jWMjA9AAALNEEDQGR4QgEAsBBD0WLBSKQSaJYAoMEAgkDwB5l3yzGkRAnkmgKDnObv0DQIpEkDQU4RP04UlgCgUNvV0PEUCzLsU4dM0BHJIAEHPYVLpEgRCIICgh5AFYigaAUShaBmnvyEQYN6FkAVigEB+CCDo+cklPYFAUAQQ9KDSQTAFIYAoFCTRdDMoAsy7oNJBMBDIPAEEPfMppAMQCJMAgh5mXogq3wQQhXznl96FSYB5F2ZeiAoCWSWAoGc1c8QNgcAJpC3ow4YNq0lIv+vZs2fp9+X/HjhWwoNAswQQBQYIBJInwLxLnjktQiDPBBD0PGeXvkEgRQJxCboX71r/jKLLXtj9P/v27RtFtdQBgdgJIAqxI6YBCExCgHnHoIAABKIkgKBHSZO6IACBEoGoBL1fv36uzuZWxOtZDa+2Sl5ZZ/nfq7XnRV11serOYA+RAKIQYlaIKe8EmHd5zzD9g0CyBBD0ZHnTGgQKQyAqQe/Vq9ck29HrEfIoQEvSy1fqK6Vdws7qehSkqSMqAohCVCSpBwL1E2De1c+KJyEAgZYJIOgtM+IJCECgFQSiEvRWNB3rR7y0Dx48uNSOl3RkPVb0VF4HAUShDkg8AoGICTDvIgZKdRAoOAEEveADgO5DIC4CeRX0cl5e0v0//dZ3RD2uUUW9LRFAFFoixO8hED0B5l30TKkRAkUmgKAXOfv0HQIxEiiCoFfKuhd1tr7HOLCoulkCiAIDBALJE2DeJc+cFiGQZwIIep6zS98gkCKBogm6Ry1J96I+aNAgLpNLcQwWsWlEoYhZp89pE2DepZ0B2odAvggg6PnKJ72BQDAEiiroSoCXdG15l6RTIJAUAUQhKdK0A4H/J8C8YzRAAAJREkDQo6RJXRCAQIlAkQUdSWcipEUAUUiLPO0WmQDzrsjZp+8QiJ4Agh49U2qEAATMrOiCXi7pnElnSiRFAFFIijTtQIAVdMYABCAQDwEEPR6u1AqBwhNA0P8eAv369XPfpf7qq68WfkwAIH4CCHr8jGkBApUEmHeMCQhAIEoCCHqUNKkLAhAoEUDQ/0YhOZekc2EckyMJAohCEpRpAwJNCTDvGBEQgECUBBD0KGlSFwQggKBXGQO9evVyt7lzYRwTJG4CiELchKkfApMSYN4xKiAAgSgJIOhR0qQuCEAAQa8h6JxDZ3IkQQBRSIIybUCAFXTGAAQgEB8BBD0+ttQMgUITYIv73+n3W9wR9EJPh8Q6j6AnhpqGIFAiwLxjMEAAAlESQNCjpEldEIBAiQCC/jcK/53onEFnciRBAFFIgjJtQKApAeYdIwICEIiSAIIeJU3qggAEEPSKMaDz5yrc4s7kSIIAopAEZdqAAILOGIAABOIjgKDHx5aaIVBoAqyg///qOdvbCz0VEu08gp4obhqDgCPAvGMgQAACURJA0KOkSV0QgECJQNEF3W9tR86ZFEkSQBSSpE1bEPibAPOOkQABCERJAEGPkiZ1QQACqQj6Bx98YPPNN18Q9HUpnORc/+Sr1YJISaGCQBQKlW46GwgB5l0giSAMCOSEAIKek0TSDQiERiDuFXQvwmPHjrUllljCjjzyyNQR+FVzBcLKeerpKGQAiEIh006nUybAvEs5ATQPgZwRQNBzllC6A4FQCMQh6OWr0126dDHJucp+++1nu+22W2pdr1w1l5xr9ZwCgaQJIApJE6c9CLDFnTEAAQhESwBBj5YntUEAAv8jEIWgS3xVBg4caCNHjrRyKS8HffPNN1uPHj0SZV8u5b5hVs0TTQGNVSGAoDMsIJA8AeZd8sxpEQJ5JoCg5zm79A0CKRJoraBLfPXnqaeeclJeT3nppZesffv29Tza6mf8ywJtY1fxf9dKOSvmrcbKByMmgChEDJTqIFAHAeZdHZB4BAIQqJsAgl43Kh6EAAQaIdBaQVcb5We5W2pzqqmmsvPOOy+yLeVevL2E+xcG5XH47euIeUvZ4fdJE0AUkiZOexBgiztjAAIQiJYAgh4tT2qDAAT+R6Atgt6opFeD3ugZ8HIxr6wPIWdYZ4UAgp6VTBFnnggw7/KUTfoCgfQJIOjp54AIIJBLAm0VdA9Fq+m33HJL6UK4Sljzzz+/rbnmmqUfV66A1wO3XOb175V/r6cOnoFACAQQhRCyQAxFI8C8K1rG6S8E4iWAoMfLl9ohUFgCUQm6ADa35T3tG9wLm2A6HiQBRCHItBBUzgkw73KeYLoHgYQJIOgJA6c5CBSFQJSCLmZaGe/Xr98k+NK4wb0oOaSf2SOAKGQvZ0ScfQLMu+znkB5AICQCCHpI2SAWCOSIQNSC7tFUrqYncYN7jtJCV3JOAFHIeYLpXpAEmHdBpoWgIJBZAgh6ZlNH4BAIm0Bcgq5eX3vttXbxxRdbhw4d7MUXXwwbBNFBIEECiEKCsGkKAv8jwLxjKEAAAlESQNCjpEldEIBAiUCcgq5GJkyYYF999ZXNOeecUIcABBAFxgAEUiOAoKeGnoYhkEsCCHou00qnIJA+gbgFPf0eEgEEwiOAKISXEyLKPwHmXf5zTA8hkCQBBD1J2rQFgQIRQNALlGy6GgwBRCGYVBBIgQgw7wqUbLoKgQQIIOgJQKYJCBSRAIJexKzT57QJIAppZ4D2i0iAeVfErNNnCMRHAEGPjy01Q6DQBBD0QqefzqdEAFFICTzNFpoA867Q6afzEIicAIIeOVIqhAAERABBZxxAIHkCiELyzGkRAsw7xgAEIBAlAQQ9SprUBQEIlAgg6AwGCCRPAFFInjktQoB5xxiAAASiJICgR0mTuiAAAQSdMQCBFAkgCinCp+nCEmDeFTb1dBwCsRBA0GPBSqUQgAAr6IwBCCRPAFFInjktQoB5xxiAAASiJICgR0mTuiAAAVbQGQMQSJEAopAifJouLAHmXWFTT8chEAsBBD0WrFQKAQiwgs4YgEDyBBCF5JnTIgSYd4wBCEAgSgIIepQ0qQsCEGAFnTEAgRQJIAopwqfpwhJg3hU29XQcArEQQNBjwUqlEIAAK+iMAQgkTwBRSJ45LUKAeccYgAAEoiSAoEdJk7ogAAFW0BkDEEiRAKKQInyaLiwB5l1hU0/HIRALAQQ9FqxUCgEIsILOGIBA8gQQheSZ0yIEmHeMAQhAIEoCCHqUNKkLAhBgBZ0xAIEUCSAKKcKn6cISYN4VNvV0HAKxEEDQY8FKpRCAACvojAEIJE8AUUieOS1CgHnHGIAABKIkgKBHSZO6IAABVtAZAxBIkQCikCJ8mi4sAeZdYVNPxyEQCwEEPRasVAoBCLCCzhiAQPIEEIXkmdMiBJh3jAEIQCBKAgh6lDSpCwIQYAWdMQCBFAkgCinCp+nCEmDeFTb1dBwCsRBA0GPBSqUQgAAr6IwBCCRPAFFInjktQoB5xxiAAASiJICgR0mTuiAAAVbQGQMQSJEAopAifJouLAHmXWFTT8chEAsBBD0WrFQKAQiwgs4YgEDyBBCF5JnTIgSYd4wBCEAgSgIIepQ0qQsCEGAFnTEAgRQJIAopwqfpwhJg3hU29XQcArEQQNBjwUqlEIAAK+iMAQgkTwBRSJ45LUKAeccYgAAEoiSAoEdJk7ogAAFW0BkDEEiRAKKQInyaLiwB5l1hU0/HIRALAQQ9FqxUmnUCv46baN+NmpD1bqQa/28/Tyy133Hq9qnGkuXGp+rS3qafZYosd6Hu2Jl3daOq+aCfd8y5trFk3rWNX9E+zbyLJuNFmnfREKOWvBJA0POaWfrVagIS8x++nmBTTTOFdZgSsWw1SD7YZgK//zbRJpvMbOKEiTbngp3aXF/IFfh513WmfPcz5BwQ298ENO/atTP7Y3z+5923X0ywX8ZOtI5di/ESkDEeLgHNO/1/XafO7W3G2RmP4WaKyJIggKAnQZk2MkVAW9UkCch5ptKW62B/HTPB/vpjos3RI7/yyrzL9RDOZOfGfvOrdehgNvsC+Zx32rGiu0Kmm7NzJvND0PkkMO7bX22G2aYwraZTIFBUAgh6UTNPv6sS0H+wfPP5BOs8Qz7/g4y0Z5OAVvJ++vpXW2DpfP6H9PdfTrDx482m7MKqSTZHaD6j1rwbP3ZCbnevaNeK5h2r5/kcv1ntlebdhHETcv1COqu5Ie7kCCDoybGmpQwQGP3VBPvph4nWZUYEPQPpKlSIoz8dl1tB17z75RezTt0Q9EIN6sA7m/cXY1o9t/btmXeBj8OihYegFy3j9LcaAQSdcQGBMgIIOsMhVAIIeqiZIa68EkDQ85pZ+hUyAQQ95OwQW1IEEPSkSNNOJggg6JlIUyGDRNALmXY6nSIBBD1F+DRdWAIIemFTT8fLCCDoDAcIsILOGMgAAQQ9A0kixFwRQNBzlU46kxECCHpGEkWYsRJA0GPFS+VZI8AKetYyVpx4EfTi5JqehkEAQQ8jD0RRLAIIerHyTW+rE0DQGRkQYAWdMZABAgh6BpJEiLkigKDnKp10JiMEEPSMJIowYyWAoMeKl8qzRoAV9KxlrDjxIujFyTU9DYMAgh5GHoiiWAQQ9GLlm96ygs4YgECLBBD0FhHxQEoEEPSUwNNsYQkg6IVNPR1PkQCCniJ8mg6GACvowaSCQEIggKCHkAViqEYAQWdcQCBZAgh6srxpDQIigKAzDiBghqAzCiBQRgBBZziESgBBDzUzxJVXAgh6XjNLv0ImgKCHnB1iS4oAgp4UadrJBAEEPRNpKmSQCHoh006nUySAoKcIn6YLSwBBL2zq6XgZAQSd4QABVtAZAxkggKBnIEmEmCsCCHqu0klnMkIAQc9IoggzVgIIeqx4qTxrBFhBz1rGihMvgl6cXNPTMAgg6GHkgSiKRQBBL1a+6W11Agg6IwMCrKAzBjJAAEHPQJIIMVcEEPRcpZPOZIQAgp6RRBFmrAQQ9FjxUnnWCLCCnrWMFSdeBL04uaanYRBA0MPIA1EUiwCCXqx801tW0BkDEGiRAILeIiIeSIkAgp4SeJotLAEEvbCpp+MpEkDQU4RP08EQYAU9mFQQSAgEEPQQskAM1Qgg6IwLCCRLAEFPljetQUAEEHTGAQT4HnTGAASaEEDQGRChEkDQQ80MceWVAIKe18zSr5AJIOghZ4fYkiLACnpSpGknEwQQ9EykqZBBIuiFTDudTpEAgp4ifJouLAEEvbCpp+NlBBB0hgMEyggg6AyHUAkg6KFmhrjySgBBz2tm6VfIBBD0kLNDbEkRQNCTIk07mSCAoGciTYUMEkEvZNrpdIoEEPQU4dN0YQkg6IVNPR1nBZ0xAIHqBBB0RkaoBBD0UDNDXHklgKDnNbP0K2QCCHrI2SG2pAiwgp4UadrJBAEEPRNpKmSQCHoh006nUySAoKcIn6YLSwBBL2zq6Tgr6IwBCLCCzhjIFgEEPVv5ItrsE0DQs59DepA9Agh69nJGxNETYAU9eqbUmGECrKBnOHk5Dx1Bz3mC6V5wBBD04FJCQAUggKAXIMl0sUUCCHqLiHigSAQQ9CJlO1t9RdCzlS+izT4BBD37OaQH2SOAoGcvZ0QcPQEEPXqm1JhhAgh6hpOX89AR9JwnuI7ujRs31iaffHKbcsqOLT79+++/25gxP1i3btO6z1AaJ4CgN84sqk9MnDjRfvppjE077XRRVdnqej766L/2+eef2mKLLRVEPK3uSEY+iKBnJFGEGSsBBD1WvFSeNQIIeu2M9ew5n3Xs2NGee+4d99ALLzxjp556jN1xxyPWsWOnJh985523rE+f3rbNNjvZMcecVrXS1VZb0n74YbS9+eanNtlkk5n/zIYbbmZnnHFR1oZO7PEi6LEjDrKBkSNH2FlnnWAvv/y8jRr1uYtxvvl62EEHHeXmV/v27ZvE/eCD99ill55rL77479LPe/fe3A4++Ghbaqle9vzzT9v2229skv3OnbvYvPMuYPPOO7+tuupatsMOe0xSX5BQEgoKQU8I9P+a+eOPP2zw4AttyJC77KWXnnM/1RhdZ53e7v9H5pprnmQD+l9rp59+rA0ceIrdeedjttpqa7c5hvI5qMq6d5/Rll56WTcH99yzf0Mv1Pbcc1t7++03bOjQV6xLl65tji2EChD0ELJADGkTQNDTzgDtB0UAQa+dju7dJ3P/sfTxxz+5h5588lHbeuv13H9QVAr1m28Os7XW6mW77baPnX32pVUrnXvurk4SvvlmorVr184JyIYb/sM222wbu/LKW4MaFyEEg6CHkIVkY7jxxqvsoIP2LInKCiusbN9//529/vor7mcffTSmyX+Un3XWiU7mVRZccBHr0WNht/Kn55988jVbfPGlS/NWz0gKvv76y5L4L7/8P+z66++x6afvnmxHA20NQU8uMRqHe+yxbenF0qKLLmGzzz6XDRv2kn333Td21FEn24ABxyQXUFlLUQu6//9OPwc/++wT10cV9VtzsN6XEXpx/sknH9pbb31ms846eyp8om4UQY+aKPVlkQCCnsWsEXNsBBD0xgVdn7jxxntt/fU3KX0YQY9+iCLo0TMNuca3337d1lhjGRfiiSeebfvuO8DtNFEZPvxte++94bb55tuWuvDcc0/Zppuu4f5+++2P2BprrFv63SeffFT6D34vBzvv3NfOPXeQe0ar9LvttpWrUz/T7yhmCHpyo0Dj7/7773SCet11d9ncc8/nGp8wYbzdcMOVtsUWfRLdXq7V/A4dOrgY4hL08jmoF2mHHrq3DR36kK2yypp2111DS/O9uSyMGfOje9E922xzJJesmFtC0GMGTPWZIICgZyJNBJkUAQS9dYKulfXnnx9eeoOPoEc/YhH06JmGXGPv3iu7bb5HHHGiHXbYcc2G+tdff9m66y7vVsoHDrzcdtmlX83nqwm6Hn7ssSHWp89Gtt56G9tNN90XMprEYkPQk0H9zDOP2xZbrO12aL3++sd1i7heSj3//DP27bdfux0jG2yw6SSryKNHf++2zOsIlc6za9eItsz7l13q4S+//Gy33nq9e/E1++xz2gorrGKHH76v9e9/mG299Y7NCvqIEf+xoUMfNL0Em3POud02dR0laa7UmoPjx/9myy67gNvR4l96q94hQ+62ZZZZzrp27WYPP3yfffXVKNt4461ML/FUdMfEXnvtb6+99rKJ5ZJL9mzygk7P6CXH999/a337HmBTTTW1TZgwwe6773bT/1e3b9/B8dPutU6dpkom6c20gqCnngICCIAAgh5AEgghHAIIeuOCrm2xEol//GN1d0ZPqw5vvPGqrb32srbrrnvbOedcVrVStrg3Nu4R9MZ4ZflpbXddaKGZXBc+/PBH9x/mzRX9B/tii83mBGfEiK+a/Y/sWnLw9NNDbcst1zGdV9cKJoUV9KTGwDHHHGyXX35+3dvY9ULqqKMOsCuvvLhJiBr/Grv+nLgEduut1y9tH/cPa4zrGJXEVnKv41j+fofyCi+//Ebbaqsdagr6FVdc5OKoLNqKry35tUqtOajnL710oB133KHujgmdu/fP+v+f9XVqhV0vNXz57ru/7MMP37flluthc801r73yyvvu6JiKttAvvfTcbnfC00+/aV9++YVtt92G7qVFedHnbr/9YXcvRZoFQU+TPm2HQgBBDyUTxBEEAQS9dhpqnUE/9NBjrUOHye2MM44r/QcWgh79cEbQo2caao3+Pgb9R/mQIc+2GOaLLz5rG220intJdu+9Tzb7fDU5+O23X23nnTe3J554pK4V+xYDyskDrKAnk8ittlrXnnrqMbetWyvQLRVthdeWeAnnzTc/YLPMMptbWdYY1oVrb7zxsfv/JF1EqmMbugdlp532crfC9+3bx7WlF8d6gXzIIf3s+usHW58+u9qJJ57jznNvvvlabtv48OFf2owzzlxV0F999UVbf/0VnQyfcMJZblu6XnIde+whTvbvuSE5zEEAABCGSURBVOcJW3nlv4+cVJbmBF392HHHTd1ugBtuuKfJnRH//Oepts8+B9sHH4y0BRdc1EaP/s5WXXVJ9wJCgq4i8dY2+QceeMbtBFA599xT7bTTjrGLLrrG9dM/o7p0T4xuzL/qqkvcCw99Rp9NsyDoadKn7VAIIOihZII4giCAoLdO0A899DjbdNPV3Ur6gw8+Z1NMMQUr6BGPaAQ9YqABV3fXXbdY377bu1vaL730+iaR7rTTZvbFF5+5n0lQ9B/dzT1fSw4kFhtuuKm7dE5irv/Il9zoWxq4JO5vagh6MpNkiSXmcFL74ovv2vzzL1hqVCJ78slHlf5+1lmXWK9eK5g//jF48M3ubLov/frtYHfeebM7oqGt2lph1sVpukDNl/fff9dWXHHh0mqyv2RNK87zzDO/e0ySfdll59lll91Qc4u7joPoWEjl/SvXXTfIBgzY2/bf/3A7/vgzqwJsTtD9dv+1197A/vWvB0uCrt0B//3v6NK5eF+xZ+cF3R9V2XHHPez886908q3Vc72c0O6ad999x9ZZZznX/6eeeqO01V9n7rULR/87oHammWbaZJJfpRUEPTX0NBwQAQQ9oGQQSvoEEPTWCfqRR55kH3/8gfXqNb/7D6ILLrjK3fDOFvfoxjSCHh3L0Gvy283XXHM9u+22h5uEq9U9raBJaCQrDz/8Quk/4nW29pZbHmi2e+U3SJc/uOmmW7sdMOWCFDqnuOND0OMm/Hf9Xrg1ljWmfdFq8vHHH+bGu4r/mjN/POrttz93q+e+aAX4yCP3t1NPPd+9JD7ssH3/r71zj82yuuP4IYxCwx3GRTZkSASF1WX4h/4xEmOymZiwwNDhMI7IZcnCimsmJZEE58AphlipEeYwiIpihmaaGRM12TLL1JG4OKabsgsXlUAZtoCspKS4fE897x7K25cO2uc5l89JSFr6vM/5nc/3nPd9v8/vXMqeJKLZYCpHjpwxc+Zcb7SWXceUubXjOjlBJyg0Nm4xCxbcXjaDriUoMrP6vBswoKoUw8mTn9r/r3QaSSWDvn37VlNbe3vpdBR3bXefpV0Nuoz2zJmT7fvD/v0n7Lp0vWe4affu/gpYD+myRbMHVJqa/mKuvPKr+YhfphYMemHoqdgjAhh0j8QglOIJYNC716DSFHcZdBVttLNs2UKbidOXlEoG3X1Jck/+OWatcv/HoBf//pBXBO5hl8bRu+9+fE7WzK0pdQbdrT2VWXjnnf2ltafl4nVf+GfPnmc0bnV2sqbxuh2r82pjCPVg0PNRSYZUxrGh4Zd2KnrXUlf3A/PUU5utQde08XHjOndXd58d7vqNGx80q1f/xC7TGDRokLnnnpX2CFAdBeqKDOz48QPsrwcPnjJ6zdq1dxk9DNOa7337/mWWL19kp7i7rHrXXdyz9+hurbk2alMWvNIYzO7i7q67884fmq1bf2HWrHnQTmd341VLydznbPaeXQ26/uY4aAaAZsfs2LHNvi9oA7yHHrrPtlfLYcotJ9C6dW04p4x9UQWDXhR56vWJAAbdJzWIpXACGPSLM+h69ZIl880LL/zK3qg7g+6+4GSnH2LQK3d/DHrhbw+5BZCdburWjWYr72rQtSOzvqjrodiTT/7a3HjjnG5jrZS9y62BgVSEQc9HKO0wXle31GZ033zzr6aqauBZFWcNujaAc9PSlSEePHhI6dpbb/22eeWV39ip6XrgtHTp90xd3V1Ga7ddcfujuM8eHeOmdejPPvtE6RqZU02n1xITlXLHrF1zzTSb2f/gg2YzevSY/wtUd2NQm7fV1HSeZf7667vN9Ok1F2TQtWxl2rQxZsqUqTbGbDb/xRd3mMWLv2vNvx4C+Fgw6D6qQkx5E8Cg502c+rwmgEG/eIPe0vKJXeOXzaBrp9vm5kNm06Ztduqh1qprWuN1133TPPfcq7ZSDDoGvXr4/6aKev1GkUNwbjaKzMLmzdvt0VCuuLHiMuj6f23ytHLlj+zsleeff9XMmPE1e/mZM2dMY+M6e7yUzA0GvefiYdB7zupirtQDJn1maIq1llo0NGwunVygh1Xad0Frq90U9zvuWGyefnrLWRn3EyeOm8mTO0870Fr2/v372yPLZMR37dpjBg2qtn9bv36N3dDU7e+g2Soy9iNHjjbalHHixEl2g7Zx4y4pNcllpJUt11Rxlfr6ZWbLlo0227x2bYOtT0VT3LXLfKUMdLkxqLXhCxd+xxpqt35c97uQDLpe56bp6+eXXmoy1177DRufe7inn7Pr7vW7ToMYP37CxUjZK6/FoPcKRm4SOAEMeuACEn7vEsCgd8+zJ1Pc3aubmn5r1725DPqjj24wq1b92Fx11UwzatRou4uuiozH3Lm32J8x6JX7Mhn03h3rvt9NmzstWnSzPQNZRQZb02ZbWo4aZcFUsru86wzlefO+Zd56q8n+TYZeX7Z37fqD3cla2TQZF4097Q9Rbnqt70zyjg+Dnh9xrQOXUdbUcplbPUzS0os33vi97b8qzqDrbPCrr+5cP63N2NTPn3lmiz02LNuvtQb98cc32bEzf/737T4pOs5NxZlTt8O5ssxtbW32GtWro9h0Bvrw4SOMzjqfNavGvm758pVm9er7TfZBtB6K3XbbEmvMtXZ97tz55r77GruF50y32nnFFTPsenF3zJumxT/yyBOlrPyFGnSdb67j49zRatlgNmy4v7T53g03zLbvI2+//Uf7XuOmwuen/Lk1YdCLpE/dvhDAoPuiBHF4QQCD3r0MXQ2628iqvv6npr7+7nNeqPV/ymroOBvtIKvNfrSO0BVNO9SXHZd5wKBXHgIYdC/eInINQl/4tfHVww8/cNY5zTIEN920wCxdutxMmjS5FNPp06ftcUoyJTI6rsh8aOMsZQXduNXxSjp+itI9AQx6vr1DGXTNAtExYdkiA7l48TIzZ8780v4K7733Z1Nbu8js3v2n0qWazq7PI51vrqLs+/r1P7Om3I0HPSTesOExU1PzdXuN9m9YsuQWex9Nsdc6bZlbXa+17CtWrLbX6XzyxsYH7AkHOulA5cCBfTZeZfdd0f1ra1eUHjyXI+jGoPubTPTUqdPtqQrugbX72/k+Z910/67r8fV67dau9fd6OJEtmlWzbdtj9rx1x0UPC7QvhdbhZ2cP5NsDOmvDoBdBnTp9I4BB900R4imUAAa99/Br2mJr6yc2G+FKW9t/zLFjrfYLQL9+nTvpUnpGAIPeM06xXtXa2mKnoMpA9GQDJ2XktL524sSvlB6Cxcqmr9qFQe8rspXvq9kjBw7stbuja5d29xC33Ks0pVzZbE1l1wZn5YoedGk8KBvek7Gje06aNNQuF3n//cOlW2o8NTcftmMwW06dajOHDx/6fEf3zocDPpSjR4+YYcNGlB5YlItJ7yni7NPRihh0H3oPMRRNAINetALU7xUBDLpXchBMhgAGne4AgXwJYNDz5V1EbcqcazM5Zcq1Q7xme2kJybp1d9up8a+9tquIsJKuE4OetPw0/nMCGHS6AgSyJuhQuzne0mGGju3cUIYCAV8IYNB9UYI4UiGAQY9f6YaGn5t77111TkOVPX/55Z3msssujx+CZy3EoHsmCOEUQgCDXgh2KvWVABl0X5UhLgw6fQAC+RLAoOfLu6ja9u79h9m583dmz56/2Sn1s2Zdb09B6G7KfFFxplIvBj0VpWlnJQIYdPoHBDIEMOh0B18JYNB9VYa4YiWAQY9VWdrlMwEMus/qEFteBDDoeZGmniAIYNCDkCnJIDHoScpOowskgEEvED5VJ0sAg56s9DQ8QwCDTneAABl0+kAABDDoAYhEiFERwKBHJSeNCYQABj0QoQizTwlg0PsULzcPjQAZ9NAUSydeDHo6WtNSPwhg0P3QgSjSIoBBT0tvWlueAAadngEBMuj0gQAIYNADEIkQoyKAQY9KThoTCAEMeiBCEWafEsCg9ylebh4aATLooSmWTrwY9HS0pqV+EMCg+6EDUaRFAIOelt60lgw6fQAC5yWAQT8vIi4oiAAGvSDwVJssAQx6stLT8AIJYNALhE/V3hAgg+6NFATiAwEMug8qEEM5Ahh0+gUE8iWAQc+XN7VBQAQw6PQDCBiDQacXQCBDAINOd/CVAAbdV2WIK1YCGPRYlaVdPhPAoPusDrHlRQCDnhdp6gmCAAY9CJmSDBKDnqTsNLpAAhj0AuFTdbIEMOjJSk/DMwQw6HQHCJBBpw8EQACDHoBIhBgVAQx6VHLSmEAIYNADEYow+5QABr1P8XLz0AiQQQ9NsXTixaCnozUt9YMABt0PHYgiLQIY9LT0prXlCWDQ6RkQIINOHwiAAAY9AJEIMSoCGPSo5KQxgRDAoAciFGH2KQEMep/i5eahESCDHppi6cSLQU9Ha1rqBwEMuh86EEVaBDDoaelNa8mg0wcgcF4CGPTzIuKCgghg0AsCT7XJEsCgJys9DS+QAAa9QPhU7Q0BMujeSEEgPhDAoPugAjGUI4BBp19AIF8CGPR8eVMbBEQAg04/gADnoNMHIHAWAQw6HcJXAhh0X5UhrlgJYNBjVZZ2+UwAg+6zOsSWFwEy6HmRpp4gCGDQg5ApySAx6EnKTqMLJIBBLxA+VSdLAIOerPQ0PEMAg053gECGAAad7uArAQy6r8oQV6wEMOixKku7fCaAQfdZHWLLiwAGPS/S1BMEAQx6EDIlGSQGPUnZaXSBBDDoBcKn6mQJYNCTlZ6Gk0GnD0CgPAEMOj3DVwIYdF+VIa5YCWDQY1WWdvlMAIPuszrElhcBMuh5kaaeIAi0fdphDn/YboaOrQ4iXoJMh0DsBv14SwfjLp3uHERLMehByESQkRHAoEcmKM25IAIY9AvCxotiJSCD/tHf28yoS4fE2kTaFSCBtmPt5szpDnPptDgfHGncNX/UboaMibN9AXY5QjbGaNwNHGjMmC9VRcnj5PEO8++DjLsoxQ24UaeOd467L06Ic9wFLA2h50gAg54jbKoKg8CHe9pMvy/0N9XD+XAIQ7G4o3RZvFHjq8zoS+Ltk4y7uPtxaK1z405jTmMvxuIeSOuzjs+7GBUOr016KKZ/X7682lQP6R9eA4gYAr1EAIPeSyC5TVwEjnzcblqb201VNR8QcSkbXmva2zrMiLFV0WbxnCKffWbs7JVTJzsYd+F10+gi1rgbOa4q+iyesugH/9lm9ePzLrpuHFyDNO4mTKk2g4fx3Ss48Qi4Vwlg0HsVJzeLjYAyDBQIFEkgxSwC467IHkfdIpDauGPM0e99IJDauPOBOTH4SQCD7qcuRAUBCEAAAhCAAAQgAAEIQAACiRHAoCcmOM2FAAQgAAEIQAACEIAABCAAAT8JYND91IWoIAABCEAAAhCAAAQgAAEIQCAxAhj0xASnuRCAAAQgAAEIQAACEIAABCDgJwEMup+6EBUEIAABCEAAAhCAAAQgAAEIJEYAg56Y4DQXAhCAAAQgAAEIQAACEIAABPwkgEH3UxeiggAEIAABCEAAAhCAAAQgAIHECGDQExOc5kIAAhCAAAQgAAEIQAACEICAnwQw6H7qQlQQgAAEIAABCEAAAhCAAAQgkBgBDHpigtNcCEAAAhCAAAQgAAEIQAACEPCTAAbdT12ICgIQgAAEIAABCEAAAhCAAAQSI/BfQOQC0lfevesAAAAASUVORK5CYII=;" vertex="1" parent="1">
          <mxGeometry x="70" y="70" width="402.08" height="310" as="geometry" />
        </mxCell>
        <mxCell id="DckorlrUe_CT-1jbjkwf-5" value="Android Backup" style="text;strokeColor=none;align=center;fillColor=none;html=1;verticalAlign=middle;whiteSpace=wrap;rounded=0;" vertex="1" parent="1">
          <mxGeometry x="240" y="406" width="60" height="30" as="geometry" />
        </mxCell>
      </root>
    </mxGraphModel>
  </diagram>
</mxfile>
